{
.appVersion = "3151";
.formatVersion = 3;
classes = (
{
automatic = 1;
code = "A Aacute Abreve Acircumflex Adieresis Agrave Amacron Aogonek Aring Aringacute Atilde AE AEacute B C Cacute Ccaron Ccedilla Ccircumflex Cdotaccent D Eth Dcaron Dcroat E Eacute Ebreve Ecaron Ecircumflex Edieresis Edotaccent Egrave Emacron Eogonek F G Gbreve Gcircumflex Gcommaaccent Gdotaccent H Hbar Hcircumflex I IJ Iacute Ibreve Icircumflex Idieresis Idotaccent Igrave Imacron Iogonek Itilde J Jcircumflex K Kcommaaccent L Lacute Lcaron Lcommaaccent Ldot Lslash M N Nacute Ncaron Ncommaaccent Ntilde Eng O Oacute Obreve Ocircumflex Odieresis Ograve Ohungarumlaut Omacron Oslash Oslashacute Otilde OE P Thorn Q R Racute Rcaron Rcommaaccent S Sacute Scaron Scedilla Scircumflex Scommaaccent T Tbar Tcaron Tcedilla Tcommaaccent U Uacute Ubreve Ucircumflex Udieresis Ugrave Uhungarumlaut Umacron Uogonek Uring Utilde V W Wacute Wcircumflex Wdieresis Wgrave X Y Yacute Ycircumflex Ydieresis Ygrave Z Zacute Zcaron Zdotaccent Delta Omega";
name = Uppercase;
}
);
customParameters = (
{
name = fsType;
value = (
);
},
{
name = "Use Typo Metrics";
value = 1;
}
);
date = "2023-02-22 16:13:11 +0000";
familyName = Mate;
featurePrefixes = (
{
automatic = 1;
code = "languagesystem DFLT dflt;

languagesystem latn dflt;
languagesystem latn AZE;
languagesystem latn CRT;
languagesystem latn KAZ;
languagesystem latn TAT;
languagesystem latn TRK;
languagesystem latn ROM;
languagesystem latn MOL;
languagesystem latn CAT;
";
name = Languagesystems;
}
);
features = (
{
automatic = 1;
code = "feature locl;
feature sups;
feature frac;
feature ordn;
feature case;
feature salt;
";
tag = aalt;
},
{
automatic = 1;
code = "lookup ccmp_Other_1 {
	@CombiningTopAccents = [acutecomb brevecomb caroncomb circumflexcomb commaturnedabovecomb dieresiscomb dotaccentcomb gravecomb hungarumlautcomb macroncomb ringcomb tildecomb];
	@CombiningNonTopAccents = [cedillacomb ogonekcomb];
	sub [i j]' @CombiningTopAccents by [idotless jdotless];

glyphs = (
{
glyphname = A;
kernLeft = A;
kernRight = A;
lastChange = "2023-02-24 13:23:56 +0000";
layers = (
{
anchors = (
{
name = bottom;
pos = (265,0);
},
{
name = ogonek;
pos = (603,26);
},
{
name = top;
pos = (379,700);
}
);
background = {
shapes = (
{
closed = 1;
nodes = (
(129,0,l),
(137,26,l),
(61,56,l),
(144,215,l),
(406,229,l),
(431,55,l),
(403,46,o),
(376,36,o),
(351,26,c),
(359,0,l),
(582,0,l),
(588,22,l),
(563,35,o),
(535,47,o),
(509,56,c),
(418,697,l),
(403,706,l),
(395,706,o),
(361,700,o),
(339,691,c),
(3,57,l),
(-22,46,o),
(-56,31,o),
(-70,22,c),
(-64,0,l,{
name = hr00;
})
);
},
{
closed = 1;
nodes = (
(400,273,l),
(174,273,l),
(352,617,l)
);
}
);
};
layerId = master01;
shapes = (
{
closed = 1;
nodes = (
(129,0,l),
(137,26,l),
(61,56,l),
(144,215,l),
(406,229,l),
(431,55,l),
(403,46,o),
(376,36,o),
(351,26,c),
(359,0,l),
(582,0,l),
(588,22,l),
(563,35,o),
(535,47,o),
(509,56,c),
(418,697,l),
(403,706,l),
(395,706,o),
(361,700,o),
(339,691,c),
(3,57,l),
(-22,46,o),
(-56,31,o),
(-70,22,c),
(-64,0,l,{
name = hr00;
})
);
},
{
closed = 1;
nodes = (
(352,617,l),
(400,273,l),
(174,273,l)
);
}
);
width = 618;
}
);
unicode = 65;
},
{
glyphname = Aacute;
kernLeft = A;
kernRight = A;
lastChange = "2023-02-24 13:23:56 +0000";
layers = (
{
background = {
shapes = (
{
closed = 1;
nodes = (
(129,0,l),
(137,26,l),
(61,56,l),
(144,215,l),
(406,229,l),
(431,55,l),
(403,46,o),
(376,36,o),
(351,26,c),
(359,0,l),
(582,0,l),
(588,22,l),
(563,35,o),
(535,47,o),
(509,56,c),
(418,697,l),
(403,706,l),
(395,706,o),
(361,700,o),
(339,691,c),
(3,57,l),
(-22,46,o),
(-56,31,o),
(-70,22,c),
(-64,0,l,{
name = hr00;
})
);
},
{
closed = 1;
nodes = (
(400,273,l),
(174,273,l),
(352,617,l)
);
},
{
closed = 1;
nodes = (
(371,777,o),
(461,807,o),
(523,850,c),
(532,867,l),
(532,888,o),
(517,920,o),
(507,930,c),
(421,854,o),
(330,787,o),
(330,787,c),
(341,768,l,{
name = hr00;
})
);
}
);
};
layerId = master01;
shapes = (
{
ref = A;
},
{
pos = (271,0);
ref = acutecomb.case;
}
);
width = 618;
}
);
unicode = 193;
},
{
glyphname = Abreve;
kernLeft = A;
kernRight = A;
lastChange = "2023-02-24 13:23:56 +0000";
layers = (
{
background = {
shapes = (
{
closed = 1;
nodes = (
(129,0,l),
(137,26,l),
(61,56,l),
(144,215,l),
(406,229,l),
(431,55,l),
(403,46,o),
(376,36,o),
(351,26,c),
(359,0,l),
(582,0,l),
(588,22,l),
(563,35,o),
(535,47,o),
(509,56,c),
(418,697,l),
(403,706,l),
(395,706,o),
(361,700,o),
(339,691,c),
(3,57,l),
(-22,46,o),
(-56,31,o),
(-70,22,c),
(-64,0,l,{
name = hr00;
})
);
},
{
closed = 1;
nodes = (
(400,273,l),
(174,273,l),
(352,617,l)
);
},
{
closed = 1;
nodes = (
(352,837,o),
(332,871,o),
(322,924,c),
(291,917,l),
(302,824,o),
(322,773,o),
(376,773,cs),
(430,773,o),
(467,824,o),
(513,917,c),
(483,924,l),
(453,871,o),
(421,837,o),
(387,837,cs,{
name = hr00;
})
);
}
);
};
layerId = master01;
shapes = (
{
ref = A;
},
{
pos = (198,0);
ref = brevecomb.case;
}
);
width = 618;
}
);
unicode = 258;
},
{
glyphname = Acircumflex;
kernLeft = A;
kernRight = A;
lastChange = "2023-02-24 13:23:56 +0000";
layers = (
{
background = {
shapes = (
{
closed = 1;
nodes = (
(129,0,l),
(137,26,l),
(61,56,l),
(144,215,l),
(406,229,l),
(431,55,l),
(403,46,o),
(376,36,o),
(351,26,c),
(359,0,l),
(582,0,l),
(588,22,l),
(563,35,o),
(535,47,o),
(509,56,c),
(418,697,l),
(403,706,l),
(395,706,o),
(361,700,o),
(339,691,c),
(3,57,l),
(-22,46,o),
(-56,31,o),
(-70,22,c),
(-64,0,l,{
name = hr00;
})
);
},
{
closed = 1;
nodes = (
(400,273,l),
(174,273,l),
(352,617,l)
);
},
{
closed = 1;
nodes = (
(432,931,o),
(424,932,o),
(416,932,cs),
(408,932,o),
(400,931,o),
(392,929,c),
(325,837,o),
(274,785,o),
(274,785,c),
(293,768,l),
(310,779,o),
(366,818,o),
(408,852,c),
(440,808,o),
(465,779,o),
(475,768,c),
(494,782,l),
(494,782,o),
(474,830,o),
(440,929,c,{
name = hr00;
})
);
}
);
};
layerId = master01;
shapes = (
{
ref = A;
},
{
pos = (211,0);
ref = circumflexcomb.case;
}
);
width = 618;
}
);
unicode = 194;
},
{
glyphname = Adieresis;
kernLeft = A;
kernRight = A;
lastChange = "2023-02-24 13:23:56 +0000";
layers = (
{
background = {
shapes = (
{
closed = 1;
nodes = (
(129,0,l),
(137,26,l),
(61,56,l),
(144,215,l),
(406,229,l),
(431,55,l),
(403,46,o),
(376,36,o),
(351,26,c),
(359,0,l),
(582,0,l),
(588,22,l),
(563,35,o),
(535,47,o),
(509,56,c),
(418,697,l),
(403,706,l),
(395,706,o),
(361,700,o),
(339,691,c),
(3,57,l),
(-22,46,o),
(-56,31,o),
(-70,22,c),
(-64,0,l,{
name = hr00;
})
);
},
{
closed = 1;
nodes = (
(400,273,l),
(174,273,l),
(352,617,l)
);
},
{
closed = 1;
nodes = (
(478,903,o),
(446,896,o),
(446,896,c),
(446,896,o),
(427,852,o),
(427,820,cs),
(427,802,o),
(433,788,o),
(453,788,cs),
(472,788,o),
(502,797,o),
(502,797,c),
(503,797,o),
(521,840,o),
(521,869,cs),
(521,888,o),
(514,903,o),
(496,903,cs,{
name = hr00;
})
);
},
{
closed = 1;
nodes = (
(342,903,o),
(310,896,o),
(310,896,c),
(310,896,o),
(291,852,o),
(291,820,cs),
(291,802,o),
(297,788,o),
(317,788,cs),
(336,788,o),
(366,797,o),
(366,797,c),
(367,797,o),
(385,840,o),
(385,869,cs),
(385,888,o),
(378,903,o),
(360,903,cs)
);
}
);
};
layerId = master01;
shapes = (
{
ref = A;
},
{
pos = (224,0);
ref = dieresiscomb.case;
}
);
width = 618;
}
);
unicode = 196;
},
{
glyphname = Agrave;
kernLeft = A;
kernRight = A;
lastChange = "2023-02-24 13:23:56 +0000";
layers = (
{
background = {
shapes = (
{
closed = 1;
nodes = (
(129,0,l),
(137,26,l),
(61,56,l),
(144,215,l),
(406,229,l),
(431,55,l),
(403,46,o),
(376,36,o),
(351,26,c),
(359,0,l),
(582,0,l),
(588,22,l),
(563,35,o),
(535,47,o),
(509,56,c),
(418,697,l),
(403,706,l),
(395,706,o),
(361,700,o),
(339,691,c),
(3,57,l),
(-22,46,o),
(-56,31,o),
(-70,22,c),
(-64,0,l,{
name = hr00;
})
);
},
{
closed = 1;
nodes = (
(400,273,l),
(174,273,l),
(352,617,l)
);
},
{
closed = 1;
nodes = (
(481,799,o),
(390,866,o),
(304,942,c),
(294,932,o),
(279,900,o),
(279,879,c),
(288,862,l),
(350,819,o),
(440,789,o),
(470,780,c),
(481,799,l,{
name = hr00;
})
);
}
);
};
layerId = master01;
shapes = (
{
ref = A;
},
{
pos = (338,0);
ref = gravecomb.case;
}
);
width = 618;
}
);
unicode = 192;
},
{
glyphname = Amacron;
kernLeft = A;
kernRight = A;
lastChange = "2023-02-24 13:23:56 +0000";
layers = (
{
background = {
shapes = (
{
closed = 1;
nodes = (
(129,0,l),
(137,26,l),
(61,56,l),
(144,215,l),
(406,229,l),
(431,55,l),
(403,46,o),
(376,36,o),
(351,26,c),
(359,0,l),
(582,0,l),
(588,22,l),
(563,35,o),
(535,47,o),
(509,56,c),
(418,697,l),
(403,706,l),
(395,706,o),
(361,700,o),
(339,691,c),
(3,57,l),
(-22,46,o),
(-56,31,o),
(-70,22,c),
(-64,0,l,{
name = hr00;
})
);
},
{
closed = 1;
nodes = (
(400,273,l),
(174,273,l),
(352,617,l)
);
},
{
closed = 1;
nodes = (
(521,805,l),
(531,862,l),
(264,862,l),
(254,805,l,{
name = hr00;
})
);
}
);
};
layerId = master01;
shapes = (
{
ref = A;
},
{
pos = (153,0);
ref = macroncomb.case;
}
);
width = 618;
}
);
unicode = 256;
},
{
glyphname = Aogonek;
kernLeft = A;
kernRight = A;
lastChange = "2023-02-24 13:23:56 +0000";
layers = (
{
background = {
shapes = (
{
closed = 1;
nodes = (
(129,0,l),
(137,26,l),
(61,56,l),
(144,215,l),
(406,229,l),
(431,55,l),
(403,46,o),
(376,36,o),
(351,26,c),
(359,0,l),
(582,0,l),
(588,22,l),
(563,35,o),
(535,47,o),
(509,56,c),
(418,697,l),
(403,706,l),
(395,706,o),
(361,700,o),
(339,691,c),
(3,57,l),
(-22,46,o),
(-56,31,o),
(-70,22,c),
(-64,0,l,{
name = hr00;
})
);
},
{
closed = 1;
nodes = (
(400,273,l),
(174,273,l),
(352,617,l)
);
},
{
closed = 1;
nodes = (
(421,-23,o),
(359,-89,o),
(359,-161,cs),
(359,-202,o),
(384,-233,o),
(436,-233,cs),
(480,-233,o),
(528,-211,o),
(567,-165,c),
(548,-147,l),
(528,-172,o),
(491,-190,o),
(460,-190,cs),
(435,-190,o),
(415,-177,o),
(415,-142,cs),
(415,-101,o),
(460,-30,o),
(528,9,c),
(518,26,l,{
name = hr00;
})
);
}
);
};
layerId = master01;
shapes = (
{
ref = A;
},
{
pos = (225,0);
ref = ogonekcomb;
}
);
width = 618;
}
);
unicode = 260;
},
{
glyphname = Aring;
kernLeft = A;
kernRight = A;
lastChange = "2023-02-24 13:23:56 +0000";
layers = (
{
background = {
shapes = (
{
closed = 1;
nodes = (
(129,0,l),
(137,26,l),
(61,56,l),
(144,215,l),
(406,229,l),
(431,55,l),
(403,46,o),
(376,36,o),
(351,26,c),
(359,0,l),
(582,0,l),
(588,22,l),
(563,35,o),
(535,47,o),
(509,56,c),
(418,697,l),
(403,706,l),
(395,706,o),
(361,700,o),
(339,691,c),
(3,57,l),
(-22,46,o),
(-56,31,o),
(-70,22,c),
(-64,0,l,{
name = hr00;
})
);
},
{
closed = 1;
nodes = (
(400,273,l),
(174,273,l),
(352,617,l)
);
},
{
closed = 1;
nodes = (
(505,914,o),
(471,936,o),
(427,936,cs),
(370,936,o),
(316,897,o),
(316,827,cs),
(316,782,o),
(347,760,o),
(392,760,cs),
(457,760,o),
(505,808,o),
(505,869,cs,{
name = hr00;
})
);
},
{
closed = 1;
nodes = (
(443,903,o),
(458,889,o),
(458,863,cs),
(458,814,o),
(428,793,o),
(401,793,cs),
(379,793,o),
(363,806,o),
(363,832,cs),
(363,881,o),
(394,903,o),
(421,903,cs)
);
}
);
};
layerId = master01;
shapes = (
{
ref = A;
},
{
pos = (220,0);
ref = ringcomb.case;
}
);
width = 618;
}
);
unicode = 197;
},
{
glyphname = Aringacute;
kernLeft = A;
kernRight = A;
lastChange = "2023-02-24 13:23:56 +0000";
layers = (
{
background = {
shapes = (
{
closed = 1;
nodes = (
(129,0,l),
(137,26,l),
(61,56,l),
(144,215,l),
(406,229,l),
(431,55,l),
(403,46,o),
(376,36,o),
(351,26,c),
(359,0,l),
(582,0,l),
(588,22,l),
(563,35,o),
(535,47,o),
(509,56,c),
(418,697,l),
(403,706,l),
(395,706,o),
(361,700,o),
(339,691,c),
(3,57,l),
(-22,46,o),
(-56,31,o),
(-70,22,c),
(-64,0,l,{
name = hr00;
})
);
},
{
closed = 1;
nodes = (
(400,273,l),
(174,273,l),
(352,617,l)
);
},
{
closed = 1;
nodes = (
(505,914,o),
(471,936,o),
(427,936,cs),
(370,936,o),
(316,897,o),
(316,827,cs),
(316,782,o),
(347,760,o),
(392,760,cs),
(457,760,o),
(505,808,o),
(505,869,cs,{
name = hr00;
})
);
},
{
closed = 1;
nodes = (
(443,903,o),
(458,889,o),
(458,863,cs),
(458,814,o),
(428,793,o),
(401,793,cs),
(379,793,o),
(363,806,o),
(363,832,cs),
(363,881,o),
(394,903,o),
(421,903,cs)
);
},
{
closed = 1;
nodes = (
(430,910,o),
(507,936,o),
(559,973,c),
(567,987,l),
(567,1005,o),
(554,1032,o),
(546,1041,c),
(473,976,o),
(395,919,o),
(395,919,c),
(405,903,l,{
name = hr00;
})
);
}
);
};
layerId = master01;
shapes = (
{
closed = 1;
nodes = (
(457,760,o),
(505,808,o),
(505,869,cs,{
name = hr00;
}),
(505,914,o),
(471,936,o),
(427,936,cs),
(370,936,o),
(316,897,o),
(316,827,cs),
(316,782,o),
(347,760,o),
(392,760,cs)
);
},
{
ref = A;
},
{
closed = 1;
nodes = (
(379,793,o),
(363,806,o),
(363,832,cs),
(363,881,o),
(394,903,o),
(421,903,cs),
(443,903,o),
(458,889,o),
(458,863,cs),
(458,814,o),
(428,793,o),
(401,793,cs)
);
},
{
closed = 1;
nodes = (
(430,910,o),
(507,936,o),
(559,973,c),
(567,987,l),
(567,1005,o),
(554,1032,o),
(546,1041,c),
(473,976,o),
(395,919,o),
(395,919,c),
(405,903,l,{
name = hr00;
})
);
}
);
width = 618;
}
);
unicode = 506;
},
{
glyphname = Atilde;
kernLeft = A;
kernRight = A;
lastChange = "2023-02-24 13:23:56 +0000";
layers = (
{
background = {
shapes = (
{
closed = 1;
nodes = (
(129,0,l),
(137,26,l),
(61,56,l),
(144,215,l),
(406,229,l),
(431,55,l),
(403,46,o),
(376,36,o),
(351,26,c),
(359,0,l),
(582,0,l),
(588,22,l),
(563,35,o),
(535,47,o),
(509,56,c),
(418,697,l),
(403,706,l),
(395,706,o),
(361,700,o),
(339,691,c),
(3,57,l),
(-22,46,o),
(-56,31,o),
(-70,22,c),
(-64,0,l,{
name = hr00;
})
);
},
{
closed = 1;
nodes = (
(400,273,l),
(174,273,l),
(352,617,l)
);
},
{
closed = 1;
nodes = (
(514,863,o),
(492,857,o),
(471,857,cs),
(430,857,o),
(392,886,o),
(352,886,cs),
(322,886,o),
(290,869,o),
(256,812,c),
(275,795,l),
(298,818,o),
(320,824,o),
(342,824,cs),
(382,824,o),
(421,795,o),
(461,795,cs),
(491,795,o),
(522,811,o),
(557,869,c),
(538,886,l,{
name = hr00;
})
);
}
);
};
layerId = master01;
shapes = (
{
ref = A;
},
{
pos = (130,0);
ref = tildecomb.case;
}
);
width = 618;
}
);
unicode = 195;
},
{
glyphname = AE;
kernLeft = A;
lastChange = "2023-02-24 13:23:56 +0000";
layers = (
{
anchors = (
{
name = bottom;
pos = (387,0);
},
{
name = top;
pos = (565,700);
}
);
background = {
shapes = (
{
closed = 1;
nodes = (
(314,662,o),
(348,648,o),
(377,639,c),
(10,59,l),
(-16,49,o),
(-55,31,o),
(-70,22,c),
(-64,0,l),
(129,0,l),
(137,26,l),
(68,53,l),
(221,296,l),
(451,302,l),
(405,57,l),
(375,48,o),
(347,37,o),
(320,26,c),
(328,0,l),
(433,8,l),
(544,8,o),
(706,0,o),
(758,-4,c,{
name = hr01;
}),
(773,14,o),
(783,34,o),
(789,55,c),
(783,72,l),
(734,61,o),
(607,56,o),
(473,55,c),
(527,304,l),
(759,310,l),
(768,353,l),
(537,353,l),
(585,649,l),
(683,643,o),
(792,643,o),
(838,643,c),
(852,659,o),
(863,677,o),
(869,696,c),
(863,713,l),
(815,702,o),
(573,696,o),
(413,696,c),
(292,700,l),
(286,678,l)
);
},
{
closed = 1;
nodes = (
(461,353,l),
(257,353,l),
(444,649,l),
(517,649,l)
);
}
);
};
layerId = master01;
shapes = (
{
closed = 1;
nodes = (
(773,14,o),
(783,34,o),
(789,55,c),
(783,72,l),
(734,61,o),
(607,56,o),
(473,55,c),
(527,304,l),
(759,310,l),
(768,353,l),
(537,353,l),
(585,649,l),
(683,643,o),
(792,643,o),
(838,643,c),
(852,659,o),
(863,677,o),
(869,696,c),
(863,713,l),
(815,702,o),
(573,696,o),
(413,696,c),
(292,700,l),
(286,678,l),
(314,662,o),
(348,648,o),
(377,639,c),
(10,59,l),
(-16,49,o),
(-55,31,o),
(-70,22,c),
(-64,0,l),
(129,0,l),
(137,26,l),
(68,53,l),
(221,296,l),
(451,302,l),
(405,57,l),
(375,48,o),
(347,37,o),
(320,26,c),
(328,0,l),
(433,8,l),
(544,8,o),
(706,0,o),
(758,-4,c,{
name = hr01;
})
);
},
{
closed = 1;
nodes = (
(444,649,l),
(517,649,l),
(461,353,l),
(257,353,l)
);
}
);
width = 862;
}
);
unicode = 198;
},
{
glyphname = AEacute;
kernLeft = A;
lastChange = "2023-02-24 13:23:56 +0000";
layers = (
{
background = {
shapes = (
{
closed = 1;
nodes = (
(314,662,o),
(348,648,o),
(377,639,c),
(10,59,l),
(-16,49,o),
(-55,31,o),
(-70,22,c),
(-64,0,l),
(129,0,l),
(137,26,l),
(68,53,l),
(221,296,l),
(451,302,l),
(405,57,l),
(375,48,o),
(347,37,o),
(320,26,c),
(328,0,l),
(433,8,l),
(544,8,o),
(706,0,o),
(758,-4,c,{
name = hr01;
}),
(773,14,o),
(783,34,o),
(789,55,c),
(783,72,l),
(734,61,o),
(607,56,o),
(473,55,c),
(527,304,l),
(759,310,l),
(768,353,l),
(537,353,l),
(585,649,l),
(683,643,o),
(792,643,o),
(838,643,c),
(852,659,o),
(863,677,o),
(869,696,c),
(863,713,l),
(815,702,o),
(573,696,o),
(413,696,c),
(292,700,l),
(286,678,l)
);
},
{
closed = 1;
nodes = (
(461,353,l),
(257,353,l),
(444,649,l),
(517,649,l)
);
},
{
closed = 1;
nodes = (
(528,777,o),
(618,807,o),
(680,850,c),
(689,867,l),
(689,888,o),
(674,920,o),
(664,930,c),
(578,854,o),
(487,787,o),
(487,787,c),
(498,768,l,{
name = hr00;
})
);
}
);
};
layerId = master01;
shapes = (
{
ref = AE;
},
{
pos = (457,0);
ref = acutecomb.case;
}
);
width = 862;
}
);
unicode = 508;
},
{
glyphname = B;
lastChange = "2023-02-24 13:23:56 +0000";
layers = (
{
anchors = (
{
name = bottom;
pos = (263,0);
},
{
name = center;
pos = (330,350);
},
{
name = top;
pos = (397,700);
}
);
background = {
shapes = (
{
closed = 1;
nodes = (
(151,664,o),
(181,650,o),
(209,642,c),
(98,57,l),
(68,48,o),
(40,37,o),
(13,26,c),
(21,0,l),
(126,8,l,{
name = hr01;
}),
(323,0,o),
(326,0,o),
(330,0,cs,{
name = hr02;
}),
(461,0,o),
(567,106,o),
(567,225,cs),
(567,291,o),
(528,352,o),
(441,374,c),
(517,411,o),
(577,474,o),
(577,544,cs),
(577,631,o),
(523,698,o),
(425,698,c),
(252,696,l),
(131,700,l),
(125,678,l)
);
},
{
closed = 1;
nodes = (
(285,44,o),
(226,48,o),
(166,58,c),
(230,350,l),
(278,646,l),
(403,656,l),
(469,656,o),
(497,601,o),
(497,538,cs),
(497,480,o),
(460,399,o),
(362,399,cs),
(329,399,o),
(312,403,o),
(281,407,c),
(269,366,l),
(290,359,o),
(340,345,o),
(352,345,c),
(361,346,o),
(370,348,o),
(379,351,c),
(453,340,o),
(486,284,o),
(486,223,cs),
(486,139,o),
(424,44,o),
(313,44,cs,{
name = hr03;
})
);
}
);
};
layerId = master01;
shapes = (
{
closed = 1;
nodes = (
(126,8,l,{
name = hr01;
}),
(323,0,o),
(326,0,o),
(330,0,cs,{
name = hr02;
}),
(461,0,o),
(567,106,o),
(567,225,cs),
(567,291,o),
(528,352,o),
(441,374,c),
(517,411,o),
(577,474,o),
(577,544,cs),
(577,631,o),
(523,698,o),
(425,698,c),
(252,696,l),
(131,700,l),
(125,678,l),
(151,664,o),
(181,650,o),
(209,642,c),
(98,57,l),
(68,48,o),
(40,37,o),
(13,26,c),
(21,0,l)
);
},
{
closed = 1;
nodes = (
(285,44,o),
(226,48,o),
(166,58,c),
(230,350,l),
(278,646,l),
(403,656,l),
(469,656,o),
(497,601,o),
(497,538,cs),
(497,480,o),
(460,399,o),
(362,399,cs),
(329,399,o),
(312,403,o),
(281,407,c),
(269,366,l),
(290,359,o),
(340,345,o),
(352,345,c),
(361,346,o),
(370,348,o),
(379,351,c),
(453,340,o),
(486,284,o),
(486,223,cs),
(486,139,o),
(424,44,o),
(313,44,cs,{
name = hr03;
})
);
}
);
width = 613;
}
);
unicode = 66;
},
{
glyphname = C;
kernLeft = C;
lastChange = "2023-02-24 13:23:56 +0000";
layers = (
{
anchors = (
{
name = bottom;
pos = (318,0);
},
{
name = top;
pos = (372,700);
}
);
background = {
shapes = (
{
closed = 1;
nodes = (
(443,58,o),
(375,41,o),
(321,41,cs),
(207,41,o),
(130,112,o),
(130,258,cs),
(130,494,o),
(229,646,o),
(413,646,cs),
(468,646,o),
(516,634,o),
(571,623,c),
(597,673,l),
(564,682,o),
(477,712,o),
(439,712,c),
(225,676,o),
(50,537,o),
(50,254,cs),
(50,76,o),
(152,-12,o),
(302,-12,cs),
(368,-12,o),
(436,5,o),
(506,46,c),
(485,82,l,{
name = hr00;
})
);
}
);
};
layerId = master01;
shapes = (
{
closed = 1;
nodes = (
(368,-12,o),
(436,5,o),
(506,46,c),
(485,82,l,{
name = hr00;
}),
(443,58,o),
(375,41,o),
(321,41,cs),
(207,41,o),
(130,112,o),
(130,258,cs),
(130,494,o),
(229,646,o),
(413,646,cs),
(468,646,o),
(516,634,o),
(571,623,c),
(597,673,l),
(564,682,o),
(477,712,o),
(439,712,c),
(225,676,o),
(50,537,o),
(50,254,cs),
(50,76,o),
(152,-12,o),
(302,-12,cs)
);
}
);
width = 561;
}
);
unicode = 67;
},
{
glyphname = Cacute;
kernLeft = C;
lastChange = "2023-02-24 13:23:56 +0000";
layers = (
{
background = {
shapes = (
{
closed = 1;
nodes = (
(443,58,o),
(375,41,o),
(321,41,cs),
(207,41,o),
(130,112,o),
(130,258,cs),
(130,494,o),
(229,646,o),
(413,646,cs),
(468,646,o),
(516,634,o),
(571,623,c),
(597,673,l),
(564,682,o),
(477,712,o),
(439,712,c),
(225,676,o),
(50,537,o),
(50,254,cs),
(50,76,o),
(152,-12,o),
(302,-12,cs),
(368,-12,o),
(436,5,o),
(506,46,c),
(485,82,l,{
name = hr00;
})
);
},
{
closed = 1;
nodes = (
(327,777,o),
(417,807,o),
(479,850,c),
(488,867,l),
(488,888,o),
(473,920,o),
(463,930,c),
(377,854,o),
(286,787,o),
(286,787,c),
(297,768,l,{
name = hr00;
})
);
}
);
};
layerId = master01;
shapes = (
{
ref = C;
},
{
pos = (264,0);
ref = acutecomb.case;
}
);
width = 561;
}
);
unicode = 262;
},
{
glyphname = Ccaron;
kernLeft = C;
lastChange = "2023-02-24 13:23:56 +0000";
layers = (
{
background = {
shapes = (
{
closed = 1;
nodes = (
(443,58,o),
(375,41,o),
(321,41,cs),
(207,41,o),
(130,112,o),
(130,258,cs),
(130,494,o),
(229,646,o),
(413,646,cs),
(468,646,o),
(516,634,o),
(571,623,c),
(597,673,l),
(564,682,o),
(477,712,o),
(439,712,c),
(225,676,o),
(50,537,o),
(50,254,cs),
(50,76,o),
(152,-12,o),
(302,-12,cs),
(368,-12,o),
(436,5,o),
(506,46,c),
(485,82,l,{
name = hr00;
})
);
},
{
closed = 1;
nodes = (
(350,769,o),
(358,768,o),
(366,768,cs),
(374,768,o),
(382,769,o),
(390,771,c),
(457,863,o),
(508,915,o),
(508,915,c),
(489,932,l),
(472,921,o),
(416,882,o),
(374,848,c),
(342,892,o),
(317,921,o),
(307,932,c),
(288,918,l),
(288,918,o),
(308,870,o),
(342,771,c,{
name = hr00;
})
);
}
);
};
layerId = master01;
shapes = (
{
ref = C;
},
{
pos = (229,0);
ref = caroncomb.case;
}
);
width = 561;
}
);
unicode = 268;
},
{
glyphname = Ccedilla;
kernLeft = C;
lastChange = "2023-02-24 13:23:56 +0000";
layers = (
{
background = {
shapes = (
{
closed = 1;
nodes = (
(443,58,o),
(375,41,o),
(321,41,cs),
(207,41,o),
(130,112,o),
(130,258,cs),
(130,494,o),
(229,646,o),
(413,646,cs),
(468,646,o),
(516,634,o),
(571,623,c),
(597,673,l),
(564,682,o),
(477,712,o),
(439,712,c),
(225,676,o),
(50,537,o),
(50,254,cs),
(50,76,o),
(152,-12,o),
(302,-12,cs),
(368,-12,o),
(436,5,o),
(506,46,c),
(485,82,l,{
name = hr00;
})
);
},
{
closed = 1;
nodes = (
(286,-214,o),
(357,-168,o),
(357,-110,cs),
(357,-68,o),
(313,-61,o),
(313,-27,c),
(321,0,l),
(294,0,l),
(274,-47,l),
(274,-67,o),
(290,-78,o),
(290,-111,cs),
(290,-158,o),
(249,-198,o),
(214,-220,c),
(225,-237,l,{
name = hr00;
})
);
}
);
};
layerId = master01;
shapes = (
{
ref = C;
},
{
pos = (105,0);
ref = cedillacomb;
}
);
width = 561;
}
);
unicode = 199;
},
{
glyphname = Ccircumflex;
kernLeft = C;
lastChange = "2023-02-24 13:23:56 +0000";
layers = (
{
background = {
shapes = (
{
closed = 1;
nodes = (
(443,58,o),
(375,41,o),
(321,41,cs),
(207,41,o),
(130,112,o),
(130,258,cs),
(130,494,o),
(229,646,o),
(413,646,cs),
(468,646,o),
(516,634,o),
(571,623,c),
(597,673,l),
(564,682,o),
(477,712,o),
(439,712,c),
(225,676,o),
(50,537,o),
(50,254,cs),
(50,76,o),
(152,-12,o),
(302,-12,cs),
(368,-12,o),
(436,5,o),
(506,46,c),
(485,82,l,{
name = hr00;
})
);
},
{
closed = 1;
nodes = (
(449,931,o),
(441,932,o),
(433,932,cs),
(425,932,o),
(417,931,o),
(409,929,c),
(342,837,o),
(291,785,o),
(291,785,c),
(310,768,l),
(327,779,o),
(383,818,o),
(425,852,c),
(457,808,o),
(482,779,o),
(492,768,c),
(511,782,l),
(511,782,o),
(491,830,o),
(457,929,c,{
name = hr00;
})
);
}
);
};
layerId = master01;
shapes = (
{
ref = C;
},
{
pos = (204,0);
ref = circumflexcomb.case;
}
);
width = 561;
}
);
unicode = 264;
},
{
glyphname = Cdotaccent;
kernLeft = C;
lastChange = "2023-02-24 13:23:56 +0000";
layers = (
{
background = {
shapes = (
{
closed = 1;
nodes = (
(443,58,o),
(375,41,o),
(321,41,cs),
(207,41,o),
(130,112,o),
(130,258,cs),
(130,494,o),
(229,646,o),
(413,646,cs),
(468,646,o),
(516,634,o),
(571,623,c),
(597,673,l),
(564,682,o),
(477,712,o),
(439,712,c),
(225,676,o),
(50,537,o),
(50,254,cs),
(50,76,o),
(152,-12,o),
(302,-12,cs),
(368,-12,o),
(436,5,o),
(506,46,c),
(485,82,l,{
name = hr00;
})
);
},
{
closed = 1;
nodes = (
(415,906,o),
(383,899,o),
(383,899,c),
(383,899,o),
(364,855,o),
(364,823,cs),
(364,805,o),
(370,791,o),
(390,791,cs),
(409,791,o),
(439,800,o),
(439,800,c),
(439,800,o),
(458,843,o),
(458,872,cs),
(458,891,o),
(451,906,o),
(433,906,cs,{
name = hr00;
})
);
}
);
};
layerId = master01;
shapes = (
{
ref = C;
},
{
pos = (210,0);
ref = dotaccentcomb.case;
}
);
width = 561;
}
);
unicode = 266;
},
{
glyphname = D;
lastChange = "2023-02-24 13:23:56 +0000";
layers = (
{
anchors = (
{
name = bottom;
pos = (315,0);
},
{
name = center;
pos = (382,350);
},
{
name = top;
pos = (425,700);
}
);
background = {
shapes = (
{
closed = 1;
nodes = (
(151,664,o),
(181,650,o),
(209,642,c),
(98,57,l),
(68,48,o),
(40,37,o),
(13,26,c),
(21,0,l),
(123,8,l),
(299,-6,l),
(561,7,o),
(702,220,o),
(702,459,cs),
(702,628,o),
(597,712,o),
(454,712,c),
(257,696,l),
(131,700,l),
(125,678,l,{
name = hr00;
})
);
},
{
closed = 1;
nodes = (
(266,41,o),
(214,49,o),
(167,60,c),
(230,350,l),
(276,639,l),
(339,654,o),
(396,658,o),
(437,658,cs),
(547,658,o),
(622,589,o),
(622,449,cs),
(622,267,o),
(510,41,o),
(317,41,cs)
);
}
);
};
layerId = master01;
shapes = (
{
closed = 1;
nodes = (
(561,7,o),
(702,220,o),
(702,459,cs),
(702,628,o),
(597,712,o),
(454,712,c),
(257,696,l),
(131,700,l),
(125,678,l,{
name = hr00;
}),
(151,664,o),
(181,650,o),
(209,642,c),
(98,57,l),
(68,48,o),
(40,37,o),
(13,26,c),
(21,0,l),
(123,8,l),
(299,-6,l)
);
},
{
closed = 1;
nodes = (
(266,41,o),
(214,49,o),
(167,60,c),
(230,350,l),
(276,639,l),
(339,654,o),
(396,658,o),
(437,658,cs),
(547,658,o),
(622,589,o),
(622,449,cs),
(622,267,o),
(510,41,o),
(317,41,cs)
);
}
);
width = 717;
}
);
unicode = 68;
},
{
glyphname = Eth;
lastChange = "2023-02-24 13:23:56 +0000";
layers = (
{
background = {
shapes = (
{
closed = 1;
nodes = (
(151,664,o),
(181,650,o),
(209,642,c),
(98,57,l),
(68,48,o),
(40,37,o),
(13,26,c),
(21,0,l),
(123,8,l),
(299,-6,l),
(561,7,o),
(702,220,o),
(702,459,cs),
(702,628,o),
(597,712,o),
(454,712,c),
(257,696,l),
(131,700,l),
(125,678,l,{
name = hr00;
})
);
},
{
closed = 1;
nodes = (
(266,41,o),
(214,49,o),
(167,60,c),
(230,350,l),
(276,639,l),
(339,654,o),
(396,658,o),
(437,658,cs),
(547,658,o),
(622,589,o),
(622,449,cs),
(622,267,o),
(510,41,o),
(317,41,cs)
);
},
{
closed = 1;
nodes = (
(46,376,l),
(39,333,l),
(397,333,l),
(404,376,l,{
name = hr00;
})
);
}
);
};
layerId = master01;
shapes = (
{
closed = 1;
nodes = (
(397,333,l),
(404,376,l,{
name = hr00;
}),
(46,376,l),
(39,333,l)
);
},
{
alignment = -1;
ref = D;
}
);
width = 717;
}
);
unicode = 208;
},
{
glyphname = Dcaron;
lastChange = "2023-02-24 13:23:56 +0000";
layers = (
{
background = {
shapes = (
{
closed = 1;
nodes = (
(151,664,o),
(181,650,o),
(209,642,c),
(98,57,l),
(68,48,o),
(40,37,o),
(13,26,c),
(21,0,l),
(123,8,l),
(299,-6,l),
(561,7,o),
(702,220,o),
(702,459,cs),
(702,628,o),
(597,712,o),
(454,712,c),
(257,696,l),
(131,700,l),
(125,678,l,{
name = hr00;
})
);
},
{
closed = 1;
nodes = (
(266,41,o),
(214,49,o),
(167,60,c),
(230,350,l),
(276,639,l),
(339,654,o),
(396,658,o),
(437,658,cs),
(547,658,o),
(622,589,o),
(622,449,cs),
(622,267,o),
(510,41,o),
(317,41,cs)
);
},
{
closed = 1;
nodes = (
(414,753,o),
(422,752,o),
(430,752,cs),
(438,752,o),
(446,753,o),
(454,755,c),
(535,860,o),
(596,919,o),
(596,919,c),
(577,936,l),
(557,922,o),
(489,877,o),
(438,832,c),
(400,892,o),
(371,922,o),
(359,936,c),
(340,922,l),
(340,922,o),
(365,867,o),
(406,755,c,{
name = hr00;
})
);
}
);
};
layerId = master01;
shapes = (
{
ref = D;
},
{
pos = (282,0);
ref = caroncomb.case;
}
);
width = 717;
}
);
unicode = 270;
},
{
glyphname = Dcroat;
lastChange = "2023-02-24 13:23:56 +0000";
layers = (
{
background = {
shapes = (
{
closed = 1;
nodes = (
(151,664,o),
(181,650,o),
(209,642,c),
(98,57,l),
(68,48,o),
(40,37,o),
(13,26,c),
(21,0,l),
(123,8,l),
(299,-6,l),
(561,7,o),
(702,220,o),
(702,459,cs),
(702,628,o),
(597,712,o),
(454,712,c),
(257,696,l),
(131,700,l),
(125,678,l,{
name = hr00;
})
);
},
{
closed = 1;
nodes = (
(266,41,o),
(214,49,o),
(167,60,c),
(230,350,l),
(276,639,l),
(339,654,o),
(396,658,o),
(437,658,cs),
(547,658,o),
(622,589,o),
(622,449,cs),
(622,267,o),
(510,41,o),
(317,41,cs)
);
},
{
closed = 1;
nodes = (
(46,376,l),
(39,333,l),
(397,333,l),
(404,376,l,{
name = hr00;
})
);
}
);
};
layerId = master01;
shapes = (
{
ref = Eth;
}
);
width = 717;
}
);
unicode = 272;
},
{
glyphname = E;
lastChange = "2023-02-24 13:23:56 +0000";
layers = (
{
anchors = (
{
name = bottom;
pos = (241,0);
},
{
name = ogonek;
pos = (519,26);
},
{
name = top;
pos = (361,700);
},
{
name = topleft;
pos = (110,700);
}
);
background = {
shapes = (
{
closed = 1;
nodes = (
(151,664,o),
(181,650,o),
(209,642,c),
(98,57,l),
(68,48,o),
(40,37,o),
(13,26,c),
(21,0,l),
(126,8,l),
(242,8,o),
(412,0,o),
(466,-4,c),
(481,14,o),
(491,34,o),
(497,55,c),
(491,72,l),
(440,61,o),
(306,56,o),
(166,55,c),
(225,326,l),
(473,339,l),
(482,382,l),
(235,382,l),
(278,646,l),
(382,640,o),
(497,640,o),
(546,640,c),
(560,657,o),
(571,676,o),
(577,696,c),
(571,713,l),
(521,702,o),
(388,697,o),
(252,696,c),
(131,700,l),
(125,678,l,{
name = hr00;
})
);
}
);
};
layerId = master01;
shapes = (
{
closed = 1;
nodes = (
(481,14,o),
(491,34,o),
(497,55,c),
(491,72,l),
(440,61,o),
(306,56,o),
(166,55,c),
(225,326,l),
(473,339,l),
(482,382,l),
(235,382,l),
(278,646,l),
(382,640,o),
(497,640,o),
(546,640,c),
(560,657,o),
(571,676,o),
(577,696,c),
(571,713,l),
(521,702,o),
(388,697,o),
(252,696,c),
(131,700,l),
(125,678,l,{
name = hr00;
}),
(151,664,o),
(181,650,o),
(209,642,c),
(98,57,l),
(68,48,o),
(40,37,o),
(13,26,c),
(21,0,l),
(126,8,l),
(242,8,o),
(412,0,o),
(466,-4,c)
);
}
);
width = 570;
}
);
unicode = 69;
},
{
glyphname = Eacute;
lastChange = "2023-02-24 13:23:56 +0000";
layers = (
{
background = {
shapes = (
{
closed = 1;
nodes = (
(151,664,o),
(181,650,o),
(209,642,c),
(98,57,l),
(68,48,o),
(40,37,o),
(13,26,c),
(21,0,l),
(126,8,l),
(242,8,o),
(412,0,o),
(466,-4,c),
(481,14,o),
(491,34,o),
(497,55,c),
(491,72,l),
(440,61,o),
(306,56,o),
(166,55,c),
(225,326,l),
(473,339,l),
(482,382,l),
(235,382,l),
(278,646,l),
(382,640,o),
(497,640,o),
(546,640,c),
(560,657,o),
(571,676,o),
(577,696,c),
(571,713,l),
(521,702,o),
(388,697,o),
(252,696,c),
(131,700,l),
(125,678,l,{
name = hr00;
})
);
},
{
closed = 1;
nodes = (
(349,777,o),
(439,807,o),
(501,850,c),
(510,867,l),
(510,888,o),
(495,920,o),
(485,930,c),
(399,854,o),
(308,787,o),
(308,787,c),
(319,768,l,{
name = hr00;
})
);
}
);
};
layerId = master01;
shapes = (
{
ref = E;
},
{
pos = (253,0);
ref = acutecomb.case;
}
);
width = 570;
}
);
unicode = 201;
},
{
glyphname = Ebreve;
lastChange = "2023-02-24 13:23:56 +0000";
layers = (
{
background = {
shapes = (
{
closed = 1;
nodes = (
(151,664,o),
(181,650,o),
(209,642,c),
(98,57,l),
(68,48,o),
(40,37,o),
(13,26,c),
(21,0,l),
(126,8,l),
(242,8,o),
(412,0,o),
(466,-4,c),
(481,14,o),
(491,34,o),
(497,55,c),
(491,72,l),
(440,61,o),
(306,56,o),
(166,55,c),
(225,326,l),
(473,339,l),
(482,382,l),
(235,382,l),
(278,646,l),
(382,640,o),
(497,640,o),
(546,640,c),
(560,657,o),
(571,676,o),
(577,696,c),
(571,713,l),
(521,702,o),
(388,697,o),
(252,696,c),
(131,700,l),
(125,678,l,{
name = hr00;
})
);
},
{
closed = 1;
nodes = (
(339,837,o),
(319,871,o),
(309,924,c),
(278,917,l),
(289,824,o),
(309,773,o),
(363,773,cs),
(417,773,o),
(454,824,o),
(500,917,c),
(470,924,l),
(440,871,o),
(408,837,o),
(374,837,cs,{
name = hr00;
})
);
}
);
};
layerId = master01;
shapes = (
{
ref = E;
},
{
pos = (180,0);
ref = brevecomb.case;
}
);
width = 570;
}
);
unicode = 276;
},
{
glyphname = Ecaron;
lastChange = "2023-02-24 13:23:56 +0000";
layers = (
{
background = {
shapes = (
{
closed = 1;
nodes = (
(151,664,o),
(181,650,o),
(209,642,c),
(98,57,l),
(68,48,o),
(40,37,o),
(13,26,c),
(21,0,l),
(126,8,l),
(242,8,o),
(412,0,o),
(466,-4,c),
(481,14,o),
(491,34,o),
(497,55,c),
(491,72,l),
(440,61,o),
(306,56,o),
(166,55,c),
(225,326,l),
(473,339,l),
(482,382,l),
(235,382,l),
(278,646,l),
(382,640,o),
(497,640,o),
(546,640,c),
(560,657,o),
(571,676,o),
(577,696,c),
(571,713,l),
(521,702,o),
(388,697,o),
(252,696,c),
(131,700,l),
(125,678,l,{
name = hr00;
})
);
},
{
closed = 1;
nodes = (
(346,753,o),
(354,752,o),
(362,752,cs),
(370,752,o),
(378,753,o),
(386,755,c),
(467,860,o),
(528,919,o),
(528,919,c),
(509,936,l),
(489,922,o),
(421,877,o),
(370,832,c),
(332,892,o),
(303,922,o),
(291,936,c),
(272,922,l),
(272,922,o),
(297,867,o),
(338,755,c,{
name = hr00;
})
);
}
);
};
layerId = master01;
shapes = (
{
ref = E;
},
{
pos = (218,0);
ref = caroncomb.case;
}
);
width = 570;
}
);
unicode = 282;
},
{
glyphname = Ecircumflex;
lastChange = "2023-02-24 13:23:56 +0000";
layers = (
{
background = {
shapes = (
{
closed = 1;
nodes = (
(151,664,o),
(181,650,o),
(209,642,c),
(98,57,l),
(68,48,o),
(40,37,o),
(13,26,c),
(21,0,l),
(126,8,l),
(242,8,o),
(412,0,o),
(466,-4,c),
(481,14,o),
(491,34,o),
(497,55,c),
(491,72,l),
(440,61,o),
(306,56,o),
(166,55,c),
(225,326,l),
(473,339,l),
(482,382,l),
(235,382,l),
(278,646,l),
(382,640,o),
(497,640,o),
(546,640,c),
(560,657,o),
(571,676,o),
(577,696,c),
(571,713,l),
(521,702,o),
(388,697,o),
(252,696,c),
(131,700,l),
(125,678,l,{
name = hr00;
})
);
},
{
closed = 1;
nodes = (
(444,931,o),
(436,932,o),
(428,932,cs),
(420,932,o),
(412,931,o),
(404,929,c),
(337,837,o),
(286,785,o),
(286,785,c),
(305,768,l),
(322,779,o),
(378,818,o),
(420,852,c),
(452,808,o),
(477,779,o),
(487,768,c),
(506,782,l),
(506,782,o),
(486,830,o),
(452,929,c,{
name = hr00;
})
);
}
);
};
layerId = master01;
shapes = (
{
ref = E;
},
{
pos = (193,0);
ref = circumflexcomb.case;
}
);
width = 570;
}
);
unicode = 202;
},
{
glyphname = Edieresis;
lastChange = "2023-02-24 13:23:56 +0000";
layers = (
{
background = {
shapes = (
{
closed = 1;
nodes = (
(151,664,o),
(181,650,o),
(209,642,c),
(98,57,l),
(68,48,o),
(40,37,o),
(13,26,c),
(21,0,l),
(126,8,l),
(242,8,o),
(412,0,o),
(466,-4,c),
(481,14,o),
(491,34,o),
(497,55,c),
(491,72,l),
(440,61,o),
(306,56,o),
(166,55,c),
(225,326,l),
(473,339,l),
(482,382,l),
(235,382,l),
(278,646,l),
(382,640,o),
(497,640,o),
(546,640,c),
(560,657,o),
(571,676,o),
(577,696,c),
(571,713,l),
(521,702,o),
(388,697,o),
(252,696,c),
(131,700,l),
(125,678,l,{
name = hr00;
})
);
},
{
closed = 1;
nodes = (
(462,903,o),
(430,896,o),
(430,896,c),
(430,896,o),
(411,852,o),
(411,820,cs),
(411,802,o),
(417,788,o),
(437,788,cs),
(456,788,o),
(486,797,o),
(486,797,c),
(487,797,o),
(505,840,o),
(505,869,cs),
(505,888,o),
(498,903,o),
(480,903,cs,{
name = hr00;
})
);
},
{
closed = 1;
nodes = (
(326,903,o),
(294,896,o),
(294,896,c),
(294,896,o),
(275,852,o),
(275,820,cs),
(275,802,o),
(281,788,o),
(301,788,cs),
(320,788,o),
(350,797,o),
(350,797,c),
(351,797,o),
(369,840,o),
(369,869,cs),
(369,888,o),
(362,903,o),
(344,903,cs)
);
}
);
};
layerId = master01;
shapes = (
{
ref = E;
},
{
pos = (206,0);
ref = dieresiscomb.case;
}
);
width = 570;
}
);
unicode = 203;
},
{
glyphname = Edotaccent;
lastChange = "2023-02-24 13:23:56 +0000";
layers = (
{
background = {
shapes = (
{
closed = 1;
nodes = (
(151,664,o),
(181,650,o),
(209,642,c),
(98,57,l),
(68,48,o),
(40,37,o),
(13,26,c),
(21,0,l),
(126,8,l),
(242,8,o),
(412,0,o),
(466,-4,c),
(481,14,o),
(491,34,o),
(497,55,c),
(491,72,l),
(440,61,o),
(306,56,o),
(166,55,c),
(225,326,l),
(473,339,l),
(482,382,l),
(235,382,l),
(278,646,l),
(382,640,o),
(497,640,o),
(546,640,c),
(560,657,o),
(571,676,o),
(577,696,c),
(571,713,l),
(521,702,o),
(388,697,o),
(252,696,c),
(131,700,l),
(125,678,l,{
name = hr00;
})
);
},
{
closed = 1;
nodes = (
(395,906,o),
(363,899,o),
(363,899,c),
(363,899,o),
(344,855,o),
(344,823,cs),
(344,805,o),
(350,791,o),
(370,791,cs),
(389,791,o),
(419,800,o),
(419,800,c),
(419,800,o),
(438,843,o),
(438,872,cs),
(438,891,o),
(431,906,o),
(413,906,cs,{
name = hr00;
})
);
}
);
};
layerId = master01;
shapes = (
{
ref = E;
},
{
pos = (199,0);
ref = dotaccentcomb.case;
}
);
width = 570;
}
);
unicode = 278;
},
{
glyphname = Egrave;
lastChange = "2023-02-24 13:23:56 +0000";
layers = (
{
background = {
shapes = (
{
closed = 1;
nodes = (
(151,664,o),
(181,650,o),
(209,642,c),
(98,57,l),
(68,48,o),
(40,37,o),
(13,26,c),
(21,0,l),
(126,8,l),
(242,8,o),
(412,0,o),
(466,-4,c),
(481,14,o),
(491,34,o),
(497,55,c),
(491,72,l),
(440,61,o),
(306,56,o),
(166,55,c),
(225,326,l),
(473,339,l),
(482,382,l),
(235,382,l),
(278,646,l),
(382,640,o),
(497,640,o),
(546,640,c),
(560,657,o),
(571,676,o),
(577,696,c),
(571,713,l),
(521,702,o),
(388,697,o),
(252,696,c),
(131,700,l),
(125,678,l,{
name = hr00;
})
);
},
{
closed = 1;
nodes = (
(478,799,o),
(387,866,o),
(301,942,c),
(291,932,o),
(276,900,o),
(276,879,c),
(285,862,l),
(347,819,o),
(437,789,o),
(467,780,c),
(478,799,l,{
name = hr00;
})
);
}
);
};
layerId = master01;
shapes = (
{
ref = E;
},
{
pos = (320,0);
ref = gravecomb.case;
}
);
width = 570;
}
);
unicode = 200;
},
{
glyphname = Emacron;
lastChange = "2023-02-24 13:23:56 +0000";
layers = (
{
background = {
shapes = (
{
closed = 1;
nodes = (
(151,664,o),
(181,650,o),
(209,642,c),
(98,57,l),
(68,48,o),
(40,37,o),
(13,26,c),
(21,0,l),
(126,8,l),
(242,8,o),
(412,0,o),
(466,-4,c),
(481,14,o),
(491,34,o),
(497,55,c),
(491,72,l),
(440,61,o),
(306,56,o),
(166,55,c),
(225,326,l),
(473,339,l),
(482,382,l),
(235,382,l),
(278,646,l),
(382,640,o),
(497,640,o),
(546,640,c),
(560,657,o),
(571,676,o),
(577,696,c),
(571,713,l),
(521,702,o),
(388,697,o),
(252,696,c),
(131,700,l),
(125,678,l,{
name = hr00;
})
);
},
{
closed = 1;
nodes = (
(517,805,l),
(527,862,l),
(260,862,l),
(250,805,l,{
name = hr00;
})
);
}
);
};
layerId = master01;
shapes = (
{
ref = E;
},
{
pos = (135,0);
ref = macroncomb.case;
}
);
width = 570;
}
);
unicode = 274;
},
{
glyphname = Eogonek;
lastChange = "2023-02-24 13:23:56 +0000";
layers = (
{
background = {
shapes = (
{
closed = 1;
nodes = (
(151,664,o),
(181,650,o),
(209,642,c),
(98,57,l),
(68,48,o),
(40,37,o),
(13,26,c),
(21,0,l),
(126,8,l),
(242,8,o),
(412,0,o),
(466,-4,c),
(481,14,o),
(491,34,o),
(497,55,c),
(491,72,l),
(440,61,o),
(306,56,o),
(166,55,c),
(225,326,l),
(473,339,l),
(482,382,l),
(235,382,l),
(278,646,l),
(382,640,o),
(497,640,o),
(546,640,c),
(560,657,o),
(571,676,o),
(577,696,c),
(571,713,l),
(521,702,o),
(388,697,o),
(252,696,c),
(131,700,l),
(125,678,l,{
name = hr00;
})
);
},
{
closed = 1;
nodes = (
(337,-23,o),
(275,-89,o),
(275,-161,cs),
(275,-202,o),
(300,-233,o),
(352,-233,cs),
(396,-233,o),
(444,-211,o),
(483,-165,c),
(464,-147,l),
(444,-172,o),
(407,-190,o),
(376,-190,cs),
(351,-190,o),
(331,-177,o),
(331,-142,cs),
(331,-101,o),
(376,-30,o),
(444,9,c),
(434,26,l,{
name = hr00;
})
);
}
);
};
layerId = master01;
shapes = (
{
ref = E;
},
{
pos = (141,0);
ref = ogonekcomb;
}
);
width = 570;
}
);
unicode = 280;
},
{
glyphname = F;
kernRight = F;
lastChange = "2023-02-24 13:23:56 +0000";
layers = (
{
anchors = (
{
name = bottom;
pos = (231,0);
},
{
name = top;
pos = (365,700);
}
);
background = {
shapes = (
{
closed = 1;
nodes = (
(382,640,o),
(497,640,o),
(546,640,c),
(560,657,o),
(571,676,o),
(577,696,c),
(571,713,l),
(521,702,o),
(385,696,o),
(252,696,c),
(131,700,l),
(125,678,l),
(151,664,o),
(181,650,o),
(209,642,c),
(98,57,l),
(68,48,o),
(40,37,o),
(13,26,c),
(21,0,l),
(274,0,l),
(280,22,l),
(245,37,o),
(203,51,o),
(167,60,c),
(221,310,l),
(459,323,l),
(468,366,l),
(232,366,l),
(278,646,l,{
name = hr00;
})
);
}
);
};
layerId = master01;
shapes = (
{
closed = 1;
nodes = (
(274,0,l),
(280,22,l),
(245,37,o),
(203,51,o),
(167,60,c),
(221,310,l),
(459,323,l),
(468,366,l),
(232,366,l),
(278,646,l,{
name = hr00;
}),
(382,640,o),
(497,640,o),
(546,640,c),
(560,657,o),
(571,676,o),
(577,696,c),
(571,713,l),
(521,702,o),
(385,696,o),
(252,696,c),
(131,700,l),
(125,678,l),
(151,664,o),
(181,650,o),
(209,642,c),
(98,57,l),
(68,48,o),
(40,37,o),
(13,26,c),
(21,0,l)
);
}
);
width = 550;
}
);
unicode = 70;
},
{
glyphname = G;
kernLeft = C;
lastChange = "2023-02-24 13:23:56 +0000";
layers = (
{
anchors = (
{
name = bottom;
pos = (297,0);
},
{
name = top;
pos = (387,700);
}
);
background = {
shapes = (
{
closed = 1;
nodes = (
(498,646,o),
(546,634,o),
(601,623,c),
(627,673,l),
(594,682,o),
(507,712,o),
(469,712,c),
(240,676,o),
(50,552,o),
(50,254,cs),
(50,76,o),
(152,-12,o),
(302,-12,cs),
(379,-12,o),
(455,6,o),
(538,47,c),
(535,86,l),
(588,360,l),
(363,360,l),
(355,317,l),
(505,306,l),
(476,72,l),
(436,54,o),
(374,41,o),
(321,41,cs),
(207,41,o),
(130,112,o),
(130,258,cs),
(130,494,o),
(240,646,o),
(443,646,cs,{
name = hr00;
})
);
}
);
};
layerId = master01;
shapes = (
{
closed = 1;
nodes = (
(379,-12,o),
(455,6,o),
(538,47,c),
(535,86,l),
(588,360,l),
(363,360,l),
(355,317,l),
(505,306,l),
(476,72,l),
(436,54,o),
(374,41,o),
(321,41,cs),
(207,41,o),
(130,112,o),
(130,258,cs),
(130,494,o),
(240,646,o),
(443,646,cs,{
name = hr00;
}),
(498,646,o),
(546,634,o),
(601,623,c),
(627,673,l),
(594,682,o),
(507,712,o),
(469,712,c),
(240,676,o),
(50,552,o),
(50,254,cs),
(50,76,o),
(152,-12,o),
(302,-12,cs)
);
}
);
width = 627;
}
);
unicode = 71;
},
{
glyphname = Gbreve;
kernLeft = C;
lastChange = "2023-02-24 13:23:56 +0000";
layers = (
{
background = {
shapes = (
{
closed = 1;
nodes = (
(498,646,o),
(546,634,o),
(601,623,c),
(627,673,l),
(594,682,o),
(507,712,o),
(469,712,c),
(240,676,o),
(50,552,o),
(50,254,cs),
(50,76,o),
(152,-12,o),
(302,-12,cs),
(379,-12,o),
(455,6,o),
(538,47,c),
(535,86,l),
(588,360,l),
(363,360,l),
(355,317,l),
(505,306,l),
(476,72,l),
(436,54,o),
(374,41,o),
(321,41,cs),
(207,41,o),
(130,112,o),
(130,258,cs),
(130,494,o),
(240,646,o),
(443,646,cs,{
name = hr00;
})
);
},
{
closed = 1;
nodes = (
(343,837,o),
(323,871,o),
(313,924,c),
(282,917,l),
(293,824,o),
(313,773,o),
(367,773,cs),
(421,773,o),
(458,824,o),
(504,917,c),
(474,924,l),
(444,871,o),
(412,837,o),
(378,837,cs,{
name = hr00;
})
);
}
);
};
layerId = master01;
shapes = (
{
ref = G;
},
{
pos = (206,0);
ref = brevecomb.case;
}
);
width = 627;
}
);
unicode = 286;
},
{
glyphname = Gcircumflex;
kernLeft = C;
lastChange = "2023-02-24 13:23:56 +0000";
layers = (
{
background = {
shapes = (
{
closed = 1;
nodes = (
(498,646,o),
(546,634,o),
(601,623,c),
(627,673,l),
(594,682,o),
(507,712,o),
(469,712,c),
(240,676,o),
(50,552,o),
(50,254,cs),
(50,76,o),
(152,-12,o),
(302,-12,cs),
(379,-12,o),
(455,6,o),
(538,47,c),
(535,86,l),
(588,360,l),
(363,360,l),
(355,317,l),
(505,306,l),
(476,72,l),
(436,54,o),
(374,41,o),
(321,41,cs),
(207,41,o),
(130,112,o),
(130,258,cs),
(130,494,o),
(240,646,o),
(443,646,cs,{
name = hr00;
})
);
},
{
closed = 1;
nodes = (
(447,931,o),
(439,932,o),
(431,932,cs),
(423,932,o),
(415,931,o),
(407,929,c),
(340,837,o),
(289,785,o),
(289,785,c),
(308,768,l),
(325,779,o),
(381,818,o),
(423,852,c),
(455,808,o),
(480,779,o),
(490,768,c),
(509,782,l),
(509,782,o),
(489,830,o),
(455,929,c,{
name = hr00;
})
);
}
);
};
layerId = master01;
shapes = (
{
ref = G;
},
{
pos = (219,0);
ref = circumflexcomb.case;
}
);
width = 627;
}
);
unicode = 284;
},
{
glyphname = Gcommaaccent;
kernLeft = C;
lastChange = "2023-02-24 13:23:56 +0000";
layers = (
{
background = {
shapes = (
{
closed = 1;
nodes = (
(498,646,o),
(546,634,o),
(601,623,c),
(627,673,l),
(594,682,o),
(507,712,o),
(469,712,c),
(240,676,o),
(50,552,o),
(50,254,cs),
(50,76,o),
(152,-12,o),
(302,-12,cs),
(379,-12,o),
(455,6,o),
(538,47,c),
(535,86,l),
(588,360,l),
(363,360,l),
(355,317,l),
(505,306,l),
(476,72,l),
(436,54,o),
(374,41,o),
(321,41,cs),
(207,41,o),
(130,112,o),
(130,258,cs),
(130,494,o),
(240,646,o),
(443,646,cs,{
name = hr00;
})
);
},
{
closed = 1;
nodes = (
(241,-86,o),
(246,-109,o),
(246,-130,cs),
(246,-176,o),
(227,-211,o),
(201,-255,c),
(223,-271,l),
(253,-241,o),
(317,-167,o),
(330,-111,c),
(330,-75,o),
(318,-50,o),
(288,-50,cs),
(271,-50,o),
(244,-57,o),
(232,-61,c,{
name = hr00;
})
);
}
);
};
layerId = master01;
shapes = (
{
ref = G;
},
{
pos = (162,0);
ref = commaaccentcomb;
}
);
width = 627;
}
);
unicode = 290;
},
{
glyphname = Gdotaccent;
kernLeft = C;
lastChange = "2023-02-24 13:23:56 +0000";
layers = (
{
background = {
shapes = (
{
closed = 1;
nodes = (
(498,646,o),
(546,634,o),
(601,623,c),
(627,673,l),
(594,682,o),
(507,712,o),
(469,712,c),
(240,676,o),
(50,552,o),
(50,254,cs),
(50,76,o),
(152,-12,o),
(302,-12,cs),
(379,-12,o),
(455,6,o),
(538,47,c),
(535,86,l),
(588,360,l),
(363,360,l),
(355,317,l),
(505,306,l),
(476,72,l),
(436,54,o),
(374,41,o),
(321,41,cs),
(207,41,o),
(130,112,o),
(130,258,cs),
(130,494,o),
(240,646,o),
(443,646,cs,{
name = hr00;
})
);
},
{
closed = 1;
nodes = (
(416,906,o),
(384,899,o),
(384,899,c),
(384,899,o),
(365,855,o),
(365,823,cs),
(365,805,o),
(371,791,o),
(391,791,cs),
(410,791,o),
(440,800,o),
(440,800,c),
(440,800,o),
(459,843,o),
(459,872,cs),
(459,891,o),
(452,906,o),
(434,906,cs,{
name = hr00;
})
);
}
);
};
layerId = master01;
shapes = (
{
ref = G;
},
{
pos = (225,0);
ref = dotaccentcomb.case;
}
);
width = 627;
}
);
unicode = 288;
},
{
glyphname = H;
lastChange = "2023-02-24 13:23:56 +0000";
layers = (
{
anchors = (
{
name = bottom;
pos = (338,0);
},
{
name = center;
pos = (405,350);
},
{
name = top;
pos = (463,700);
},
{
name = topleft;
pos = (110,700);
}
);
background = {
shapes = (
{
closed = 1;
nodes = (
(151,664,o),
(181,650,o),
(209,642,c),
(98,57,l),
(68,48,o),
(40,37,o),
(13,26,c),
(21,0,l),
(244,0,l),
(250,22,l),
(224,36,o),
(194,49,o),
(166,58,c),
(224,322,l),
(561,338,l),
(515,57,l),
(486,47,o),
(457,37,o),
(431,26,c),
(439,0,l),
(662,0,l),
(668,22,l),
(642,36,o),
(611,49,o),
(584,58,c),
(695,643,l),
(725,652,o),
(753,663,o),
(780,674,c),
(772,700,l),
(549,700,l),
(543,678,l),
(569,664,o),
(599,650,o),
(627,642,c),
(570,384,l),
(235,384,l),
(277,643,l),
(307,652,o),
(335,663,o),
(362,674,c),
(354,700,l),
(131,700,l),
(125,678,l,{
name = hr00;
})
);
}
);
};
layerId = master01;
shapes = (
{
closed = 1;
nodes = (
(244,0,l),
(250,22,l),
(224,36,o),
(194,49,o),
(166,58,c),
(224,322,l),
(561,338,l),
(515,57,l),
(486,47,o),
(457,37,o),
(431,26,c),
(439,0,l),
(662,0,l),
(668,22,l),
(642,36,o),
(611,49,o),
(584,58,c),
(695,643,l),
(725,652,o),
(753,663,o),
(780,674,c),
(772,700,l),
(549,700,l),
(543,678,l),
(569,664,o),
(599,650,o),
(627,642,c),
(570,384,l),
(235,384,l),
(277,643,l),
(307,652,o),
(335,663,o),
(362,674,c),
(354,700,l),
(131,700,l),
(125,678,l,{
name = hr00;
}),
(151,664,o),
(181,650,o),
(209,642,c),
(98,57,l),
(68,48,o),
(40,37,o),
(13,26,c),
(21,0,l)
);
}
);
width = 763;
}
);
unicode = 72;
},
{
glyphname = Hbar;
lastChange = "2023-02-24 13:23:56 +0000";
layers = (
{
background = {
shapes = (
{
closed = 1;
nodes = (
(151,664,o),
(181,650,o),
(209,642,c),
(98,57,l),
(68,48,o),
(40,37,o),
(13,26,c),
(21,0,l),
(244,0,l),
(250,22,l),
(224,36,o),
(194,49,o),
(166,58,c),
(224,322,l),
(561,338,l),
(515,57,l),
(486,47,o),
(457,37,o),
(431,26,c),
(439,0,l),
(662,0,l),
(668,22,l),
(642,36,o),
(611,49,o),
(584,58,c),
(695,643,l),
(725,652,o),
(753,663,o),
(780,674,c),
(772,700,l),
(549,700,l),
(543,678,l),
(569,664,o),
(599,650,o),
(627,642,c),
(570,384,l),
(235,384,l),
(277,643,l),
(307,652,o),
(335,663,o),
(362,674,c),
(354,700,l),
(131,700,l),
(125,678,l,{
name = hr00;
})
);
},
{
closed = 1;
nodes = (
(129,540,l),
(117,497,l),
(725,497,l),
(737,540,l,{
name = hr00;
})
);
}
);
};
layerId = master01;
shapes = (
{
closed = 1;
nodes = (
(725,497,l),
(737,540,l,{
name = hr00;
}),
(129,540,l),
(117,497,l)
);
},
{
alignment = -1;
ref = H;
}
);
width = 763;
}
);
unicode = 294;
},
{
glyphname = Hcircumflex;
lastChange = "2023-02-24 13:23:56 +0000";
layers = (
{
background = {
shapes = (
{
closed = 1;
nodes = (
(151,664,o),
(181,650,o),
(209,642,c),
(98,57,l),
(68,48,o),
(40,37,o),
(13,26,c),
(21,0,l),
(244,0,l),
(250,22,l),
(224,36,o),
(194,49,o),
(166,58,c),
(224,322,l),
(561,338,l),
(515,57,l),
(486,47,o),
(457,37,o),
(431,26,c),
(439,0,l),
(662,0,l),
(668,22,l),
(642,36,o),
(611,49,o),
(584,58,c),
(695,643,l),
(725,652,o),
(753,663,o),
(780,674,c),
(772,700,l),
(549,700,l),
(543,678,l),
(569,664,o),
(599,650,o),
(627,642,c),
(570,384,l),
(235,384,l),
(277,643,l),
(307,652,o),
(335,663,o),
(362,674,c),
(354,700,l),
(131,700,l),
(125,678,l,{
name = hr00;
})
);
},
{
closed = 1;
nodes = (
(526,931,o),
(518,932,o),
(510,932,cs),
(502,932,o),
(494,931,o),
(486,929,c),
(419,837,o),
(368,785,o),
(368,785,c),
(387,768,l),
(404,779,o),
(460,818,o),
(502,852,c),
(534,808,o),
(559,779,o),
(569,768,c),
(588,782,l),
(588,782,o),
(568,830,o),
(534,929,c,{
name = hr00;
})
);
}
);
};
layerId = master01;
shapes = (
{
ref = H;
},
{
pos = (295,0);
ref = circumflexcomb.case;
}
);
width = 763;
}
);
unicode = 292;
},
{
glyphname = I;
lastChange = "2023-02-24 13:23:56 +0000";
layers = (
{
anchors = (
{
name = bottom;
pos = (134,0);
},
{
name = ogonek;
pos = (244,26);
},
{
name = top;
pos = (251,700);
},
{
name = topleft;
pos = (110,700);
}
);
background = {
shapes = (
{
closed = 1;
nodes = (
(225,36,o),
(195,49,o),
(167,58,c),
(228,350,l),
(278,643,l),
(308,652,o),
(336,663,o),
(363,674,c),
(355,700,l),
(132,700,l),
(126,678,l),
(152,664,o),
(182,650,o),
(210,642,c),
(149,350,l),
(98,57,l),
(69,47,o),
(40,37,o),
(14,26,c),
(22,0,l),
(245,0,l),
(251,22,l,{
name = hr00;
})
);
}
);
};
layerId = master01;
shapes = (
{
closed = 1;
nodes = (
(245,0,l),
(251,22,l,{
name = hr00;
}),
(225,36,o),
(195,49,o),
(167,58,c),
(228,350,l),
(278,643,l),
(308,652,o),
(336,663,o),
(363,674,c),
(355,700,l),
(132,700,l),
(126,678,l),
(152,664,o),
(182,650,o),
(210,642,c),
(149,350,l),
(98,57,l),
(69,47,o),
(40,37,o),
(14,26,c),
(22,0,l)
);
}
);
width = 355;
}
);
unicode = 73;
},
{
glyphname = IJ;
lastChange = "2023-02-24 13:23:56 +0000";
layers = (
{
background = {
shapes = (
{
closed = 1;
nodes = (
(225,36,o),
(195,49,o),
(167,58,c),
(228,350,l),
(278,643,l),
(308,652,o),
(336,663,o),
(363,674,c),
(355,700,l),
(132,700,l),
(126,678,l),
(152,664,o),
(182,650,o),
(210,642,c),
(149,350,l),
(98,57,l),
(69,47,o),
(40,37,o),
(14,26,c),
(22,0,l),
(245,0,l),
(251,22,l,{
name = hr00;
})
);
},
{
closed = 1;
nodes = (
(490,663,o),
(527,650,o),
(559,641,c),
(466,159,ls),
(443,39,o),
(369,-75,o),
(271,-183,c),
(296,-204,l),
(425,-80,o),
(520,48,o),
(547,186,cs),
(635,644,l),
(663,653,o),
(690,663,o),
(716,674,c),
(708,700,l),
(465,700,l),
(459,678,l,{
name = hr00;
})
);
}
);
};
layerId = master01;
shapes = (
{
ref = I;
},
{
pos = (355,0);
ref = J;
}
);
width = 679;
}
);
unicode = 306;
},
{
glyphname = Iacute;
lastChange = "2023-02-24 13:23:56 +0000";
layers = (
{
background = {
shapes = (
{
closed = 1;
nodes = (
(225,36,o),
(195,49,o),
(167,58,c),
(228,350,l),
(278,643,l),
(308,652,o),
(336,663,o),
(363,674,c),
(355,700,l),
(132,700,l),
(126,678,l),
(152,664,o),
(182,650,o),
(210,642,c),
(149,350,l),
(98,57,l),
(69,47,o),
(40,37,o),
(14,26,c),
(22,0,l),
(245,0,l),
(251,22,l,{
name = hr00;
})
);
},
{
closed = 1;
nodes = (
(222,777,o),
(312,807,o),
(374,850,c),
(383,867,l),
(383,888,o),
(368,920,o),
(358,930,c),
(272,854,o),
(181,787,o),
(181,787,c),
(192,768,l,{
name = hr00;
})
);
}
);
};
layerId = master01;
shapes = (
{
ref = I;
},
{
pos = (143,0);
ref = acutecomb.case;
}
);
width = 355;
}
);
unicode = 205;
},
{
glyphname = Ibreve;
lastChange = "2023-02-24 13:23:56 +0000";
layers = (
{
background = {
shapes = (
{
closed = 1;
nodes = (
(225,36,o),
(195,49,o),
(167,58,c),
(228,350,l),
(278,643,l),
(308,652,o),
(336,663,o),
(363,674,c),
(355,700,l),
(132,700,l),
(126,678,l),
(152,664,o),
(182,650,o),
(210,642,c),
(149,350,l),
(98,57,l),
(69,47,o),
(40,37,o),
(14,26,c),
(22,0,l),
(245,0,l),
(251,22,l,{
name = hr00;
})
);
},
{
closed = 1;
nodes = (
(228,837,o),
(208,871,o),
(198,924,c),
(167,917,l),
(178,824,o),
(198,773,o),
(252,773,cs),
(306,773,o),
(343,824,o),
(389,917,c),
(359,924,l),
(329,871,o),
(297,837,o),
(263,837,cs,{
name = hr00;
})
);
}
);
};
layerId = master01;
shapes = (
{
ref = I;
},
{
pos = (70,0);
ref = brevecomb.case;
}
);
width = 355;
}
);
unicode = 300;
},
{
glyphname = Icircumflex;
lastChange = "2023-02-24 13:23:56 +0000";
layers = (
{
background = {
shapes = (
{
closed = 1;
nodes = (
(225,36,o),
(195,49,o),
(167,58,c),
(228,350,l),
(278,643,l),
(308,652,o),
(336,663,o),
(363,674,c),
(355,700,l),
(132,700,l),
(126,678,l),
(152,664,o),
(182,650,o),
(210,642,c),
(149,350,l),
(98,57,l),
(69,47,o),
(40,37,o),
(14,26,c),
(22,0,l),
(245,0,l),
(251,22,l,{
name = hr00;
})
);
},
{
closed = 1;
nodes = (
(311,931,o),
(303,932,o),
(295,932,cs),
(287,932,o),
(279,931,o),
(271,929,c),
(204,837,o),
(153,785,o),
(153,785,c),
(172,768,l),
(189,779,o),
(245,818,o),
(287,852,c),
(319,808,o),
(344,779,o),
(354,768,c),
(373,782,l),
(373,782,o),
(353,830,o),
(319,929,c,{
name = hr00;
})
);
}
);
};
layerId = master01;
shapes = (
{
ref = I;
},
{
pos = (83,0);
ref = circumflexcomb.case;
}
);
width = 355;
}
);
unicode = 206;
},
{
glyphname = Idieresis;
lastChange = "2023-02-24 13:23:56 +0000";
layers = (
{
background = {
shapes = (
{
closed = 1;
nodes = (
(225,36,o),
(195,49,o),
(167,58,c),
(228,350,l),
(278,643,l),
(308,652,o),
(336,663,o),
(363,674,c),
(355,700,l),
(132,700,l),
(126,678,l),
(152,664,o),
(182,650,o),
(210,642,c),
(149,350,l),
(98,57,l),
(69,47,o),
(40,37,o),
(14,26,c),
(22,0,l),
(245,0,l),
(251,22,l,{
name = hr00;
})
);
},
{
closed = 1;
nodes = (
(357,903,o),
(325,896,o),
(325,896,c),
(325,896,o),
(306,852,o),
(306,820,cs),
(306,802,o),
(312,788,o),
(332,788,cs),
(351,788,o),
(381,797,o),
(381,797,c),
(382,797,o),
(400,840,o),
(400,869,cs),
(400,888,o),
(393,903,o),
(375,903,cs,{
name = hr00;
})
);
},
{
closed = 1;
nodes = (
(221,903,o),
(189,896,o),
(189,896,c),
(189,896,o),
(170,852,o),
(170,820,cs),
(170,802,o),
(176,788,o),
(196,788,cs),
(215,788,o),
(245,797,o),
(245,797,c),
(246,797,o),
(264,840,o),
(264,869,cs),
(264,888,o),
(257,903,o),
(239,903,cs)
);
}
);
};
layerId = master01;
shapes = (
{
ref = I;
},
{
pos = (96,0);
ref = dieresiscomb.case;
}
);
width = 355;
}
);
unicode = 207;
},
{
glyphname = Idotaccent;
lastChange = "2023-02-24 13:23:56 +0000";
layers = (
{
background = {
shapes = (
{
closed = 1;
nodes = (
(225,36,o),
(195,49,o),
(167,58,c),
(228,350,l),
(278,643,l),
(308,652,o),
(336,663,o),
(363,674,c),
(355,700,l),
(132,700,l),
(126,678,l),
(152,664,o),
(182,650,o),
(210,642,c),
(149,350,l),
(98,57,l),
(69,47,o),
(40,37,o),
(14,26,c),
(22,0,l),
(245,0,l),
(251,22,l,{
name = hr00;
})
);
},
{
closed = 1;
nodes = (
(287,906,o),
(255,899,o),
(255,899,c),
(255,899,o),
(236,855,o),
(236,823,cs),
(236,805,o),
(242,791,o),
(262,791,cs),
(281,791,o),
(311,800,o),
(311,800,c),
(311,800,o),
(330,843,o),
(330,872,cs),
(330,891,o),
(323,906,o),
(305,906,cs,{
name = hr00;
})
);
}
);
};
layerId = master01;
shapes = (
{
ref = I;
},
{
pos = (89,0);
ref = dotaccentcomb.case;
}
);
width = 355;
}
);
unicode = 304;
},
{
glyphname = Igrave;
lastChange = "2023-02-24 13:23:56 +0000";
layers = (
{
background = {
shapes = (
{
closed = 1;
nodes = (
(225,36,o),
(195,49,o),
(167,58,c),
(228,350,l),
(278,643,l),
(308,652,o),
(336,663,o),
(363,674,c),
(355,700,l),
(132,700,l),
(126,678,l),
(152,664,o),
(182,650,o),
(210,642,c),
(149,350,l),
(98,57,l),
(69,47,o),
(40,37,o),
(14,26,c),
(22,0,l),
(245,0,l),
(251,22,l,{
name = hr00;
})
);
},
{
closed = 1;
nodes = (
(349,799,o),
(258,866,o),
(172,942,c),
(162,932,o),
(147,900,o),
(147,879,c),
(156,862,l),
(218,819,o),
(308,789,o),
(338,780,c),
(349,799,l,{
name = hr00;
})
);
}
);
};
layerId = master01;
shapes = (
{
ref = I;
},
{
pos = (210,0);
ref = gravecomb.case;
}
);
width = 355;
}
);
unicode = 204;
},
{
glyphname = Imacron;
lastChange = "2023-02-24 13:23:56 +0000";
layers = (
{
background = {
shapes = (
{
closed = 1;
nodes = (
(225,36,o),
(195,49,o),
(167,58,c),
(228,350,l),
(278,643,l),
(308,652,o),
(336,663,o),
(363,674,c),
(355,700,l),
(132,700,l),
(126,678,l),
(152,664,o),
(182,650,o),
(210,642,c),
(149,350,l),
(98,57,l),
(69,47,o),
(40,37,o),
(14,26,c),
(22,0,l),
(245,0,l),
(251,22,l,{
name = hr00;
})
);
},
{
closed = 1;
nodes = (
(411,804,l),
(421,861,l),
(154,861,l),
(144,804,l,{
name = hr00;
})
);
}
);
};
layerId = master01;
shapes = (
{
ref = I;
},
{
pos = (25,0);
ref = macroncomb.case;
}
);
width = 355;
}
);
unicode = 298;
},
{
glyphname = Iogonek;
lastChange = "2023-02-24 13:23:56 +0000";
layers = (
{
background = {
shapes = (
{
closed = 1;
nodes = (
(225,36,o),
(195,49,o),
(167,58,c),
(228,350,l),
(278,643,l),
(308,652,o),
(336,663,o),
(363,674,c),
(355,700,l),
(132,700,l),
(126,678,l),
(152,664,o),
(182,650,o),
(210,642,c),
(149,350,l),
(98,57,l),
(69,47,o),
(40,37,o),
(14,26,c),
(22,0,l),
(245,0,l),
(251,22,l,{
name = hr00;
})
);
},
{
closed = 1;
nodes = (
(62,-23,o),
(0,-89,o),
(0,-161,cs),
(0,-202,o),
(25,-233,o),
(77,-233,cs),
(121,-233,o),
(169,-211,o),
(208,-165,c),
(189,-147,l),
(169,-172,o),
(132,-190,o),
(101,-190,cs),
(76,-190,o),
(56,-177,o),
(56,-142,cs),
(56,-101,o),
(101,-30,o),
(169,9,c),
(159,26,l,{
name = hr00;
})
);
}
);
};
layerId = master01;
shapes = (
{
ref = I;
},
{
pos = (-134,0);
ref = ogonekcomb;
}
);
width = 355;
}
);
unicode = 302;
},
{
glyphname = Itilde;
lastChange = "2023-02-24 13:23:56 +0000";
layers = (
{
background = {
shapes = (
{
closed = 1;
nodes = (
(225,36,o),
(195,49,o),
(167,58,c),
(228,350,l),
(278,643,l),
(308,652,o),
(336,663,o),
(363,674,c),
(355,700,l),
(132,700,l),
(126,678,l),
(152,664,o),
(182,650,o),
(210,642,c),
(149,350,l),
(98,57,l),
(69,47,o),
(40,37,o),
(14,26,c),
(22,0,l),
(245,0,l),
(251,22,l,{
name = hr00;
})
);
},
{
closed = 1;
nodes = (
(390,863,o),
(368,857,o),
(347,857,cs),
(306,857,o),
(268,886,o),
(228,886,cs),
(198,886,o),
(166,869,o),
(132,812,c),
(151,795,l),
(174,818,o),
(196,824,o),
(218,824,cs),
(258,824,o),
(297,795,o),
(337,795,cs),
(367,795,o),
(398,811,o),
(433,869,c),
(414,886,l,{
name = hr00;
})
);
}
);
};
layerId = master01;
shapes = (
{
ref = I;
},
{
pos = (2,0);
ref = tildecomb.case;
}
);
width = 355;
}
);
unicode = 296;
},
{
glyphname = J;
lastChange = "2023-02-24 13:23:56 +0000";
layers = (
{
anchors = (
{
name = bottom;
pos = (118,0);
},
{
name = top;
pos = (252,700);
}
);
background = {
shapes = (
{
closed = 1;
nodes = (
(135,663,o),
(172,650,o),
(204,641,c),
(111,159,ls),
(88,39,o),
(14,-75,o),
(-84,-183,c),
(-59,-204,l),
(70,-80,o),
(165,48,o),
(192,186,cs),
(280,644,l),
(308,653,o),
(335,663,o),
(361,674,c),
(353,700,l),
(110,700,l),
(104,678,l,{
name = hr00;
})
);
}
);
};
layerId = master01;
shapes = (
{
closed = 1;
nodes = (
(70,-80,o),
(165,48,o),
(192,186,cs),
(280,644,l),
(308,653,o),
(335,663,o),
(361,674,c),
(353,700,l),
(110,700,l),
(104,678,l,{
name = hr00;
}),
(135,663,o),
(172,650,o),
(204,641,c),
(111,159,ls),
(88,39,o),
(14,-75,o),
(-84,-183,c),
(-59,-204,l)
);
}
);
width = 324;
}
);
unicode = 74;
},
{
glyphname = Jcircumflex;
lastChange = "2023-02-24 13:23:56 +0000";
layers = (
{
background = {
shapes = (
{
closed = 1;
nodes = (
(135,663,o),
(172,650,o),
(204,641,c),
(111,159,ls),
(88,39,o),
(14,-75,o),
(-84,-183,c),
(-59,-204,l),
(70,-80,o),
(165,48,o),
(192,186,cs),
(280,644,l),
(308,653,o),
(335,663,o),
(361,674,c),
(353,700,l),
(110,700,l),
(104,678,l,{
name = hr00;
})
);
},
{
closed = 1;
nodes = (
(304,931,o),
(296,932,o),
(288,932,cs),
(280,932,o),
(272,931,o),
(264,929,c),
(197,837,o),
(146,785,o),
(146,785,c),
(165,768,l),
(182,779,o),
(238,818,o),
(280,852,c),
(312,808,o),
(337,779,o),
(347,768,c),
(366,782,l),
(366,782,o),
(346,830,o),
(312,929,c,{
name = hr00;
})
);
}
);
};
layerId = master01;
shapes = (
{
ref = J;
},
{
pos = (84,0);
ref = circumflexcomb.case;
}
);
width = 324;
}
);
unicode = 308;
},
{
glyphname = K;
kernRight = K;
lastChange = "2023-02-24 13:23:56 +0000";
layers = (
{
anchors = (
{
name = bottom;
pos = (299,0);
},
{
name = top;
pos = (387,700);
}
);
background = {
shapes = (
{
closed = 1;
nodes = (
(151,664,o),
(181,650,o),
(209,642,c),
(98,57,l),
(68,48,o),
(40,37,o),
(13,26,c),
(21,0,l),
(244,0,l),
(250,22,l),
(224,36,o),
(194,49,o),
(166,58,c),
(226,334,l),
(256,326,o),
(309,315,o),
(322,315,c),
(344,172,o),
(406,-12,o),
(440,-12,c,{
name = hr01;
}),
(571,8,l),
(577,28,l),
(562,40,o),
(513,54,o),
(482,57,c),
(451,108,o),
(400,217,o),
(379,343,c),
(491,486,o),
(583,605,o),
(624,694,c),
(603,707,l),
(594,707,o),
(560,700,o),
(512,655,c),
(470,534,l),
(419,460,o),
(401,434,o),
(343,369,c),
(335,368,o),
(327,368,o),
(319,368,cs),
(289,368,o),
(258,371,o),
(234,376,c),
(277,643,l),
(307,652,o),
(335,663,o),
(362,674,c),
(354,700,l),
(131,700,l),
(125,678,l)
);
}
);
};
layerId = master01;
shapes = (
{
closed = 1;
nodes = (
(571,8,l),
(577,28,l),
(562,40,o),
(513,54,o),
(482,57,c),
(451,108,o),
(400,217,o),
(379,343,c),
(491,486,o),
(583,605,o),
(624,694,c),
(603,707,l),
(594,707,o),
(560,700,o),
(512,655,c),
(470,534,l),
(419,460,o),
(401,434,o),
(343,369,c),
(335,368,o),
(327,368,o),
(319,368,cs),
(289,368,o),
(258,371,o),
(234,376,c),
(277,643,l),
(307,652,o),
(335,663,o),
(362,674,c),
(354,700,l),
(131,700,l),
(125,678,l),
(151,664,o),
(181,650,o),
(209,642,c),
(98,57,l),
(68,48,o),
(40,37,o),
(13,26,c),
(21,0,l),
(244,0,l),
(250,22,l),
(224,36,o),
(194,49,o),
(166,58,c),
(226,334,l),
(256,326,o),
(309,315,o),
(322,315,c),
(344,172,o),
(406,-12,o),
(440,-12,c,{
name = hr01;
})
);
}
);
width = 594;
}
);
unicode = 75;
},
{
glyphname = Kcommaaccent;
kernRight = K;
lastChange = "2023-02-24 13:23:56 +0000";
layers = (
{
background = {
shapes = (
{
closed = 1;
nodes = (
(151,664,o),
(181,650,o),
(209,642,c),
(98,57,l),
(68,48,o),
(40,37,o),
(13,26,c),
(21,0,l),
(244,0,l),
(250,22,l),
(224,36,o),
(194,49,o),
(166,58,c),
(226,334,l),
(256,326,o),
(309,315,o),
(322,315,c),
(344,172,o),
(406,-12,o),
(440,-12,c,{
name = hr01;
}),
(571,8,l),
(577,28,l),
(562,40,o),
(513,54,o),
(482,57,c),
(451,108,o),
(400,217,o),
(379,343,c),
(491,486,o),
(583,605,o),
(624,694,c),
(603,707,l),
(594,707,o),
(560,700,o),
(512,655,c),
(470,534,l),
(419,460,o),
(401,434,o),
(343,369,c),
(335,368,o),
(327,368,o),
(319,368,cs),
(289,368,o),
(258,371,o),
(234,376,c),
(277,643,l),
(307,652,o),
(335,663,o),
(362,674,c),
(354,700,l),
(131,700,l),
(125,678,l)
);
},
{
closed = 1;
nodes = (
(243,-86,o),
(248,-109,o),
(248,-130,cs),
(248,-176,o),
(229,-211,o),
(203,-255,c),
(225,-271,l),
(255,-241,o),
(319,-167,o),
(332,-111,c),
(332,-75,o),
(320,-50,o),
(290,-50,cs),
(273,-50,o),
(246,-57,o),
(234,-61,c,{
name = hr00;
})
);
}
);
};
layerId = master01;
shapes = (
{
ref = K;
},
{
pos = (164,0);
ref = commaaccentcomb;
}
);
width = 594;
}
);
unicode = 310;
},
{
glyphname = L;
kernRight = L;
lastChange = "2023-02-24 13:23:56 +0000";
layers = (
{
anchors = (
{
name = bottom;
pos = (260,0);
},
{
name = center;
pos = (273,350);
},
{
name = top;
pos = (253,700);
},
{
name = topright;
pos = (569,700);
}
);
background = {
shapes = (
{
closed = 1;
nodes = (
(233,5,o),
(374,0,o),
(422,-4,c),
(437,14,o),
(447,34,o),
(453,55,c),
(447,72,l),
(402,62,o),
(288,56,o),
(166,55,c),
(227,350,l),
(277,643,l),
(307,652,o),
(335,663,o),
(362,674,c),
(354,700,l),
(131,700,l),
(125,678,l),
(151,664,o),
(181,650,o),
(209,642,c),
(148,350,l),
(97,57,l),
(68,47,o),
(39,37,o),
(13,26,c),
(21,0,l),
(130,5,l,{
name = hr00;
})
);
}
);
};
layerId = master01;
shapes = (
{
closed = 1;
nodes = (
(437,14,o),
(447,34,o),
(453,55,c),
(447,72,l),
(402,62,o),
(288,56,o),
(166,55,c),
(227,350,l),
(277,643,l),
(307,652,o),
(335,663,o),
(362,674,c),
(354,700,l),
(131,700,l),
(125,678,l),
(151,664,o),
(181,650,o),
(209,642,c),
(148,350,l),
(97,57,l),
(68,47,o),
(39,37,o),
(13,26,c),
(21,0,l),
(130,5,l,{
name = hr00;
}),
(233,5,o),
(374,0,o),
(422,-4,c)
);
}
);
width = 499;
}
);
unicode = 76;
},
{
glyphname = Lacute;
kernRight = L;
lastChange = "2023-02-24 13:23:56 +0000";
layers = (
{
background = {
shapes = (
{
closed = 1;
nodes = (
(233,5,o),
(374,0,o),
(422,-4,c),
(437,14,o),
(447,34,o),
(453,55,c),
(447,72,l),
(402,62,o),
(288,56,o),
(166,55,c),
(227,350,l),
(277,643,l),
(307,652,o),
(335,663,o),
(362,674,c),
(354,700,l),
(131,700,l),
(125,678,l),
(151,664,o),
(181,650,o),
(209,642,c),
(148,350,l),
(97,57,l),
(68,47,o),
(39,37,o),
(13,26,c),
(21,0,l),
(130,5,l,{
name = hr00;
})
);
},
{
closed = 1;
nodes = (
(217,777,o),
(307,807,o),
(369,850,c),
(378,867,l),
(378,888,o),
(363,920,o),
(353,930,c),
(267,854,o),
(176,787,o),
(176,787,c),
(187,768,l,{
name = hr00;
})
);
}
);
};
layerId = master01;
shapes = (
{
ref = L;
},
{
pos = (145,0);
ref = acutecomb.case;
}
);
width = 499;
}
);
unicode = 313;
},
{
glyphname = Lcaron;
kernRight = L;
lastChange = "2023-02-24 13:23:56 +0000";
layers = (
{
background = {
shapes = (
{
closed = 1;
nodes = (
(233,5,o),
(374,0,o),
(422,-4,c),
(437,14,o),
(447,34,o),
(453,55,c),
(447,72,l),
(402,62,o),
(288,56,o),
(166,55,c),
(227,350,l),
(277,643,l),
(307,652,o),
(335,663,o),
(362,674,c),
(354,700,l),
(131,700,l),
(125,678,l),
(151,664,o),
(181,650,o),
(209,642,c),
(148,350,l),
(97,57,l),
(68,47,o),
(39,37,o),
(13,26,c),
(21,0,l),
(130,5,l,{
name = hr00;
})
);
},
{
closed = 1;
nodes = (
(410,714,o),
(415,691,o),
(415,670,cs),
(415,624,o),
(396,589,o),
(370,545,c),
(392,529,l),
(422,559,o),
(486,633,o),
(499,689,c),
(499,725,o),
(487,750,o),
(457,750,cs),
(440,750,o),
(413,743,o),
(401,739,c,{
name = hr00;
})
);
}
);
};
layerId = master01;
shapes = (
{
ref = L;
},
{
pos = (274,0);
ref = caroncomb.alt;
}
);
width = 499;
}
);
unicode = 317;
},
{
glyphname = Lcommaaccent;
kernRight = L;
lastChange = "2023-02-24 13:23:56 +0000";
layers = (
{
background = {
shapes = (
{
closed = 1;
nodes = (
(233,5,o),
(374,0,o),
(422,-4,c),
(437,14,o),
(447,34,o),
(453,55,c),
(447,72,l),
(402,62,o),
(288,56,o),
(166,55,c),
(227,350,l),
(277,643,l),
(307,652,o),
(335,663,o),
(362,674,c),
(354,700,l),
(131,700,l),
(125,678,l),
(151,664,o),
(181,650,o),
(209,642,c),
(148,350,l),
(97,57,l),
(68,47,o),
(39,37,o),
(13,26,c),
(21,0,l),
(130,5,l,{
name = hr00;
})
);
},
{
closed = 1;
nodes = (
(204,-86,o),
(209,-109,o),
(209,-130,cs),
(209,-176,o),
(190,-211,o),
(164,-255,c),
(186,-271,l),
(216,-241,o),
(280,-167,o),
(293,-111,c),
(293,-75,o),
(281,-50,o),
(251,-50,cs),
(234,-50,o),
(207,-57,o),
(195,-61,c,{
name = hr00;
})
);
}
);
};
layerId = master01;
shapes = (
{
ref = L;
},
{
pos = (125,0);
ref = commaaccentcomb;
}
);
width = 499;
}
);
unicode = 315;
},
{
glyphname = Ldot;
kernRight = L;
lastChange = "2023-02-24 13:23:56 +0000";
layers = (
{
background = {
shapes = (
{
closed = 1;
nodes = (
(233,5,o),
(374,0,o),
(422,-4,c),
(437,14,o),
(447,34,o),
(453,55,c),
(447,72,l),
(402,62,o),
(288,56,o),
(166,55,c),
(227,350,l),
(277,643,l),
(307,652,o),
(335,663,o),
(362,674,c),
(354,700,l),
(131,700,l),
(125,678,l),
(151,664,o),
(181,650,o),
(209,642,c),
(148,350,l),
(97,57,l),
(68,47,o),
(39,37,o),
(13,26,c),
(21,0,l),
(130,5,l,{
name = hr00;
})
);
},
{
closed = 1;
nodes = (
(385,468,o),
(348,461,o),
(348,461,c),
(345,455,o),
(327,407,o),
(327,373,cs),
(327,351,o),
(334,335,o),
(356,335,cs),
(378,335,o),
(414,344,o),
(414,344,c),
(417,350,o),
(434,397,o),
(434,428,cs),
(434,451,o),
(427,468,o),
(406,468,cs,{
name = hr00;
})
);
}
);
};
layerId = master01;
shapes = (
{
ref = L;
},
{
pos = (283,162);
ref = periodcentered;
}
);
width = 499;
}
);
unicode = 319;
},
{
glyphname = Lslash;
kernRight = L;
lastChange = "2023-02-24 13:23:56 +0000";
layers = (
{
background = {
shapes = (
{
closed = 1;
nodes = (
(237,420,o),
(123,365,o),
(57,343,c),
(59,330,l),
(62,326,o),
(73,316,o),
(97,302,c),
(206,357,o),
(281,398,o),
(328,426,c),
(326,438,l),
(324,440,o),
(317,446,o),
(303,456,c,{
name = hr00;
})
);
},
{
closed = 1;
nodes = (
(233,5,o),
(374,0,o),
(422,-4,c),
(437,14,o),
(447,34,o),
(453,55,c),
(447,72,l),
(402,62,o),
(288,56,o),
(166,55,c),
(227,350,l),
(277,643,l),
(307,652,o),
(335,663,o),
(362,674,c),
(354,700,l),
(131,700,l),
(125,678,l),
(151,664,o),
(181,650,o),
(209,642,c),
(148,350,l),
(97,57,l),
(68,47,o),
(39,37,o),
(13,26,c),
(21,0,l),
(130,5,l,{
name = hr00;
})
);
}
);
};
layerId = master01;
shapes = (
{
closed = 1;
nodes = (
(206,357,o),
(281,398,o),
(328,426,c),
(326,438,l),
(324,440,o),
(317,446,o),
(303,456,c,{
name = hr00;
}),
(237,420,o),
(123,365,o),
(57,343,c),
(59,330,l),
(62,326,o),
(73,316,o),
(97,302,c)
);
},
{
ref = L;
}
);
width = 499;
}
);
unicode = 321;
},
{
glyphname = M;
lastChange = "2023-02-24 13:23:56 +0000";
layers = (
{
anchors = (
{
name = bottom;
pos = (398,0);
},
{
name = top;
pos = (532,700);
}
);
background = {
shapes = (
{
closed = 1;
nodes = (
(158,665,o),
(183,653,o),
(206,644,c),
(64,58,l),
(38,50,o),
(9,36,o),
(-15,22,c),
(-9,0,l),
(194,0,l),
(202,26,l),
(175,37,o),
(148,48,o),
(120,58,c),
(246,598,l),
(379,50,l),
(397,50,l),
(727,601,l),
(658,58,l),
(623,49,o),
(585,36,o),
(553,22,c),
(559,0,l),
(812,0,l),
(820,26,l),
(794,37,o),
(766,47,o),
(737,56,c),
(806,642,l),
(836,652,o),
(863,662,o),
(891,674,c),
(883,700,l),
(730,696,l),
(425,185,l),
(307,696,l),
(142,700,l),
(136,678,l,{
name = hr00;
})
);
}
);
};
layerId = master01;
shapes = (
{
closed = 1;
nodes = (
(194,0,l),
(202,26,l),
(175,37,o),
(148,48,o),
(120,58,c),
(246,598,l),
(379,50,l),
(397,50,l),
(727,601,l),
(658,58,l),
(623,49,o),
(585,36,o),
(553,22,c),
(559,0,l),
(812,0,l),
(820,26,l),
(794,37,o),
(766,47,o),
(737,56,c),
(806,642,l),
(836,652,o),
(863,662,o),
(891,674,c),
(883,700,l),
(730,696,l),
(425,185,l),
(307,696,l),
(142,700,l),
(136,678,l,{
name = hr00;
}),
(158,665,o),
(183,653,o),
(206,644,c),
(64,58,l),
(38,50,o),
(9,36,o),
(-15,22,c),
(-9,0,l)
);
}
);
width = 883;
}
);
unicode = 77;
},
{
glyphname = N;
lastChange = "2023-02-24 13:23:56 +0000";
layers = (
{
anchors = (
{
name = bottom;
pos = (354,0);
},
{
name = top;
pos = (460,700);
}
);
background = {
shapes = (
{
closed = 1;
nodes = (
(144,664,o),
(170,652,o),
(194,643,c),
(84,58,l),
(59,49,o),
(30,36,o),
(6,22,c),
(12,0,l),
(215,0,l),
(223,26,l),
(196,37,o),
(169,48,o),
(141,58,c),
(235,583,l),
(533,0,l),
(588,0,l),
(709,641,l),
(735,649,o),
(765,663,o),
(790,678,c),
(784,700,l),
(581,700,l),
(573,674,l),
(599,663,o),
(626,652,o),
(654,642,c),
(559,126,l),
(264,700,l),
(127,700,l),
(121,678,l,{
name = hr00;
})
);
}
);
};
layerId = master01;
shapes = (
{
closed = 1;
nodes = (
(215,0,l),
(223,26,l),
(196,37,o),
(169,48,o),
(141,58,c),
(235,583,l),
(533,0,l),
(588,0,l),
(709,641,l),
(735,649,o),
(765,663,o),
(790,678,c),
(784,700,l),
(581,700,l),
(573,674,l),
(599,663,o),
(626,652,o),
(654,642,c),
(559,126,l),
(264,700,l),
(127,700,l),
(121,678,l,{
name = hr00;
}),
(144,664,o),
(170,652,o),
(194,643,c),
(84,58,l),
(59,49,o),
(30,36,o),
(6,22,c),
(12,0,l)
);
}
);
width = 760;
}
);
unicode = 78;
},
{
glyphname = Nacute;
lastChange = "2023-02-24 13:23:56 +0000";
layers = (
{
background = {
shapes = (
{
closed = 1;
nodes = (
(144,664,o),
(170,652,o),
(194,643,c),
(84,58,l),
(59,49,o),
(30,36,o),
(6,22,c),
(12,0,l),
(215,0,l),
(223,26,l),
(196,37,o),
(169,48,o),
(141,58,c),
(235,583,l),
(533,0,l),
(588,0,l),
(709,641,l),
(735,649,o),
(765,663,o),
(790,678,c),
(784,700,l),
(581,700,l),
(573,674,l),
(599,663,o),
(626,652,o),
(654,642,c),
(559,126,l),
(264,700,l),
(127,700,l),
(121,678,l,{
name = hr00;
})
);
},
{
closed = 1;
nodes = (
(441,777,o),
(531,807,o),
(593,850,c),
(602,867,l),
(602,888,o),
(587,920,o),
(577,930,c),
(491,854,o),
(400,787,o),
(400,787,c),
(411,768,l,{
name = hr00;
})
);
}
);
};
layerId = master01;
shapes = (
{
ref = N;
},
{
pos = (352,0);
ref = acutecomb.case;
}
);
width = 760;
}
);
unicode = 323;
},
{
glyphname = Ncaron;
lastChange = "2023-02-24 13:23:56 +0000";
layers = (
{
background = {
shapes = (
{
closed = 1;
nodes = (
(144,664,o),
(170,652,o),
(194,643,c),
(84,58,l),
(59,49,o),
(30,36,o),
(6,22,c),
(12,0,l),
(215,0,l),
(223,26,l),
(196,37,o),
(169,48,o),
(141,58,c),
(235,583,l),
(533,0,l),
(588,0,l),
(709,641,l),
(735,649,o),
(765,663,o),
(790,678,c),
(784,700,l),
(581,700,l),
(573,674,l),
(599,663,o),
(626,652,o),
(654,642,c),
(559,126,l),
(264,700,l),
(127,700,l),
(121,678,l,{
name = hr00;
})
);
},
{
closed = 1;
nodes = (
(443,753,o),
(451,752,o),
(459,752,cs),
(467,752,o),
(475,753,o),
(483,755,c),
(564,860,o),
(625,919,o),
(625,919,c),
(606,936,l),
(586,922,o),
(518,877,o),
(467,832,c),
(429,892,o),
(400,922,o),
(388,936,c),
(369,922,l),
(369,922,o),
(394,867,o),
(435,755,c,{
name = hr00;
})
);
}
);
};
layerId = master01;
shapes = (
{
ref = N;
},
{
pos = (317,0);
ref = caroncomb.case;
}
);
width = 760;
}
);
unicode = 327;
},
{
glyphname = Ncommaaccent;
lastChange = "2023-02-24 13:23:56 +0000";
layers = (
{
background = {
shapes = (
{
closed = 1;
nodes = (
(144,664,o),
(170,652,o),
(194,643,c),
(84,58,l),
(59,49,o),
(30,36,o),
(6,22,c),
(12,0,l),
(215,0,l),
(223,26,l),
(196,37,o),
(169,48,o),
(141,58,c),
(235,583,l),
(533,0,l),
(588,0,l),
(709,641,l),
(735,649,o),
(765,663,o),
(790,678,c),
(784,700,l),
(581,700,l),
(573,674,l),
(599,663,o),
(626,652,o),
(654,642,c),
(559,126,l),
(264,700,l),
(127,700,l),
(121,678,l,{
name = hr00;
})
);
},
{
closed = 1;
nodes = (
(298,-86,o),
(303,-109,o),
(303,-130,cs),
(303,-176,o),
(284,-211,o),
(258,-255,c),
(280,-271,l),
(310,-241,o),
(374,-167,o),
(387,-111,c),
(387,-75,o),
(375,-50,o),
(345,-50,cs),
(328,-50,o),
(301,-57,o),
(289,-61,c,{
name = hr00;
})
);
}
);
};
layerId = master01;
shapes = (
{
ref = N;
},
{
pos = (219,0);
ref = commaaccentcomb;
}
);
width = 760;
}
);
unicode = 325;
},
{
glyphname = Ntilde;
lastChange = "2023-02-24 13:23:56 +0000";
layers = (
{
background = {
shapes = (
{
closed = 1;
nodes = (
(144,664,o),
(170,652,o),
(194,643,c),
(84,58,l),
(59,49,o),
(30,36,o),
(6,22,c),
(12,0,l),
(215,0,l),
(223,26,l),
(196,37,o),
(169,48,o),
(141,58,c),
(235,583,l),
(533,0,l),
(588,0,l),
(709,641,l),
(735,649,o),
(765,663,o),
(790,678,c),
(784,700,l),
(581,700,l),
(573,674,l),
(599,663,o),
(626,652,o),
(654,642,c),
(559,126,l),
(264,700,l),
(127,700,l),
(121,678,l,{
name = hr00;
})
);
},
{
closed = 1;
nodes = (
(605,863,o),
(583,857,o),
(562,857,cs),
(521,857,o),
(483,886,o),
(443,886,cs),
(413,886,o),
(381,869,o),
(347,812,c),
(366,795,l),
(389,818,o),
(411,824,o),
(433,824,cs),
(473,824,o),
(512,795,o),
(552,795,cs),
(582,795,o),
(613,811,o),
(648,869,c),
(629,886,l,{
name = hr00;
})
);
}
);
};
layerId = master01;
shapes = (
{
ref = N;
},
{
pos = (211,0);
ref = tildecomb.case;
}
);
width = 760;
}
);
unicode = 209;
},
{
glyphname = Eng;
lastChange = "2023-02-24 13:23:56 +0000";
layers = (
{
anchors = (
{
name = bottom;
pos = (336,0);
},
{
name = top;
pos = (470,700);
}
);
background = {
shapes = (
{
closed = 1;
nodes = (
(367,-189,o),
(334,-184,o),
(295,-174,c),
(278,-226,l),
(298,-234,o),
(347,-252,o),
(371,-252,c),
(476,-226,o),
(560,-150,o),
(599,58,cs),
(709,641,l),
(735,649,o),
(765,663,o),
(790,678,c),
(784,700,l),
(581,700,l),
(573,674,l),
(599,663,o),
(626,652,o),
(654,642,c),
(559,126,l),
(264,700,l),
(127,700,l),
(121,678,l),
(144,664,o),
(170,652,o),
(194,643,c),
(84,58,l),
(59,49,o),
(30,36,o),
(6,22,c),
(12,0,l),
(215,0,l),
(223,26,l),
(196,37,o),
(169,48,o),
(141,58,c),
(235,583,l),
(525,15,l),
(503,-92,o),
(473,-189,o),
(405,-189,c,{
name = hr00;
})
);
}
);
};
layerId = master01;
shapes = (
{
closed = 1;
nodes = (
(476,-226,o),
(560,-150,o),
(599,58,cs),
(709,641,l),
(735,649,o),
(765,663,o),
(790,678,c),
(784,700,l),
(581,700,l),
(573,674,l),
(599,663,o),
(626,652,o),
(654,642,c),
(559,126,l),
(264,700,l),
(127,700,l),
(121,678,l),
(144,664,o),
(170,652,o),
(194,643,c),
(84,58,l),
(59,49,o),
(30,36,o),
(6,22,c),
(12,0,l),
(215,0,l),
(223,26,l),
(196,37,o),
(169,48,o),
(141,58,c),
(235,583,l),
(525,15,l),
(503,-92,o),
(473,-189,o),
(405,-189,c,{
name = hr00;
}),
(367,-189,o),
(334,-184,o),
(295,-174,c),
(278,-226,l),
(298,-234,o),
(347,-252,o),
(371,-252,c)
);
}
);
width = 760;
}
);
unicode = 330;
},
{
glyphname = O;
kernLeft = C;
lastChange = "2023-02-24 13:23:56 +0000";
layers = (
{
anchors = (
{
name = bottom;
pos = (303,0);
},
{
name = center;
pos = (370,350);
},
{
name = ogonek;
pos = (583,10);
},
{
name = top;
pos = (437,700);
},
{
name = topleft;
pos = (110,700);
},
{
name = topright;
pos = (764,700);
}
);
background = {
shapes = (
{
closed = 1;
nodes = (
(200,712,o),
(50,457,o),
(50,242,cs),
(50,101,o),
(128,-12,o),
(266,-12,cs),
(518,-12,o),
(679,233,o),
(679,454,cs),
(679,595,o),
(599,712,o),
(451,712,cs,{
name = hr00;
})
);
},
{
closed = 1;
nodes = (
(521,659,o),
(599,569,o),
(599,451,cs),
(599,268,o),
(494,41,o),
(285,41,cs),
(195,41,o),
(130,123,o),
(130,241,cs),
(130,436,o),
(220,659,o),
(427,659,cs)
);
}
);
};
layerId = master01;
shapes = (
{
closed = 1;
nodes = (
(518,-12,o),
(679,233,o),
(679,454,cs),
(679,595,o),
(599,712,o),
(451,712,cs,{
name = hr00;
}),
(200,712,o),
(50,457,o),
(50,242,cs),
(50,101,o),
(128,-12,o),
(266,-12,cs)
);
},
{
closed = 1;
nodes = (
(195,41,o),
(130,123,o),
(130,241,cs),
(130,436,o),
(220,659,o),
(427,659,cs),
(521,659,o),
(599,569,o),
(599,451,cs),
(599,268,o),
(494,41,o),
(285,41,cs)
);
}
);
width = 694;
}
);
unicode = 79;
},
{
glyphname = Oacute;
kernLeft = C;
lastChange = "2023-02-24 13:23:56 +0000";
layers = (
{
background = {
shapes = (
{
closed = 1;
nodes = (
(200,712,o),
(50,457,o),
(50,242,cs),
(50,101,o),
(128,-12,o),
(266,-12,cs),
(518,-12,o),
(679,233,o),
(679,454,cs),
(679,595,o),
(599,712,o),
(451,712,cs,{
name = hr00;
})
);
},
{
closed = 1;
nodes = (
(521,659,o),
(599,569,o),
(599,451,cs),
(599,268,o),
(494,41,o),
(285,41,cs),
(195,41,o),
(130,123,o),
(130,241,cs),
(130,436,o),
(220,659,o),
(427,659,cs)
);
},
{
closed = 1;
nodes = (
(430,777,o),
(520,807,o),
(582,850,c),
(591,867,l),
(591,888,o),
(576,920,o),
(566,930,c),
(480,854,o),
(389,787,o),
(389,787,c),
(400,768,l,{
name = hr00;
})
);
}
);
};
layerId = master01;
shapes = (
{
ref = O;
},
{
pos = (329,0);
ref = acutecomb.case;
}
);
width = 694;
}
);
unicode = 211;
},
{
glyphname = Obreve;
kernLeft = C;
lastChange = "2023-02-24 13:23:56 +0000";
layers = (
{
background = {
shapes = (
{
closed = 1;
nodes = (
(200,712,o),
(50,457,o),
(50,242,cs),
(50,101,o),
(128,-12,o),
(266,-12,cs),
(518,-12,o),
(679,233,o),
(679,454,cs),
(679,595,o),
(599,712,o),
(451,712,cs,{
name = hr00;
})
);
},
{
closed = 1;
nodes = (
(521,659,o),
(599,569,o),
(599,451,cs),
(599,268,o),
(494,41,o),
(285,41,cs),
(195,41,o),
(130,123,o),
(130,241,cs),
(130,436,o),
(220,659,o),
(427,659,cs)
);
},
{
closed = 1;
nodes = (
(406,837,o),
(386,871,o),
(376,924,c),
(345,917,l),
(356,824,o),
(376,773,o),
(430,773,cs),
(484,773,o),
(521,824,o),
(567,917,c),
(537,924,l),
(507,871,o),
(475,837,o),
(441,837,cs,{
name = hr00;
})
);
}
);
};
layerId = master01;
shapes = (
{
ref = O;
},
{
pos = (256,0);
ref = brevecomb.case;
}
);
width = 694;
}
);
unicode = 334;
},
{
glyphname = Ocircumflex;
kernLeft = C;
lastChange = "2023-02-24 13:23:56 +0000";
layers = (
{
background = {
shapes = (
{
closed = 1;
nodes = (
(200,712,o),
(50,457,o),
(50,242,cs),
(50,101,o),
(128,-12,o),
(266,-12,cs),
(518,-12,o),
(679,233,o),
(679,454,cs),
(679,595,o),
(599,712,o),
(451,712,cs,{
name = hr00;
})
);
},
{
closed = 1;
nodes = (
(521,659,o),
(599,569,o),
(599,451,cs),
(599,268,o),
(494,41,o),
(285,41,cs),
(195,41,o),
(130,123,o),
(130,241,cs),
(130,436,o),
(220,659,o),
(427,659,cs)
);
},
{
closed = 1;
nodes = (
(507,931,o),
(499,932,o),
(491,932,cs),
(483,932,o),
(475,931,o),
(467,929,c),
(400,837,o),
(349,785,o),
(349,785,c),
(368,768,l),
(385,779,o),
(441,818,o),
(483,852,c),
(515,808,o),
(540,779,o),
(550,768,c),
(569,782,l),
(569,782,o),
(549,830,o),
(515,929,c,{
name = hr00;
})
);
}
);
};
layerId = master01;
shapes = (
{
ref = O;
},
{
pos = (269,0);
ref = circumflexcomb.case;
}
);
width = 694;
}
);
unicode = 212;
},
{
glyphname = Odieresis;
kernLeft = C;
lastChange = "2023-02-24 13:23:56 +0000";
layers = (
{
background = {
shapes = (
{
closed = 1;
nodes = (
(200,712,o),
(50,457,o),
(50,242,cs),
(50,101,o),
(128,-12,o),
(266,-12,cs),
(518,-12,o),
(679,233,o),
(679,454,cs),
(679,595,o),
(599,712,o),
(451,712,cs,{
name = hr00;
})
);
},
{
closed = 1;
nodes = (
(521,659,o),
(599,569,o),
(599,451,cs),
(599,268,o),
(494,41,o),
(285,41,cs),
(195,41,o),
(130,123,o),
(130,241,cs),
(130,436,o),
(220,659,o),
(427,659,cs)
);
},
{
closed = 1;
nodes = (
(535,903,o),
(503,896,o),
(503,896,c),
(503,896,o),
(484,852,o),
(484,820,cs),
(484,802,o),
(490,788,o),
(510,788,cs),
(529,788,o),
(559,797,o),
(559,797,c),
(560,797,o),
(578,840,o),
(578,869,cs),
(578,888,o),
(571,903,o),
(553,903,cs,{
name = hr00;
})
);
},
{
closed = 1;
nodes = (
(399,903,o),
(367,896,o),
(367,896,c),
(367,896,o),
(348,852,o),
(348,820,cs),
(348,802,o),
(354,788,o),
(374,788,cs),
(393,788,o),
(423,797,o),
(423,797,c),
(424,797,o),
(442,840,o),
(442,869,cs),
(442,888,o),
(435,903,o),
(417,903,cs)
);
}
);
};
layerId = master01;
shapes = (
{
ref = O;
},
{
pos = (282,0);
ref = dieresiscomb.case;
}
);
width = 694;
}
);
unicode = 214;
},
{
glyphname = Ograve;
kernLeft = C;
lastChange = "2023-02-24 13:23:56 +0000";
layers = (
{
background = {
shapes = (
{
closed = 1;
nodes = (
(200,712,o),
(50,457,o),
(50,242,cs),
(50,101,o),
(128,-12,o),
(266,-12,cs),
(518,-12,o),
(679,233,o),
(679,454,cs),
(679,595,o),
(599,712,o),
(451,712,cs,{
name = hr00;
})
);
},
{
closed = 1;
nodes = (
(521,659,o),
(599,569,o),
(599,451,cs),
(599,268,o),
(494,41,o),
(285,41,cs),
(195,41,o),
(130,123,o),
(130,241,cs),
(130,436,o),
(220,659,o),
(427,659,cs)
);
},
{
closed = 1;
nodes = (
(556,799,o),
(465,866,o),
(379,942,c),
(369,932,o),
(354,900,o),
(354,879,c),
(363,862,l),
(425,819,o),
(515,789,o),
(545,780,c),
(556,799,l,{
name = hr00;
})
);
}
);
};
layerId = master01;
shapes = (
{
ref = O;
},
{
pos = (396,0);
ref = gravecomb.case;
}
);
width = 694;
}
);
unicode = 210;
},
{
glyphname = Ohungarumlaut;
kernLeft = C;
lastChange = "2023-02-24 13:23:56 +0000";
layers = (
{
background = {
shapes = (
{
closed = 1;
nodes = (
(200,712,o),
(50,457,o),
(50,242,cs),
(50,101,o),
(128,-12,o),
(266,-12,cs),
(518,-12,o),
(679,233,o),
(679,454,cs),
(679,595,o),
(599,712,o),
(451,712,cs,{
name = hr00;
})
);
},
{
closed = 1;
nodes = (
(521,659,o),
(599,569,o),
(599,451,cs),
(599,268,o),
(494,41,o),
(285,41,cs),
(195,41,o),
(130,123,o),
(130,241,cs),
(130,436,o),
(220,659,o),
(427,659,cs)
);
},
{
closed = 1;
nodes = (
(498,762,o),
(577,814,o),
(626,871,c),
(630,890,l),
(625,910,o),
(602,937,o),
(590,945,c),
(526,849,o),
(456,761,o),
(456,761,c),
(471,745,l,{
name = hr00;
})
);
},
{
closed = 1;
nodes = (
(308,762,o),
(387,814,o),
(436,871,c),
(440,890,l),
(435,910,o),
(412,937,o),
(400,945,c),
(336,849,o),
(266,761,o),
(266,761,c),
(281,745,l)
);
}
);
};
layerId = master01;
shapes = (
{
ref = O;
},
{
pos = (244,0);
ref = hungarumlautcomb.case;
}
);
width = 694;
}
);
unicode = 336;
},
{
glyphname = Omacron;
kernLeft = C;
lastChange = "2023-02-24 13:23:56 +0000";
layers = (
{
background = {
shapes = (
{
closed = 1;
nodes = (
(200,712,o),
(50,457,o),
(50,242,cs),
(50,101,o),
(128,-12,o),
(266,-12,cs),
(518,-12,o),
(679,233,o),
(679,454,cs),
(679,595,o),
(599,712,o),
(451,712,cs,{
name = hr00;
})
);
},
{
closed = 1;
nodes = (
(521,659,o),
(599,569,o),
(599,451,cs),
(599,268,o),
(494,41,o),
(285,41,cs),
(195,41,o),
(130,123,o),
(130,241,cs),
(130,436,o),
(220,659,o),
(427,659,cs)
);
},
{
closed = 1;
nodes = (
(583,805,l),
(593,862,l),
(326,862,l),
(316,805,l,{
name = hr00;
})
);
}
);
};
layerId = master01;
shapes = (
{
ref = O;
},
{
pos = (211,0);
ref = macroncomb.case;
}
);
width = 694;
}
);
unicode = 332;
},
{
glyphname = Oslash;
kernLeft = C;
lastChange = "2023-02-24 13:23:56 +0000";
layers = (
{
background = {
shapes = (
{
closed = 1;
nodes = (
(200,712,o),
(50,457,o),
(50,242,cs),
(50,101,o),
(128,-12,o),
(266,-12,cs),
(518,-12,o),
(679,233,o),
(679,454,cs),
(679,595,o),
(599,712,o),
(451,712,cs,{
name = hr00;
})
);
},
{
closed = 1;
nodes = (
(521,659,o),
(599,569,o),
(599,451,cs),
(599,268,o),
(494,41,o),
(285,41,cs),
(195,41,o),
(130,123,o),
(130,241,cs),
(130,436,o),
(220,659,o),
(427,659,cs)
);
},
{
closed = 1;
nodes = (
(239,-91,l),
(538,789,l),
(490,789,l),
(190,-91,l,{
name = hr00;
})
);
}
);
};
layerId = master01;
shapes = (
{
ref = O;
},
{
pos = (217,-36);
ref = slash;
scale = (0.9,1.1);
}
);
width = 694;
}
);
unicode = 216;
},
{
glyphname = Oslashacute;
kernLeft = C;
lastChange = "2023-02-24 13:23:56 +0000";
layers = (
{
background = {
shapes = (
{
closed = 1;
nodes = (
(430,777,o),
(520,807,o),
(582,850,c),
(591,867,l),
(591,888,o),
(576,920,o),
(566,930,c),
(480,854,o),
(389,787,o),
(389,787,c),
(400,768,l,{
name = hr00;
})
);
},
{
closed = 1;
nodes = (
(200,712,o),
(50,457,o),
(50,242,cs),
(50,101,o),
(128,-12,o),
(266,-12,cs),
(518,-12,o),
(679,233,o),
(679,454,cs),
(679,595,o),
(599,712,o),
(451,712,cs,{
name = hr00;
})
);
},
{
closed = 1;
nodes = (
(521,659,o),
(599,569,o),
(599,451,cs),
(599,268,o),
(494,41,o),
(285,41,cs),
(195,41,o),
(130,123,o),
(130,241,cs),
(130,436,o),
(220,659,o),
(427,659,cs)
);
},
{
closed = 1;
nodes = (
(239,-51,l),
(538,749,l),
(490,749,l),
(190,-51,l,{
name = hr00;
})
);
}
);
};
layerId = master01;
shapes = (
{
closed = 1;
nodes = (
(518,-12,o),
(679,233,o),
(679,454,cs),
(679,595,o),
(599,712,o),
(451,712,cs,{
name = hr00;
}),
(200,712,o),
(50,457,o),
(50,242,cs),
(50,101,o),
(128,-12,o),
(266,-12,cs)
);
},
{
closed = 1;
nodes = (
(239,-51,l),
(538,749,l),
(490,749,l),
(190,-51,l,{
name = hr00;
})
);
},
{
closed = 1;
nodes = (
(195,41,o),
(130,123,o),
(130,241,cs),
(130,436,o),
(220,659,o),
(427,659,cs),
(521,659,o),
(599,569,o),
(599,451,cs),
(599,268,o),
(494,41,o),
(285,41,cs)
);
},
{
pos = (359,0);
ref = acutecomb.case;
}
);
width = 694;
}
);
unicode = 510;
},
{
glyphname = Otilde;
kernLeft = C;
lastChange = "2023-02-24 13:23:56 +0000";
layers = (
{
background = {
shapes = (
{
closed = 1;
nodes = (
(200,712,o),
(50,457,o),
(50,242,cs),
(50,101,o),
(128,-12,o),
(266,-12,cs),
(518,-12,o),
(679,233,o),
(679,454,cs),
(679,595,o),
(599,712,o),
(451,712,cs,{
name = hr00;
})
);
},
{
closed = 1;
nodes = (
(521,659,o),
(599,569,o),
(599,451,cs),
(599,268,o),
(494,41,o),
(285,41,cs),
(195,41,o),
(130,123,o),
(130,241,cs),
(130,436,o),
(220,659,o),
(427,659,cs)
);
},
{
closed = 1;
nodes = (
(580,863,o),
(558,857,o),
(537,857,cs),
(496,857,o),
(458,886,o),
(418,886,cs),
(388,886,o),
(356,869,o),
(322,812,c),
(341,795,l),
(364,818,o),
(386,824,o),
(408,824,cs),
(448,824,o),
(487,795,o),
(527,795,cs),
(557,795,o),
(588,811,o),
(623,869,c),
(604,886,l,{
name = hr00;
})
);
}
);
};
layerId = master01;
shapes = (
{
ref = O;
},
{
pos = (188,0);
ref = tildecomb.case;
}
);
width = 694;
}
);
unicode = 213;
},
{
glyphname = OE;
kernLeft = C;
lastChange = "2023-02-24 13:23:56 +0000";
layers = (
{
background = {
shapes = (
{
closed = 1;
nodes = (
(510,702,o),
(482,706,o),
(451,706,cs),
(200,706,o),
(50,457,o),
(50,242,cs),
(50,101,o),
(128,-12,o),
(266,-12,cs),
(325,-12,o),
(381,-1,o),
(420,11,c),
(408,70,l),
(372,51,o),
(331,39,o),
(285,39,cs),
(195,39,o),
(130,123,o),
(130,241,cs),
(130,436,o),
(220,653,o),
(427,653,cs),
(463,653,o),
(510,640,o),
(538,620,c),
(535,696,l,{
name = hr00;
})
);
},
{
closed = 1;
nodes = (
(434,664,o),
(464,650,o),
(492,642,c),
(381,57,l),
(351,48,o),
(323,37,o),
(296,26,c),
(304,0,l),
(409,8,l),
(525,8,o),
(695,0,o),
(749,-4,c),
(764,14,o),
(774,34,o),
(780,55,c),
(774,72,l),
(723,61,o),
(589,56,o),
(449,55,c),
(508,326,l),
(756,339,l),
(765,382,l),
(518,382,l),
(561,646,l),
(665,640,o),
(780,640,o),
(829,640,c),
(843,657,o),
(854,676,o),
(860,696,c),
(854,713,l),
(804,702,o),
(671,697,o),
(535,696,c),
(414,700,l),
(408,678,l,{
name = hr00;
})
);
}
);
};
layerId = master01;
shapes = (
{
closed = 1;
nodes = (
(325,-12,o),
(381,-1,o),
(420,11,c),
(408,70,l),
(372,51,o),
(331,39,o),
(285,39,cs),
(195,39,o),
(130,123,o),
(130,241,cs),
(130,436,o),
(220,653,o),
(427,653,cs),
(463,653,o),
(510,640,o),
(538,620,c),
(535,696,l,{
name = hr00;
}),
(510,702,o),
(482,706,o),
(451,706,cs),
(200,706,o),
(50,457,o),
(50,242,cs),
(50,101,o),
(128,-12,o),
(266,-12,cs)
);
},
{
pos = (283,0);
ref = E;
}
);
width = 853;
}
);
unicode = 338;
},
{
glyphname = P;
kernRight = P;
lastChange = "2023-02-24 13:23:56 +0000";
layers = (
{
anchors = (
{
name = bottom;
pos = (238,0);
},
{
name = top;
pos = (372,700);
}
);
background = {
shapes = (
{
closed = 1;
nodes = (
(245,37,o),
(203,51,o),
(167,60,c),
(230,350,l),
(278,646,l),
(405,656,l),
(474,656,o),
(504,591,o),
(504,518,cs),
(504,432,o),
(463,309,o),
(354,309,cs),
(313,309,o),
(292,315,o),
(253,327,c),
(241,286,l),
(262,279,o),
(319,255,o),
(344,255,c),
(465,283,o),
(584,397,o),
(584,524,cs),
(584,625,o),
(526,698,o),
(423,698,c),
(252,696,l),
(131,700,l),
(125,678,l),
(151,664,o),
(181,650,o),
(209,642,c),
(98,57,l),
(68,48,o),
(40,37,o),
(13,26,c),
(21,0,l),
(274,0,l),
(280,22,l,{
name = hr00;
})
);
}
);
};
layerId = master01;
shapes = (
{
closed = 1;
nodes = (
(274,0,l),
(280,22,l,{
name = hr00;
}),
(245,37,o),
(203,51,o),
(167,60,c),
(230,350,l),
(278,646,l),
(405,656,l),
(474,656,o),
(504,591,o),
(504,518,cs),
(504,432,o),
(463,309,o),
(354,309,cs),
(313,309,o),
(292,315,o),
(253,327,c),
(241,286,l),
(262,279,o),
(319,255,o),
(344,255,c),
(465,283,o),
(584,397,o),
(584,524,cs),
(584,625,o),
(526,698,o),
(423,698,c),
(252,696,l),
(131,700,l),
(125,678,l),
(151,664,o),
(181,650,o),
(209,642,c),
(98,57,l),
(68,48,o),
(40,37,o),
(13,26,c),
(21,0,l)
);
}
);
width = 563;
}
);
unicode = 80;
},
{
glyphname = Thorn;
lastChange = "2023-02-24 13:23:56 +0000";
layers = (
{
background = {
shapes = (
{
closed = 1;
nodes = (
(290,174,o),
(269,180,o),
(230,192,c),
(218,151,l),
(239,144,o),
(296,120,o),
(321,120,c),
(442,148,o),
(561,262,o),
(561,389,cs),
(561,490,o),
(503,563,o),
(400,563,c),
(229,561,l),
(255,511,l),
(382,521,l),
(451,521,o),
(481,456,o),
(481,383,cs),
(481,297,o),
(440,174,o),
(331,174,cs,{
name = hr00;
})
);
},
{
closed = 1;
nodes = (
(225,36,o),
(195,49,o),
(167,58,c),
(228,350,l),
(278,643,l),
(308,652,o),
(336,663,o),
(363,674,c),
(355,700,l),
(132,700,l),
(126,678,l),
(152,664,o),
(182,650,o),
(210,642,c),
(149,350,l),
(98,57,l),
(69,47,o),
(40,37,o),
(14,26,c),
(22,0,l),
(245,0,l),
(251,22,l,{
name = hr00;
})
);
}
);
};
layerId = master01;
shapes = (
{
closed = 1;
nodes = (
(442,148,o),
(561,262,o),
(561,389,cs),
(561,490,o),
(503,563,o),
(400,563,c),
(229,561,l),
(255,511,l),
(382,521,l),
(451,521,o),
(481,456,o),
(481,383,cs),
(481,297,o),
(440,174,o),
(331,174,cs,{
name = hr00;
}),
(290,174,o),
(269,180,o),
(230,192,c),
(218,151,l),
(239,144,o),
(296,120,o),
(321,120,c)
);
},
{
ref = I;
}
);
width = 541;
}
);
unicode = 222;
},
{
glyphname = Q;
kernLeft = C;
lastChange = "2023-02-24 13:23:56 +0000";
layers = (
{
background = {
shapes = (
{
closed = 1;
nodes = (
(333,-98,o),
(399,-159,o),
(498,-179,c),
(536,-179,o),
(620,-152,o),
(656,-140,c),
(643,-91,l),
(587,-102,o),
(528,-113,o),
(472,-113,cs),
(429,-113,o),
(391,-86,o),
(342,0,c),
(269,0,l,{
name = hr00;
})
);
},
{
closed = 1;
nodes = (
(200,712,o),
(50,457,o),
(50,242,cs),
(50,101,o),
(128,-12,o),
(266,-12,cs),
(518,-12,o),
(679,233,o),
(679,454,cs),
(679,595,o),
(599,712,o),
(451,712,cs,{
name = hr00;
})
);
},
{
closed = 1;
nodes = (
(521,659,o),
(599,569,o),
(599,451,cs),
(599,268,o),
(494,41,o),
(285,41,cs),
(195,41,o),
(130,123,o),
(130,241,cs),
(130,436,o),
(220,659,o),
(427,659,cs)
);
}
);
};
layerId = master01;
shapes = (
{
closed = 1;
nodes = (
(536,-179,o),
(620,-152,o),
(656,-140,c),
(643,-91,l),
(587,-102,o),
(528,-113,o),
(472,-113,cs),
(429,-113,o),
(391,-86,o),
(342,0,c),
(269,0,l,{
name = hr00;
}),
(333,-98,o),
(399,-159,o),
(498,-179,c)
);
},
{
ref = O;
}
);
width = 694;
}
);
unicode = 81;
},
{
glyphname = R;
lastChange = "2023-02-24 13:23:56 +0000";
layers = (
{
anchors = (
{
name = bottom;
pos = (324,0);
},
{
name = top;
pos = (381,700);
}
);
background = {
shapes = (
{
closed = 1;
nodes = (
(231,36,o),
(197,50,o),
(166,58,c),
(230,350,l),
(278,646,l),
(403,656,l),
(472,656,o),
(502,591,o),
(502,518,cs),
(502,442,o),
(464,334,o),
(362,334,cs),
(321,334,o),
(300,340,o),
(261,352,c),
(249,311,l),
(275,300,o),
(337,280,o),
(352,280,c),
(368,151,o),
(415,-12,o),
(440,-12,c),
(571,8,l),
(577,28,l),
(562,40,o),
(513,54,o),
(482,57,c),
(460,100,o),
(425,191,o),
(410,299,c),
(503,340,o),
(582,428,o),
(582,524,cs),
(582,625,o),
(524,698,o),
(421,698,c),
(252,696,l),
(131,700,l),
(125,678,l),
(151,664,o),
(181,650,o),
(209,642,c),
(98,57,l),
(68,48,o),
(40,37,o),
(13,26,c),
(21,0,l,{
name = hr01;
}),
(254,0,l),
(260,22,l)
);
}
);
};
layerId = master01;
shapes = (
{
closed = 1;
nodes = (
(571,8,l),
(577,28,l),
(562,40,o),
(513,54,o),
(482,57,c),
(460,100,o),
(425,191,o),
(410,299,c),
(503,340,o),
(582,428,o),
(582,524,cs),
(582,625,o),
(524,698,o),
(421,698,c),
(252,696,l),
(131,700,l),
(125,678,l),
(151,664,o),
(181,650,o),
(209,642,c),
(98,57,l),
(68,48,o),
(40,37,o),
(13,26,c),
(21,0,l,{
name = hr01;
}),
(254,0,l),
(260,22,l),
(231,36,o),
(197,50,o),
(166,58,c),
(230,350,l),
(278,646,l),
(403,656,l),
(472,656,o),
(502,591,o),
(502,518,cs),
(502,442,o),
(464,334,o),
(362,334,cs),
(321,334,o),
(300,340,o),
(261,352,c),
(249,311,l),
(275,300,o),
(337,280,o),
(352,280,c),
(368,151,o),
(415,-12,o),
(440,-12,c)
);
}
);
width = 602;
}
);
unicode = 82;
},
{
glyphname = Racute;
lastChange = "2023-02-24 13:23:56 +0000";
layers = (
{
background = {
shapes = (
{
closed = 1;
nodes = (
(231,36,o),
(197,50,o),
(166,58,c),
(230,350,l),
(278,646,l),
(403,656,l),
(472,656,o),
(502,591,o),
(502,518,cs),
(502,442,o),
(464,334,o),
(362,334,cs),
(321,334,o),
(300,340,o),
(261,352,c),
(249,311,l),
(275,300,o),
(337,280,o),
(352,280,c),
(368,151,o),
(415,-12,o),
(440,-12,c),
(571,8,l),
(577,28,l),
(562,40,o),
(513,54,o),
(482,57,c),
(460,100,o),
(425,191,o),
(410,299,c),
(503,340,o),
(582,428,o),
(582,524,cs),
(582,625,o),
(524,698,o),
(421,698,c),
(252,696,l),
(131,700,l),
(125,678,l),
(151,664,o),
(181,650,o),
(209,642,c),
(98,57,l),
(68,48,o),
(40,37,o),
(13,26,c),
(21,0,l,{
name = hr01;
}),
(254,0,l),
(260,22,l)
);
},
{
closed = 1;
nodes = (
(348,777,o),
(438,807,o),
(500,850,c),
(509,867,l),
(509,888,o),
(494,920,o),
(484,930,c),
(398,854,o),
(307,787,o),
(307,787,c),
(318,768,l,{
name = hr00;
})
);
}
);
};
layerId = master01;
shapes = (
{
ref = R;
},
{
pos = (273,0);
ref = acutecomb.case;
}
);
width = 602;
}
);
unicode = 340;
},
{
glyphname = Rcaron;
lastChange = "2023-02-24 13:23:56 +0000";
layers = (
{
background = {
shapes = (
{
closed = 1;
nodes = (
(231,36,o),
(197,50,o),
(166,58,c),
(230,350,l),
(278,646,l),
(403,656,l),
(472,656,o),
(502,591,o),
(502,518,cs),
(502,442,o),
(464,334,o),
(362,334,cs),
(321,334,o),
(300,340,o),
(261,352,c),
(249,311,l),
(275,300,o),
(337,280,o),
(352,280,c),
(368,151,o),
(415,-12,o),
(440,-12,c),
(571,8,l),
(577,28,l),
(562,40,o),
(513,54,o),
(482,57,c),
(460,100,o),
(425,191,o),
(410,299,c),
(503,340,o),
(582,428,o),
(582,524,cs),
(582,625,o),
(524,698,o),
(421,698,c),
(252,696,l),
(131,700,l),
(125,678,l),
(151,664,o),
(181,650,o),
(209,642,c),
(98,57,l),
(68,48,o),
(40,37,o),
(13,26,c),
(21,0,l,{
name = hr01;
}),
(254,0,l),
(260,22,l)
);
},
{
closed = 1;
nodes = (
(360,769,o),
(368,768,o),
(376,768,cs),
(384,768,o),
(392,769,o),
(400,771,c),
(467,863,o),
(518,915,o),
(518,915,c),
(499,932,l),
(482,921,o),
(426,882,o),
(384,848,c),
(352,892,o),
(327,921,o),
(317,932,c),
(298,918,l),
(298,918,o),
(318,870,o),
(352,771,c,{
name = hr00;
})
);
}
);
};
layerId = master01;
shapes = (
{
ref = R;
},
{
pos = (238,0);
ref = caroncomb.case;
}
);
width = 602;
}
);
unicode = 344;
},
{
glyphname = Rcommaaccent;
lastChange = "2023-02-24 13:23:56 +0000";
layers = (
{
background = {
shapes = (
{
closed = 1;
nodes = (
(231,36,o),
(197,50,o),
(166,58,c),
(230,350,l),
(278,646,l),
(403,656,l),
(472,656,o),
(502,591,o),
(502,518,cs),
(502,442,o),
(464,334,o),
(362,334,cs),
(321,334,o),
(300,340,o),
(261,352,c),
(249,311,l),
(275,300,o),
(337,280,o),
(352,280,c),
(368,151,o),
(415,-12,o),
(440,-12,c),
(571,8,l),
(577,28,l),
(562,40,o),
(513,54,o),
(482,57,c),
(460,100,o),
(425,191,o),
(410,299,c),
(503,340,o),
(582,428,o),
(582,524,cs),
(582,625,o),
(524,698,o),
(421,698,c),
(252,696,l),
(131,700,l),
(125,678,l),
(151,664,o),
(181,650,o),
(209,642,c),
(98,57,l),
(68,48,o),
(40,37,o),
(13,26,c),
(21,0,l,{
name = hr01;
}),
(254,0,l),
(260,22,l)
);
},
{
closed = 1;
nodes = (
(268,-86,o),
(273,-109,o),
(273,-130,cs),
(273,-176,o),
(254,-211,o),
(228,-255,c),
(250,-271,l),
(280,-241,o),
(344,-167,o),
(357,-111,c),
(357,-75,o),
(345,-50,o),
(315,-50,cs),
(298,-50,o),
(271,-57,o),
(259,-61,c,{
name = hr00;
})
);
}
);
};
layerId = master01;
shapes = (
{
ref = R;
},
{
pos = (189,0);
ref = commaaccentcomb;
}
);
width = 602;
}
);
unicode = 342;
},
{
glyphname = S;
lastChange = "2023-02-24 13:23:56 +0000";
layers = (
{
anchors = (
{
name = bottom;
pos = (226,0);
},
{
name = top;
pos = (335,700);
}
);
background = {
shapes = (
{
closed = 1;
nodes = (
(67,3,o),
(130,-12,o),
(203,-12,cs),
(320,-12,o),
(456,66,o),
(456,196,cs),
(456,242,o),
(427,291,o),
(372,329,cs),
(227,427,ls),
(200,445,o),
(177,476,o),
(177,523,cs),
(177,626,o),
(264,646,o),
(316,646,cs),
(371,646,o),
(419,634,o),
(474,623,c),
(500,673,l),
(467,682,o),
(380,712,o),
(342,712,c),
(195,690,o),
(107,599,o),
(107,495,cs),
(107,446,o),
(128,400,o),
(175,368,cs),
(324,267,ls),
(361,242,o),
(372,208,o),
(372,179,cs),
(372,105,o),
(313,36,o),
(210,36,cs),
(162,36,o),
(107,50,o),
(73,77,c),
(69,119,o),
(63,159,o),
(59,181,c),
(36,186,l),
(0,36,l,{
name = hr00;
})
);
}
);
};
layerId = master01;
shapes = (
{
closed = 1;
nodes = (
(320,-12,o),
(456,66,o),
(456,196,cs),
(456,242,o),
(427,292,o),
(372,329,cs),
(227,427,ls),
(200,445,o),
(177,476,o),
(177,523,cs),
(177,626,o),
(264,646,o),
(316,646,cs),
(371,646,o),
(419,634,o),
(474,623,c),
(500,673,l),
(467,682,o),
(380,712,o),
(342,712,c),
(195,690,o),
(107,599,o),
(107,495,cs),
(107,446,o),
(128,400,o),
(175,368,cs),
(324,267,ls),
(361,242,o),
(372,208,o),
(372,179,cs),
(372,105,o),
(313,36,o),
(210,36,cs),
(162,36,o),
(107,50,o),
(73,77,c),
(69,119,o),
(63,159,o),
(59,181,c),
(36,186,l),
(0,36,l,{
name = hr00;
}),
(67,3,o),
(130,-12,o),
(203,-12,cs)
);
}
);
width = 490;
}
);
unicode = 83;
},
{
glyphname = Sacute;
lastChange = "2023-02-24 13:23:56 +0000";
layers = (
{
background = {
shapes = (
{
closed = 1;
nodes = (
(67,3,o),
(130,-12,o),
(203,-12,cs),
(320,-12,o),
(456,66,o),
(456,196,cs),
(456,242,o),
(427,291,o),
(372,329,cs),
(227,427,ls),
(200,445,o),
(177,476,o),
(177,523,cs),
(177,626,o),
(264,646,o),
(316,646,cs),
(371,646,o),
(419,634,o),
(474,623,c),
(500,673,l),
(467,682,o),
(380,712,o),
(342,712,c),
(195,690,o),
(107,599,o),
(107,495,cs),
(107,446,o),
(128,400,o),
(175,368,cs),
(324,267,ls),
(361,242,o),
(372,208,o),
(372,179,cs),
(372,105,o),
(313,36,o),
(210,36,cs),
(162,36,o),
(107,50,o),
(73,77,c),
(69,119,o),
(63,159,o),
(59,181,c),
(36,186,l),
(0,36,l,{
name = hr00;
})
);
},
{
closed = 1;
nodes = (
(304,777,o),
(394,807,o),
(456,850,c),
(465,867,l),
(465,888,o),
(450,920,o),
(440,930,c),
(354,854,o),
(263,787,o),
(263,787,c),
(274,768,l,{
name = hr00;
})
);
}
);
};
layerId = master01;
shapes = (
{
ref = S;
},
{
pos = (227,0);
ref = acutecomb.case;
}
);
width = 490;
}
);
unicode = 346;
},
{
glyphname = Scaron;
lastChange = "2023-02-24 13:23:56 +0000";
layers = (
{
background = {
shapes = (
{
closed = 1;
nodes = (
(67,3,o),
(130,-12,o),
(203,-12,cs),
(320,-12,o),
(456,66,o),
(456,196,cs),
(456,242,o),
(427,291,o),
(372,329,cs),
(227,427,ls),
(200,445,o),
(177,476,o),
(177,523,cs),
(177,626,o),
(264,646,o),
(316,646,cs),
(371,646,o),
(419,634,o),
(474,623,c),
(500,673,l),
(467,682,o),
(380,712,o),
(342,712,c),
(195,690,o),
(107,599,o),
(107,495,cs),
(107,446,o),
(128,400,o),
(175,368,cs),
(324,267,ls),
(361,242,o),
(372,208,o),
(372,179,cs),
(372,105,o),
(313,36,o),
(210,36,cs),
(162,36,o),
(107,50,o),
(73,77,c),
(69,119,o),
(63,159,o),
(59,181,c),
(36,186,l),
(0,36,l,{
name = hr00;
})
);
},
{
closed = 1;
nodes = (
(344,769,o),
(352,768,o),
(360,768,cs),
(368,768,o),
(376,769,o),
(384,771,c),
(451,863,o),
(502,915,o),
(502,915,c),
(483,932,l),
(466,921,o),
(410,882,o),
(368,848,c),
(336,892,o),
(311,921,o),
(301,932,c),
(282,918,l),
(282,918,o),
(302,870,o),
(336,771,c,{
name = hr00;
})
);
}
);
};
layerId = master01;
shapes = (
{
ref = S;
},
{
pos = (192,0);
ref = caroncomb.case;
}
);
width = 490;
}
);
unicode = 352;
},
{
glyphname = Scedilla;
lastChange = "2023-02-24 13:23:56 +0000";
layers = (
{
background = {
shapes = (
{
closed = 1;
nodes = (
(67,3,o),
(130,-12,o),
(203,-12,cs),
(320,-12,o),
(456,66,o),
(456,196,cs),
(456,242,o),
(427,291,o),
(372,329,cs),
(227,427,ls),
(200,445,o),
(177,476,o),
(177,523,cs),
(177,626,o),
(264,646,o),
(316,646,cs),
(371,646,o),
(419,634,o),
(474,623,c),
(500,673,l),
(467,682,o),
(380,712,o),
(342,712,c),
(195,690,o),
(107,599,o),
(107,495,cs),
(107,446,o),
(128,400,o),
(175,368,cs),
(324,267,ls),
(361,242,o),
(372,208,o),
(372,179,cs),
(372,105,o),
(313,36,o),
(210,36,cs),
(162,36,o),
(107,50,o),
(73,77,c),
(69,119,o),
(63,159,o),
(59,181,c),
(36,186,l),
(0,36,l,{
name = hr00;
})
);
},
{
closed = 1;
nodes = (
(195,-214,o),
(266,-168,o),
(266,-110,cs),
(266,-68,o),
(222,-61,o),
(222,-27,c),
(230,0,l),
(203,0,l),
(183,-47,l),
(183,-67,o),
(199,-78,o),
(199,-111,cs),
(199,-158,o),
(158,-198,o),
(123,-220,c),
(134,-237,l,{
name = hr00;
})
);
}
);
};
layerId = master01;
shapes = (
{
ref = S;
},
{
pos = (13,0);
ref = cedillacomb;
}
);
width = 490;
}
);
unicode = 350;
},
{
glyphname = Scircumflex;
lastChange = "2023-02-24 13:23:56 +0000";
layers = (
{
background = {
shapes = (
{
closed = 1;
nodes = (
(67,3,o),
(130,-12,o),
(203,-12,cs),
(320,-12,o),
(456,66,o),
(456,196,cs),
(456,242,o),
(427,291,o),
(372,329,cs),
(227,427,ls),
(200,445,o),
(177,476,o),
(177,523,cs),
(177,626,o),
(264,646,o),
(316,646,cs),
(371,646,o),
(419,634,o),
(474,623,c),
(500,673,l),
(467,682,o),
(380,712,o),
(342,712,c),
(195,690,o),
(107,599,o),
(107,495,cs),
(107,446,o),
(128,400,o),
(175,368,cs),
(324,267,ls),
(361,242,o),
(372,208,o),
(372,179,cs),
(372,105,o),
(313,36,o),
(210,36,cs),
(162,36,o),
(107,50,o),
(73,77,c),
(69,119,o),
(63,159,o),
(59,181,c),
(36,186,l),
(0,36,l,{
name = hr00;
})
);
},
{
closed = 1;
nodes = (
(396,931,o),
(388,932,o),
(380,932,cs),
(372,932,o),
(364,931,o),
(356,929,c),
(289,837,o),
(238,785,o),
(238,785,c),
(257,768,l),
(274,779,o),
(330,818,o),
(372,852,c),
(404,808,o),
(429,779,o),
(439,768,c),
(458,782,l),
(458,782,o),
(438,830,o),
(404,929,c,{
name = hr00;
})
);
}
);
};
layerId = master01;
shapes = (
{
ref = S;
},
{
pos = (167,0);
ref = circumflexcomb.case;
}
);
width = 490;
}
);
unicode = 348;
},
{
glyphname = Scommaaccent;
lastChange = "2023-02-24 13:23:56 +0000";
layers = (
{
background = {
shapes = (
{
closed = 1;
nodes = (
(67,3,o),
(130,-12,o),
(203,-12,cs),
(320,-12,o),
(456,66,o),
(456,196,cs),
(456,242,o),
(427,291,o),
(372,329,cs),
(227,427,ls),
(200,445,o),
(177,476,o),
(177,523,cs),
(177,626,o),
(264,646,o),
(316,646,cs),
(371,646,o),
(419,634,o),
(474,623,c),
(500,673,l),
(467,682,o),
(380,712,o),
(342,712,c),
(195,690,o),
(107,599,o),
(107,495,cs),
(107,446,o),
(128,400,o),
(175,368,cs),
(324,267,ls),
(361,242,o),
(372,208,o),
(372,179,cs),
(372,105,o),
(313,36,o),
(210,36,cs),
(162,36,o),
(107,50,o),
(73,77,c),
(69,119,o),
(63,159,o),
(59,181,c),
(36,186,l),
(0,36,l,{
name = hr00;
})
);
},
{
closed = 1;
nodes = (
(157,-86,o),
(162,-109,o),
(162,-130,cs),
(162,-176,o),
(143,-211,o),
(117,-255,c),
(139,-271,l),
(169,-241,o),
(233,-167,o),
(246,-111,c),
(246,-75,o),
(234,-50,o),
(204,-50,cs),
(187,-50,o),
(160,-57,o),
(148,-61,c,{
name = hr00;
})
);
}
);
};
layerId = master01;
shapes = (
{
ref = S;
},
{
pos = (91,0);
ref = commaaccentcomb;
}
);
width = 490;
}
);
unicode = 536;
},
{
glyphname = T;
kernLeft = T;
kernRight = T;
lastChange = "2023-02-24 13:23:56 +0000";
layers = (
{
anchors = (
{
name = bottom;
pos = (236,0);
},
{
name = center;
pos = (294,350);
},
{
name = top;
pos = (361,700);
}
);
background = {
shapes = (
{
closed = 1;
nodes = (
(339,37,o),
(300,51,o),
(267,59,c),
(328,350,l),
(381,657,l),
(583,638,l),
(597,658,o),
(609,675,o),
(616,696,c),
(610,713,l),
(575,704,o),
(545,700,o),
(501,700,cs,{
name = hr01;
}),
(75,700,l),
(70,684,l),
(78,660,o),
(91,642,o),
(108,623,c),
(142,637,o),
(200,660,o),
(236,660,cs),
(314,660,l),
(249,350,l),
(199,59,l),
(162,49,o),
(127,37,o),
(94,26,c),
(102,0,l),
(365,0,l),
(371,22,l)
);
}
);
};
layerId = master01;
shapes = (
{
closed = 1;
nodes = (
(365,0,l),
(371,22,l),
(339,37,o),
(300,51,o),
(267,59,c),
(328,350,l),
(381,657,l),
(583,638,l),
(597,658,o),
(609,675,o),
(616,696,c),
(610,713,l),
(575,704,o),
(545,700,o),
(501,700,cs,{
name = hr01;
}),
(75,700,l),
(70,684,l),
(78,660,o),
(91,642,o),
(108,623,c),
(142,637,o),
(200,660,o),
(236,660,cs),
(314,660,l),
(249,350,l),
(199,59,l),
(162,49,o),
(127,37,o),
(94,26,c),
(102,0,l)
);
}
);
width = 541;
}
);
unicode = 84;
},
{
glyphname = Tbar;
kernLeft = T;
kernRight = T;
lastChange = "2023-02-24 13:23:56 +0000";
layers = (
{
background = {
shapes = (
{
closed = 1;
nodes = (
(339,37,o),
(300,51,o),
(267,59,c),
(328,350,l),
(381,657,l),
(583,638,l),
(597,658,o),
(609,675,o),
(616,696,c),
(610,713,l),
(575,704,o),
(545,700,o),
(501,700,cs,{
name = hr01;
}),
(75,700,l),
(70,684,l),
(78,660,o),
(91,642,o),
(108,623,c),
(142,637,o),
(200,660,o),
(236,660,cs),
(314,660,l),
(249,350,l),
(199,59,l),
(162,49,o),
(127,37,o),
(94,26,c),
(102,0,l),
(365,0,l),
(371,22,l)
);
},
{
closed = 1;
nodes = (
(97,376,l),
(89,333,l),
(483,333,l),
(490,376,l,{
name = hr00;
})
);
}
);
};
layerId = master01;
shapes = (
{
closed = 1;
nodes = (
(483,333,l),
(490,376,l,{
name = hr00;
}),
(97,376,l),
(89,333,l)
);
},
{
alignment = -1;
ref = T;
}
);
width = 541;
}
);
unicode = 358;
},
{
glyphname = Tcaron;
kernLeft = T;
kernRight = T;
lastChange = "2023-02-24 13:23:56 +0000";
layers = (
{
background = {
shapes = (
{
closed = 1;
nodes = (
(339,37,o),
(300,51,o),
(267,59,c),
(328,350,l),
(381,657,l),
(583,638,l),
(597,658,o),
(609,675,o),
(616,696,c),
(610,713,l),
(575,704,o),
(545,700,o),
(501,700,cs,{
name = hr01;
}),
(75,700,l),
(70,684,l),
(78,660,o),
(91,642,o),
(108,623,c),
(142,637,o),
(200,660,o),
(236,660,cs),
(314,660,l),
(249,350,l),
(199,59,l),
(162,49,o),
(127,37,o),
(94,26,c),
(102,0,l),
(365,0,l),
(371,22,l)
);
},
{
closed = 1;
nodes = (
(348,742,o),
(356,741,o),
(364,741,cs),
(372,741,o),
(380,742,o),
(388,744,c),
(469,849,o),
(530,908,o),
(530,908,c),
(511,925,l),
(491,911,o),
(423,866,o),
(372,821,c),
(334,881,o),
(305,911,o),
(293,925,c),
(274,911,l),
(274,911,o),
(299,856,o),
(340,744,c,{
name = hr00;
})
);
}
);
};
layerId = master01;
shapes = (
{
ref = T;
},
{
pos = (218,0);
ref = caroncomb.case;
}
);
width = 541;
}
);
unicode = 356;
},
{
glyphname = Tcedilla;
kernLeft = T;
kernRight = T;
lastChange = "2023-02-24 13:23:56 +0000";
layers = (
{
background = {
shapes = (
{
closed = 1;
nodes = (
(339,37,o),
(300,51,o),
(267,59,c),
(328,350,l),
(381,657,l),
(583,638,l),
(597,658,o),
(609,675,o),
(616,696,c),
(610,713,l),
(575,704,o),
(545,700,o),
(501,700,cs,{
name = hr01;
}),
(75,700,l),
(70,684,l),
(78,660,o),
(91,642,o),
(108,623,c),
(142,637,o),
(200,660,o),
(236,660,cs),
(314,660,l),
(249,350,l),
(199,59,l),
(162,49,o),
(127,37,o),
(94,26,c),
(102,0,l),
(365,0,l),
(371,22,l)
);
},
{
closed = 1;
nodes = (
(203,-214,o),
(274,-168,o),
(274,-110,cs),
(274,-68,o),
(230,-61,o),
(230,-27,c),
(238,0,l),
(211,0,l),
(191,-47,l),
(191,-67,o),
(207,-78,o),
(207,-111,cs),
(207,-158,o),
(166,-198,o),
(131,-220,c),
(142,-237,l,{
name = hr00;
})
);
}
);
};
layerId = master01;
shapes = (
{
ref = T;
},
{
pos = (23,0);
ref = cedillacomb;
}
);
width = 541;
}
);
unicode = 354;
},
{
glyphname = Tcommaaccent;
kernLeft = T;
kernRight = T;
lastChange = "2023-02-24 13:23:56 +0000";
layers = (
{
background = {
shapes = (
{
closed = 1;
nodes = (
(339,37,o),
(300,51,o),
(267,59,c),
(328,350,l),
(381,657,l),
(583,638,l),
(597,658,o),
(609,675,o),
(616,696,c),
(610,713,l),
(575,704,o),
(545,700,o),
(501,700,cs,{
name = hr01;
}),
(75,700,l),
(70,684,l),
(78,660,o),
(91,642,o),
(108,623,c),
(142,637,o),
(200,660,o),
(236,660,cs),
(314,660,l),
(249,350,l),
(199,59,l),
(162,49,o),
(127,37,o),
(94,26,c),
(102,0,l),
(365,0,l),
(371,22,l)
);
},
{
closed = 1;
nodes = (
(172,-86,o),
(177,-109,o),
(177,-130,cs),
(177,-176,o),
(158,-211,o),
(132,-255,c),
(154,-271,l),
(184,-241,o),
(248,-167,o),
(261,-111,c),
(261,-75,o),
(249,-50,o),
(219,-50,cs),
(202,-50,o),
(175,-57,o),
(163,-61,c,{
name = hr00;
})
);
}
);
};
layerId = master01;
shapes = (
{
ref = T;
},
{
pos = (101,0);
ref = commaaccentcomb;
}
);
width = 541;
}
);
unicode = 538;
},
{
glyphname = U;
kernLeft = U;
kernRight = U;
lastChange = "2023-02-24 13:23:56 +0000";
layers = (
{
anchors = (
{
name = bottom;
pos = (308,0);
},
{
name = ogonek;
pos = (455,26);
},
{
name = top;
pos = (452,700);
},
{
name = topright;
pos = (773,700);
}
);
background = {
shapes = (
{
closed = 1;
nodes = (
(127,664,o),
(157,651,o),
(184,643,c),
(102,218,ls),
(97,195,o),
(95,174,o),
(95,155,cs),
(95,37,o),
(177,-12,o),
(310,-12,cs),
(460,-12,o),
(569,82,o),
(595,218,cs),
(677,641,l),
(703,649,o),
(732,663,o),
(758,678,c),
(752,700,l),
(549,700,l),
(541,674,l),
(567,663,o),
(594,652,o),
(622,642,c),
(539,216,ls),
(522,127,o),
(449,43,o),
(323,43,cs),
(215,43,o),
(170,94,o),
(170,170,cs),
(170,184,o),
(172,199,o),
(175,215,cs),
(258,644,l),
(286,653,o),
(313,663,o),
(339,674,c),
(331,700,l),
(108,700,l),
(102,678,l,{
name = hr00;
})
);
}
);
};
layerId = master01;
shapes = (
{
closed = 1;
nodes = (
(460,-12,o),
(569,82,o),
(595,218,cs),
(677,641,l),
(703,649,o),
(732,663,o),
(758,678,c),
(752,700,l),
(549,700,l),
(541,674,l),
(567,663,o),
(594,652,o),
(622,642,c),
(539,216,ls),
(522,127,o),
(449,43,o),
(323,43,cs),
(215,43,o),
(170,94,o),
(170,170,cs),
(170,184,o),
(172,199,o),
(175,215,cs),
(258,644,l),
(286,653,o),
(313,663,o),
(339,674,c),
(331,700,l),
(108,700,l),
(102,678,l,{
name = hr00;
}),
(127,664,o),
(157,651,o),
(184,643,c),
(102,218,ls),
(98,195,o),
(95,174,o),
(95,155,cs),
(95,37,o),
(177,-12,o),
(310,-12,cs)
);
}
);
width = 703;
}
);
unicode = 85;
},
{
glyphname = Uacute;
kernLeft = U;
kernRight = U;
lastChange = "2023-02-24 13:23:56 +0000";
layers = (
{
background = {
shapes = (
{
closed = 1;
nodes = (
(127,664,o),
(157,651,o),
(184,643,c),
(102,218,ls),
(97,195,o),
(95,174,o),
(95,155,cs),
(95,37,o),
(177,-12,o),
(310,-12,cs),
(460,-12,o),
(569,82,o),
(595,218,cs),
(677,641,l),
(703,649,o),
(732,663,o),
(758,678,c),
(752,700,l),
(549,700,l),
(541,674,l),
(567,663,o),
(594,652,o),
(622,642,c),
(539,216,ls),
(522,127,o),
(449,43,o),
(323,43,cs),
(215,43,o),
(170,94,o),
(170,170,cs),
(170,184,o),
(172,199,o),
(175,215,cs),
(258,644,l),
(286,653,o),
(313,663,o),
(339,674,c),
(331,700,l),
(108,700,l),
(102,678,l,{
name = hr00;
})
);
},
{
closed = 1;
nodes = (
(422,777,o),
(512,807,o),
(574,850,c),
(583,867,l),
(583,888,o),
(568,920,o),
(558,930,c),
(472,854,o),
(381,787,o),
(381,787,c),
(392,768,l,{
name = hr00;
})
);
}
);
};
layerId = master01;
shapes = (
{
ref = U;
},
{
pos = (344,0);
ref = acutecomb.case;
}
);
width = 703;
}
);
unicode = 218;
},
{
glyphname = Ubreve;
kernLeft = U;
kernRight = U;
lastChange = "2023-02-24 13:23:56 +0000";
layers = (
{
background = {
shapes = (
{
closed = 1;
nodes = (
(127,664,o),
(157,651,o),
(184,643,c),
(102,218,ls),
(97,195,o),
(95,174,o),
(95,155,cs),
(95,37,o),
(177,-12,o),
(310,-12,cs),
(460,-12,o),
(569,82,o),
(595,218,cs),
(677,641,l),
(703,649,o),
(732,663,o),
(758,678,c),
(752,700,l),
(549,700,l),
(541,674,l),
(567,663,o),
(594,652,o),
(622,642,c),
(539,216,ls),
(522,127,o),
(449,43,o),
(323,43,cs),
(215,43,o),
(170,94,o),
(170,170,cs),
(170,184,o),
(172,199,o),
(175,215,cs),
(258,644,l),
(286,653,o),
(313,663,o),
(339,674,c),
(331,700,l),
(108,700,l),
(102,678,l,{
name = hr00;
})
);
},
{
closed = 1;
nodes = (
(419,837,o),
(399,871,o),
(389,924,c),
(358,917,l),
(369,824,o),
(389,773,o),
(443,773,cs),
(497,773,o),
(534,824,o),
(580,917,c),
(550,924,l),
(520,871,o),
(488,837,o),
(454,837,cs,{
name = hr00;
})
);
}
);
};
layerId = master01;
shapes = (
{
ref = U;
},
{
pos = (271,0);
ref = brevecomb.case;
}
);
width = 703;
}
);
unicode = 364;
},
{
glyphname = Ucircumflex;
kernLeft = U;
kernRight = U;
lastChange = "2023-02-24 13:23:56 +0000";
layers = (
{
background = {
shapes = (
{
closed = 1;
nodes = (
(127,664,o),
(157,651,o),
(184,643,c),
(102,218,ls),
(97,195,o),
(95,174,o),
(95,155,cs),
(95,37,o),
(177,-12,o),
(310,-12,cs),
(460,-12,o),
(569,82,o),
(595,218,cs),
(677,641,l),
(703,649,o),
(732,663,o),
(758,678,c),
(752,700,l),
(549,700,l),
(541,674,l),
(567,663,o),
(594,652,o),
(622,642,c),
(539,216,ls),
(522,127,o),
(449,43,o),
(323,43,cs),
(215,43,o),
(170,94,o),
(170,170,cs),
(170,184,o),
(172,199,o),
(175,215,cs),
(258,644,l),
(286,653,o),
(313,663,o),
(339,674,c),
(331,700,l),
(108,700,l),
(102,678,l,{
name = hr00;
})
);
},
{
closed = 1;
nodes = (
(513,931,o),
(505,932,o),
(497,932,cs),
(489,932,o),
(481,931,o),
(473,929,c),
(406,837,o),
(355,785,o),
(355,785,c),
(374,768,l),
(391,779,o),
(447,818,o),
(489,852,c),
(521,808,o),
(546,779,o),
(556,768,c),
(575,782,l),
(575,782,o),
(555,830,o),
(521,929,c,{
name = hr00;
})
);
}
);
};
layerId = master01;
shapes = (
{
ref = U;
},
{
pos = (284,0);
ref = circumflexcomb.case;
}
);
width = 703;
}
);
unicode = 219;
},
{
glyphname = Udieresis;
kernLeft = U;
kernRight = U;
lastChange = "2023-02-24 13:23:56 +0000";
layers = (
{
background = {
shapes = (
{
closed = 1;
nodes = (
(127,664,o),
(157,651,o),
(184,643,c),
(102,218,ls),
(97,195,o),
(95,174,o),
(95,155,cs),
(95,37,o),
(177,-12,o),
(310,-12,cs),
(460,-12,o),
(569,82,o),
(595,218,cs),
(677,641,l),
(703,649,o),
(732,663,o),
(758,678,c),
(752,700,l),
(549,700,l),
(541,674,l),
(567,663,o),
(594,652,o),
(622,642,c),
(539,216,ls),
(522,127,o),
(449,43,o),
(323,43,cs),
(215,43,o),
(170,94,o),
(170,170,cs),
(170,184,o),
(172,199,o),
(175,215,cs),
(258,644,l),
(286,653,o),
(313,663,o),
(339,674,c),
(331,700,l),
(108,700,l),
(102,678,l,{
name = hr00;
})
);
},
{
closed = 1;
nodes = (
(556,903,o),
(524,896,o),
(524,896,c),
(524,896,o),
(505,852,o),
(505,820,cs),
(505,802,o),
(511,788,o),
(531,788,cs),
(550,788,o),
(580,797,o),
(580,797,c),
(581,797,o),
(599,840,o),
(599,869,cs),
(599,888,o),
(592,903,o),
(574,903,cs,{
name = hr00;
})
);
},
{
closed = 1;
nodes = (
(420,903,o),
(388,896,o),
(388,896,c),
(388,896,o),
(369,852,o),
(369,820,cs),
(369,802,o),
(375,788,o),
(395,788,cs),
(414,788,o),
(444,797,o),
(444,797,c),
(445,797,o),
(463,840,o),
(463,869,cs),
(463,888,o),
(456,903,o),
(438,903,cs)
);
}
);
};
layerId = master01;
shapes = (
{
ref = U;
},
{
pos = (297,0);
ref = dieresiscomb.case;
}
);
width = 703;
}
);
unicode = 220;
},
{
glyphname = Ugrave;
kernLeft = U;
kernRight = U;
lastChange = "2023-02-24 13:23:56 +0000";
layers = (
{
background = {
shapes = (
{
closed = 1;
nodes = (
(127,664,o),
(157,651,o),
(184,643,c),
(102,218,ls),
(97,195,o),
(95,174,o),
(95,155,cs),
(95,37,o),
(177,-12,o),
(310,-12,cs),
(460,-12,o),
(569,82,o),
(595,218,cs),
(677,641,l),
(703,649,o),
(732,663,o),
(758,678,c),
(752,700,l),
(549,700,l),
(541,674,l),
(567,663,o),
(594,652,o),
(622,642,c),
(539,216,ls),
(522,127,o),
(449,43,o),
(323,43,cs),
(215,43,o),
(170,94,o),
(170,170,cs),
(170,184,o),
(172,199,o),
(175,215,cs),
(258,644,l),
(286,653,o),
(313,663,o),
(339,674,c),
(331,700,l),
(108,700,l),
(102,678,l,{
name = hr00;
})
);
},
{
closed = 1;
nodes = (
(560,799,o),
(469,866,o),
(383,942,c),
(373,932,o),
(358,900,o),
(358,879,c),
(367,862,l),
(429,819,o),
(519,789,o),
(549,780,c),
(560,799,l,{
name = hr00;
})
);
}
);
};
layerId = master01;
shapes = (
{
ref = U;
},
{
pos = (411,0);
ref = gravecomb.case;
}
);
width = 703;
}
);
unicode = 217;
},
{
glyphname = Uhungarumlaut;
kernLeft = U;
kernRight = U;
lastChange = "2023-02-24 13:23:56 +0000";
layers = (
{
background = {
shapes = (
{
closed = 1;
nodes = (
(127,664,o),
(157,651,o),
(184,643,c),
(102,218,ls),
(97,195,o),
(95,174,o),
(95,155,cs),
(95,37,o),
(177,-12,o),
(310,-12,cs),
(460,-12,o),
(569,82,o),
(595,218,cs),
(677,641,l),
(703,649,o),
(732,663,o),
(758,678,c),
(752,700,l),
(549,700,l),
(541,674,l),
(567,663,o),
(594,652,o),
(622,642,c),
(539,216,ls),
(522,127,o),
(449,43,o),
(323,43,cs),
(215,43,o),
(170,94,o),
(170,170,cs),
(170,184,o),
(172,199,o),
(175,215,cs),
(258,644,l),
(286,653,o),
(313,663,o),
(339,674,c),
(331,700,l),
(108,700,l),
(102,678,l,{
name = hr00;
})
);
},
{
closed = 1;
nodes = (
(493,777,o),
(583,807,o),
(645,850,c),
(654,867,l),
(654,888,o),
(639,920,o),
(629,930,c),
(543,854,o),
(452,787,o),
(452,787,c),
(463,768,l,{
name = hr00;
})
);
},
{
closed = 1;
nodes = (
(303,777,o),
(393,807,o),
(455,850,c),
(464,867,l),
(464,888,o),
(449,920,o),
(439,930,c),
(353,854,o),
(262,787,o),
(262,787,c),
(273,768,l)
);
}
);
};
layerId = master01;
shapes = (
{
ref = U;
},
{
pos = (259,0);
ref = hungarumlautcomb.case;
}
);
width = 703;
}
);
unicode = 368;
},
{
glyphname = Umacron;
kernLeft = U;
kernRight = U;
lastChange = "2023-02-24 13:23:56 +0000";
layers = (
{
background = {
shapes = (
{
closed = 1;
nodes = (
(127,664,o),
(157,651,o),
(184,643,c),
(102,218,ls),
(97,195,o),
(95,174,o),
(95,155,cs),
(95,37,o),
(177,-12,o),
(310,-12,cs),
(460,-12,o),
(569,82,o),
(595,218,cs),
(677,641,l),
(703,649,o),
(732,663,o),
(758,678,c),
(752,700,l),
(549,700,l),
(541,674,l),
(567,663,o),
(594,652,o),
(622,642,c),
(539,216,ls),
(522,127,o),
(449,43,o),
(323,43,cs),
(215,43,o),
(170,94,o),
(170,170,cs),
(170,184,o),
(172,199,o),
(175,215,cs),
(258,644,l),
(286,653,o),
(313,663,o),
(339,674,c),
(331,700,l),
(108,700,l),
(102,678,l,{
name = hr00;
})
);
},
{
closed = 1;
nodes = (
(597,805,l),
(607,862,l),
(340,862,l),
(330,805,l,{
name = hr00;
})
);
}
);
};
layerId = master01;
shapes = (
{
ref = U;
},
{
pos = (226,0);
ref = macroncomb.case;
}
);
width = 703;
}
);
unicode = 362;
},
{
glyphname = Uogonek;
kernLeft = U;
kernRight = U;
lastChange = "2023-02-24 13:23:56 +0000";
layers = (
{
background = {
shapes = (
{
closed = 1;
nodes = (
(127,664,o),
(157,651,o),
(184,643,c),
(102,218,ls),
(97,195,o),
(95,174,o),
(95,155,cs),
(95,37,o),
(177,-12,o),
(310,-12,cs),
(460,-12,o),
(569,82,o),
(595,218,cs),
(677,641,l),
(703,649,o),
(732,663,o),
(758,678,c),
(752,700,l),
(549,700,l),
(541,674,l),
(567,663,o),
(594,652,o),
(622,642,c),
(539,216,ls),
(522,127,o),
(449,43,o),
(323,43,cs),
(215,43,o),
(170,94,o),
(170,170,cs),
(170,184,o),
(172,199,o),
(175,215,cs),
(258,644,l),
(286,653,o),
(313,663,o),
(339,674,c),
(331,700,l),
(108,700,l),
(102,678,l,{
name = hr00;
})
);
},
{
closed = 1;
nodes = (
(273,-23,o),
(211,-89,o),
(211,-161,cs),
(211,-202,o),
(236,-233,o),
(288,-233,cs),
(332,-233,o),
(380,-211,o),
(419,-165,c),
(400,-147,l),
(380,-172,o),
(343,-190,o),
(312,-190,cs),
(287,-190,o),
(267,-177,o),
(267,-142,cs),
(267,-101,o),
(312,-30,o),
(380,9,c),
(370,26,l,{
name = hr00;
})
);
}
);
};
layerId = master01;
shapes = (
{
ref = U;
},
{
pos = (77,0);
ref = ogonekcomb;
}
);
width = 703;
}
);
unicode = 370;
},
{
glyphname = Uring;
kernLeft = U;
kernRight = U;
lastChange = "2023-02-24 13:23:56 +0000";
layers = (
{
background = {
shapes = (
{
closed = 1;
nodes = (
(127,664,o),
(157,651,o),
(184,643,c),
(102,218,ls),
(97,195,o),
(95,174,o),
(95,155,cs),
(95,37,o),
(177,-12,o),
(310,-12,cs),
(460,-12,o),
(569,82,o),
(595,218,cs),
(677,641,l),
(703,649,o),
(732,663,o),
(758,678,c),
(752,700,l),
(549,700,l),
(541,674,l),
(567,663,o),
(594,652,o),
(622,642,c),
(539,216,ls),
(522,127,o),
(449,43,o),
(323,43,cs),
(215,43,o),
(170,94,o),
(170,170,cs),
(170,184,o),
(172,199,o),
(175,215,cs),
(258,644,l),
(286,653,o),
(313,663,o),
(339,674,c),
(331,700,l),
(108,700,l),
(102,678,l,{
name = hr00;
})
);
},
{
closed = 1;
nodes = (
(563,914,o),
(529,936,o),
(485,936,cs),
(428,936,o),
(374,897,o),
(374,827,cs),
(374,782,o),
(405,760,o),
(450,760,cs),
(515,760,o),
(563,808,o),
(563,869,cs,{
name = hr00;
})
);
},
{
closed = 1;
nodes = (
(501,903,o),
(516,889,o),
(516,863,cs),
(516,814,o),
(486,793,o),
(459,793,cs),
(437,793,o),
(421,806,o),
(421,832,cs),
(421,881,o),
(452,903,o),
(479,903,cs)
);
}
);
};
layerId = master01;
shapes = (
{
ref = U;
},
{
pos = (293,0);
ref = ringcomb.case;
}
);
width = 703;
}
);
unicode = 366;
},
{
glyphname = Utilde;
kernLeft = U;
kernRight = U;
lastChange = "2023-02-24 13:23:56 +0000";
layers = (
{
background = {
shapes = (
{
closed = 1;
nodes = (
(127,664,o),
(157,651,o),
(184,643,c),
(102,218,ls),
(97,195,o),
(95,174,o),
(95,155,cs),
(95,37,o),
(177,-12,o),
(310,-12,cs),
(460,-12,o),
(569,82,o),
(595,218,cs),
(677,641,l),
(703,649,o),
(732,663,o),
(758,678,c),
(752,700,l),
(549,700,l),
(541,674,l),
(567,663,o),
(594,652,o),
(622,642,c),
(539,216,ls),
(522,127,o),
(449,43,o),
(323,43,cs),
(215,43,o),
(170,94,o),
(170,170,cs),
(170,184,o),
(172,199,o),
(175,215,cs),
(258,644,l),
(286,653,o),
(313,663,o),
(339,674,c),
(331,700,l),
(108,700,l),
(102,678,l,{
name = hr00;
})
);
},
{
closed = 1;
nodes = (
(574,863,o),
(552,857,o),
(531,857,cs),
(490,857,o),
(452,886,o),
(412,886,cs),
(382,886,o),
(350,869,o),
(316,812,c),
(335,795,l),
(358,818,o),
(380,824,o),
(402,824,cs),
(442,824,o),
(481,795,o),
(521,795,cs),
(551,795,o),
(582,811,o),
(617,869,c),
(598,886,l,{
name = hr00;
})
);
}
);
};
layerId = master01;
shapes = (
{
ref = U;
},
{
pos = (203,0);
ref = tildecomb.case;
}
);
width = 703;
}
);
unicode = 360;
},
{
glyphname = V;
kernLeft = V;
kernRight = V;
lastChange = "2023-02-24 13:23:56 +0000";
layers = (
{
anchors = (
{
name = bottom;
pos = (247,0);
},
{
name = top;
pos = (381,700);
}
);
background = {
shapes = (
{
closed = 1;
nodes = (
(66,700,l),
(60,678,l),
(78,666,o),
(97,656,o),
(124,646,c),
(226,-8,l),
(283,0,l),
(437,234,o),
(565,534,o),
(617,694,c),
(596,707,l),
(587,707,o),
(553,700,o),
(505,655,c),
(495,531,l),
(448,382,o),
(345,178,o),
(284,89,c),
(196,700,l,{
name = hr00;
})
);
}
);
};
layerId = master01;
shapes = (
{
closed = 1;
nodes = (
(283,0,l),
(437,234,o),
(565,534,o),
(617,694,c),
(596,707,l),
(587,707,o),
(553,700,o),
(505,655,c),
(495,531,l),
(448,382,o),
(345,178,o),
(284,89,c),
(196,700,l,{
name = hr00;
}),
(66,700,l),
(60,678,l),
(78,666,o),
(97,656,o),
(124,646,c),
(226,-8,l)
);
}
);
width = 582;
}
);
unicode = 86;
},
{
glyphname = W;
kernLeft = V;
kernRight = V;
lastChange = "2023-02-24 13:23:56 +0000";
layers = (
{
anchors = (
{
name = bottom;
pos = (385,0);
},
{
name = top;
pos = (519,700);
}
);
background = {
shapes = (
{
closed = 1;
nodes = (
(71,700,l),
(65,678,l),
(83,666,o),
(102,656,o),
(129,646,c),
(182,-8,l),
(240,0,l),
(326,144,o),
(404,310,o),
(463,454,c),
(505,-8,l),
(559,0,l),
(713,234,o),
(841,534,o),
(893,694,c),
(872,707,l),
(863,707,o),
(829,700,o),
(781,655,c),
(771,531,l),
(724,382,o),
(627,191,o),
(566,102,c),
(541,363,o),
(530,516,o),
(521,602,c),
(534,636,o),
(545,667,o),
(554,694,c),
(533,707,l),
(524,707,o),
(492,700,o),
(444,655,c),
(455,550,l),
(401,403,o),
(310,216,o),
(246,102,c),
(203,700,l,{
name = hr00;
})
);
}
);
};
layerId = master01;
shapes = (
{
closed = 1;
nodes = (
(240,0,l),
(326,144,o),
(404,310,o),
(463,454,c),
(505,-8,l),
(559,0,l),
(713,234,o),
(841,534,o),
(893,694,c),
(872,707,l),
(863,707,o),
(829,700,o),
(781,655,c),
(771,531,l),
(724,382,o),
(627,191,o),
(566,102,c),
(541,363,o),
(530,516,o),
(521,602,c),
(534,636,o),
(545,667,o),
(554,694,c),
(533,707,l),
(524,707,o),
(492,700,o),
(444,655,c),
(455,550,l),
(401,403,o),
(310,216,o),
(246,102,c),
(203,700,l,{
name = hr00;
}),
(71,700,l),
(65,678,l),
(83,666,o),
(102,656,o),
(129,646,c),
(182,-8,l)
);
}
);
width = 858;
}
);
unicode = 87;
},
{
glyphname = Wacute;
kernLeft = V;
kernRight = V;
lastChange = "2023-02-24 13:23:56 +0000";
layers = (
{
background = {
shapes = (
{
closed = 1;
nodes = (
(71,700,l),
(65,678,l),
(83,666,o),
(102,656,o),
(129,646,c),
(182,-8,l),
(240,0,l),
(326,144,o),
(404,310,o),
(463,454,c),
(505,-8,l),
(559,0,l),
(713,234,o),
(841,534,o),
(893,694,c),
(872,707,l),
(863,707,o),
(829,700,o),
(781,655,c),
(771,531,l),
(724,382,o),
(627,191,o),
(566,102,c),
(541,363,o),
(530,516,o),
(521,602,c),
(534,636,o),
(545,667,o),
(554,694,c),
(533,707,l),
(524,707,o),
(492,700,o),
(444,655,c),
(455,550,l),
(401,403,o),
(310,216,o),
(246,102,c),
(203,700,l,{
name = hr00;
})
);
},
{
closed = 1;
nodes = (
(471,777,o),
(561,807,o),
(623,850,c),
(632,867,l),
(632,888,o),
(617,920,o),
(607,930,c),
(521,854,o),
(430,787,o),
(430,787,c),
(441,768,l,{
name = hr00;
})
);
}
);
};
layerId = master01;
shapes = (
{
ref = W;
},
{
pos = (411,0);
ref = acutecomb.case;
}
);
width = 858;
}
);
unicode = 7810;
},
{
glyphname = Wcircumflex;
kernLeft = V;
kernRight = V;
lastChange = "2023-02-24 13:23:56 +0000";
layers = (
{
background = {
shapes = (
{
closed = 1;
nodes = (
(71,700,l),
(65,678,l),
(83,666,o),
(102,656,o),
(129,646,c),
(182,-8,l),
(240,0,l),
(326,144,o),
(404,310,o),
(463,454,c),
(505,-8,l),
(559,0,l),
(713,234,o),
(841,534,o),
(893,694,c),
(872,707,l),
(863,707,o),
(829,700,o),
(781,655,c),
(771,531,l),
(724,382,o),
(627,191,o),
(566,102,c),
(541,363,o),
(530,516,o),
(521,602,c),
(534,636,o),
(545,667,o),
(554,694,c),
(533,707,l),
(524,707,o),
(492,700,o),
(444,655,c),
(455,550,l),
(401,403,o),
(310,216,o),
(246,102,c),
(203,700,l,{
name = hr00;
})
);
},
{
closed = 1;
nodes = (
(577,931,o),
(569,932,o),
(561,932,cs),
(553,932,o),
(545,931,o),
(537,929,c),
(470,837,o),
(419,785,o),
(419,785,c),
(438,768,l),
(455,779,o),
(511,818,o),
(553,852,c),
(585,808,o),
(610,779,o),
(620,768,c),
(639,782,l),
(639,782,o),
(619,830,o),
(585,929,c,{
name = hr00;
})
);
}
);
};
layerId = master01;
shapes = (
{
ref = W;
},
{
pos = (351,0);
ref = circumflexcomb.case;
}
);
width = 858;
}
);
unicode = 372;
},
{
glyphname = Wdieresis;
kernLeft = V;
kernRight = V;
lastChange = "2023-02-24 13:23:56 +0000";
layers = (
{
background = {
shapes = (
{
closed = 1;
nodes = (
(71,700,l),
(65,678,l),
(83,666,o),
(102,656,o),
(129,646,c),
(182,-8,l),
(240,0,l),
(326,144,o),
(404,310,o),
(463,454,c),
(505,-8,l),
(559,0,l),
(713,234,o),
(841,534,o),
(893,694,c),
(872,707,l),
(863,707,o),
(829,700,o),
(781,655,c),
(771,531,l),
(724,382,o),
(627,191,o),
(566,102,c),
(541,363,o),
(530,516,o),
(521,602,c),
(534,636,o),
(545,667,o),
(554,694,c),
(533,707,l),
(524,707,o),
(492,700,o),
(444,655,c),
(455,550,l),
(401,403,o),
(310,216,o),
(246,102,c),
(203,700,l,{
name = hr00;
})
);
},
{
closed = 1;
nodes = (
(619,903,o),
(587,896,o),
(587,896,c),
(587,896,o),
(568,852,o),
(568,820,cs),
(568,802,o),
(574,788,o),
(594,788,cs),
(613,788,o),
(643,797,o),
(643,797,c),
(644,797,o),
(662,840,o),
(662,869,cs),
(662,888,o),
(655,903,o),
(637,903,cs,{
name = hr00;
})
);
},
{
closed = 1;
nodes = (
(483,903,o),
(451,896,o),
(451,896,c),
(451,896,o),
(432,852,o),
(432,820,cs),
(432,802,o),
(438,788,o),
(458,788,cs),
(477,788,o),
(507,797,o),
(507,797,c),
(508,797,o),
(526,840,o),
(526,869,cs),
(526,888,o),
(519,903,o),
(501,903,cs)
);
}
);
};
layerId = master01;
shapes = (
{
ref = W;
},
{
pos = (364,0);
ref = dieresiscomb.case;
}
);
width = 858;
}
);
unicode = 7812;
},
{
glyphname = Wgrave;
kernLeft = V;
kernRight = V;
lastChange = "2023-02-24 13:23:56 +0000";
layers = (
{
background = {
shapes = (
{
closed = 1;
nodes = (
(71,700,l),
(65,678,l),
(83,666,o),
(102,656,o),
(129,646,c),
(182,-8,l),
(240,0,l),
(326,144,o),
(404,310,o),
(463,454,c),
(505,-8,l),
(559,0,l),
(713,234,o),
(841,534,o),
(893,694,c),
(872,707,l),
(863,707,o),
(829,700,o),
(781,655,c),
(771,531,l),
(724,382,o),
(627,191,o),
(566,102,c),
(541,363,o),
(530,516,o),
(521,602,c),
(534,636,o),
(545,667,o),
(554,694,c),
(533,707,l),
(524,707,o),
(492,700,o),
(444,655,c),
(455,550,l),
(401,403,o),
(310,216,o),
(246,102,c),
(203,700,l,{
name = hr00;
})
);
},
{
closed = 1;
nodes = (
(634,799,o),
(543,866,o),
(457,942,c),
(447,932,o),
(432,900,o),
(432,879,c),
(441,862,l),
(503,819,o),
(593,789,o),
(623,780,c),
(634,799,l,{
name = hr00;
})
);
}
);
};
layerId = master01;
shapes = (
{
ref = W;
},
{
pos = (478,0);
ref = gravecomb.case;
}
);
width = 858;
}
);
unicode = 7808;
},
{
glyphname = X;
lastChange = "2023-02-24 13:23:56 +0000";
layers = (
{
anchors = (
{
name = bottom;
pos = (274,0);
},
{
name = top;
pos = (408,700);
}
);
background = {
shapes = (
{
closed = 1;
nodes = (
(131,665,o),
(158,653,o),
(183,645,c),
(315,343,l),
(83,61,l),
(54,50,o),
(26,38,o),
(0,26,c),
(8,0,l),
(152,0,l),
(156,51,l),
(164,72,o),
(181,96,o),
(188,105,cs),
(337,293,l),
(441,54,l),
(414,45,o),
(389,36,o),
(365,26,c),
(373,0,l),
(596,0,l),
(602,22,l),
(577,35,o),
(549,47,o),
(523,56,c),
(394,352,l),
(674,692,l),
(662,704,l),
(655,705,o),
(648,705,o),
(641,705,cs),
(633,705,o),
(590,705,o),
(553,693,c),
(543,634,o),
(533,600,o),
(522,587,cs),
(373,399,l),
(266,645,l),
(294,654,o),
(320,663,o),
(345,674,c),
(337,700,l),
(114,700,l),
(108,678,l,{
name = hr00;
})
);
}
);
};
layerId = master01;
shapes = (
{
closed = 1;
nodes = (
(152,0,l),
(156,51,l),
(164,72,o),
(181,96,o),
(188,105,cs),
(337,293,l),
(441,54,l),
(414,45,o),
(389,36,o),
(365,26,c),
(373,0,l),
(596,0,l),
(602,22,l),
(577,35,o),
(549,47,o),
(523,56,c),
(394,352,l),
(674,692,l),
(662,704,l),
(655,705,o),
(648,705,o),
(641,705,cs),
(633,705,o),
(590,705,o),
(553,693,c),
(543,634,o),
(533,600,o),
(522,587,cs),
(373,399,l),
(266,645,l),
(294,654,o),
(320,663,o),
(345,674,c),
(337,700,l),
(114,700,l),
(108,678,l,{
name = hr00;
}),
(131,665,o),
(158,653,o),
(183,645,c),
(315,343,l),
(83,61,l),
(54,50,o),
(26,38,o),
(0,26,c),
(8,0,l)
);
}
);
width = 635;
}
);
unicode = 88;
},
{
glyphname = Y;
kernLeft = V;
kernRight = V;
lastChange = "2023-02-24 13:23:56 +0000";
layers = (
{
anchors = (
{
name = bottom;
pos = (212,0);
},
{
name = top;
pos = (346,700);
},
{
name = topleft;
pos = (110,700);
}
);
background = {
shapes = (
{
closed = 1;
nodes = (
(337,37,o),
(299,51,o),
(266,59,c),
(305,264,l),
(413,409,o),
(513,593,o),
(552,694,c),
(531,707,l),
(522,707,o),
(488,700,o),
(440,655,c),
(426,534,l),
(378,447,o),
(342,389,o),
(289,309,c),
(172,700,l),
(52,700,l),
(46,678,l),
(64,666,o),
(83,656,o),
(110,646,c),
(233,271,l),
(196,58,l),
(159,48,o),
(124,37,o),
(92,26,c),
(100,0,l),
(363,0,l),
(369,22,l,{
name = hr00;
})
);
}
);
};
layerId = master01;
shapes = (
{
closed = 1;
nodes = (
(363,0,l),
(369,22,l,{
name = hr00;
}),
(337,37,o),
(299,51,o),
(266,59,c),
(305,264,l),
(413,409,o),
(513,593,o),
(552,694,c),
(531,707,l),
(522,707,o),
(488,700,o),
(440,655,c),
(426,534,l),
(378,447,o),
(342,389,o),
(289,309,c),
(172,700,l),
(52,700,l),
(46,678,l),
(64,666,o),
(83,656,o),
(110,646,c),
(233,271,l),
(196,58,l),
(159,48,o),
(124,37,o),
(92,26,c),
(100,0,l)
);
}
);
width = 511;
}
);
unicode = 89;
},
{
glyphname = Yacute;
kernLeft = V;
kernRight = V;
lastChange = "2023-02-24 13:23:56 +0000";
layers = (
{
background = {
shapes = (
{
closed = 1;
nodes = (
(355,37,o),
(317,51,o),
(284,59,c),
(323,264,l),
(431,409,o),
(531,593,o),
(570,694,c),
(549,707,l),
(540,707,o),
(506,700,o),
(458,655,c),
(444,534,l),
(396,447,o),
(360,389,o),
(307,309,c),
(190,700,l),
(70,700,l),
(64,678,l),
(82,666,o),
(101,656,o),
(128,646,c),
(251,271,l),
(214,58,l),
(177,48,o),
(142,37,o),
(110,26,c),
(118,0,l),
(381,0,l),
(387,22,l,{
name = hr00;
})
);
},
{
closed = 1;
nodes = (
(322,777,o),
(412,807,o),
(474,850,c),
(483,867,l),
(483,888,o),
(468,920,o),
(458,930,c),
(372,854,o),
(281,787,o),
(281,787,c),
(292,768,l,{
name = hr00;
})
);
}
);
};
layerId = master01;
shapes = (
{
ref = Y;
},
{
pos = (238,0);
ref = acutecomb.case;
}
);
width = 511;
}
);
unicode = 221;
},
{
glyphname = Ycircumflex;
kernLeft = V;
kernRight = V;
lastChange = "2023-02-24 13:23:56 +0000";
layers = (
{
background = {
shapes = (
{
closed = 1;
nodes = (
(337,37,o),
(299,51,o),
(266,59,c),
(305,264,l),
(413,409,o),
(513,593,o),
(552,694,c),
(531,707,l),
(522,707,o),
(488,700,o),
(440,655,c),
(426,534,l),
(378,447,o),
(342,389,o),
(289,309,c),
(172,700,l),
(52,700,l),
(46,678,l),
(64,666,o),
(83,656,o),
(110,646,c),
(233,271,l),
(196,58,l),
(159,48,o),
(124,37,o),
(92,26,c),
(100,0,l),
(363,0,l),
(369,22,l,{
name = hr00;
})
);
},
{
closed = 1;
nodes = (
(397,931,o),
(389,932,o),
(381,932,cs),
(373,932,o),
(365,931,o),
(357,929,c),
(290,837,o),
(239,785,o),
(239,785,c),
(258,768,l),
(275,779,o),
(331,818,o),
(373,852,c),
(405,808,o),
(430,779,o),
(440,768,c),
(459,782,l),
(459,782,o),
(439,830,o),
(405,929,c,{
name = hr00;
})
);
}
);
};
layerId = master01;
shapes = (
{
ref = Y;
},
{
pos = (178,0);
ref = circumflexcomb.case;
}
);
width = 511;
}
);
unicode = 374;
},
{
glyphname = Ydieresis;
kernLeft = V;
kernRight = V;
lastChange = "2023-02-24 13:23:56 +0000";
layers = (
{
background = {
shapes = (
{
closed = 1;
nodes = (
(355,37,o),
(317,51,o),
(284,59,c),
(323,264,l),
(431,409,o),
(531,593,o),
(570,694,c),
(549,707,l),
(540,707,o),
(506,700,o),
(458,655,c),
(444,534,l),
(396,447,o),
(360,389,o),
(307,309,c),
(190,700,l),
(70,700,l),
(64,678,l),
(82,666,o),
(101,656,o),
(128,646,c),
(251,271,l),
(214,58,l),
(177,48,o),
(142,37,o),
(110,26,c),
(118,0,l),
(381,0,l),
(387,22,l,{
name = hr00;
})
);
},
{
closed = 1;
nodes = (
(447,903,o),
(415,896,o),
(415,896,c),
(415,896,o),
(396,852,o),
(396,820,cs),
(396,802,o),
(402,788,o),
(422,788,cs),
(441,788,o),
(471,797,o),
(471,797,c),
(472,797,o),
(490,840,o),
(490,869,cs),
(490,888,o),
(483,903,o),
(465,903,cs,{
name = hr00;
})
);
},
{
closed = 1;
nodes = (
(311,903,o),
(279,896,o),
(279,896,c),
(279,896,o),
(260,852,o),
(260,820,cs),
(260,802,o),
(266,788,o),
(286,788,cs),
(305,788,o),
(335,797,o),
(335,797,c),
(336,797,o),
(354,840,o),
(354,869,cs),
(354,888,o),
(347,903,o),
(329,903,cs)
);
}
);
};
layerId = master01;
shapes = (
{
ref = Y;
},
{
pos = (191,0);
ref = dieresiscomb.case;
}
);
width = 511;
}
);
unicode = 376;
},
{
glyphname = Ygrave;
kernLeft = V;
kernRight = V;
lastChange = "2023-02-24 13:23:56 +0000";
layers = (
{
background = {
shapes = (
{
closed = 1;
nodes = (
(337,37,o),
(299,51,o),
(266,59,c),
(305,264,l),
(413,409,o),
(513,593,o),
(552,694,c),
(531,707,l),
(522,707,o),
(488,700,o),
(440,655,c),
(426,534,l),
(378,447,o),
(342,389,o),
(289,309,c),
(172,700,l),
(52,700,l),
(46,678,l),
(64,666,o),
(83,656,o),
(110,646,c),
(233,271,l),
(196,58,l),
(159,48,o),
(124,37,o),
(92,26,c),
(100,0,l),
(363,0,l),
(369,22,l,{
name = hr00;
})
);
},
{
closed = 1;
nodes = (
(439,799,o),
(348,866,o),
(262,942,c),
(252,932,o),
(237,900,o),
(237,879,c),
(246,862,l),
(308,819,o),
(398,789,o),
(428,780,c),
(439,799,l,{
name = hr00;
})
);
}
);
};
layerId = master01;
shapes = (
{
ref = Y;
},
{
pos = (305,0);
ref = gravecomb.case;
}
);
width = 511;
}
);
unicode = 7922;
},
{
glyphname = Z;
lastChange = "2023-02-24 13:23:56 +0000";
layers = (
{
anchors = (
{
name = bottom;
pos = (259,0);
},
{
name = center;
pos = (326,350);
},
{
name = top;
pos = (393,700);
}
);
background = {
shapes = (
{
closed = 1;
nodes = (
(-1,-12,l),
(41,8,l),
(202,7,o),
(418,0,o),
(491,-4,c),
(505,14,o),
(516,34,o),
(522,55,c),
(516,72,l),
(452,62,o),
(292,57,o),
(116,55,c),
(622,695,l),
(604,712,l),
(578,696,l),
(390,697,o),
(207,702,o),
(139,713,c),
(133,696,l),
(139,676,o),
(150,657,o),
(164,640,c),
(224,640,o),
(354,640,o),
(483,643,c),
(-13,8,l,{
name = hr00;
})
);
}
);
};
layerId = master01;
shapes = (
{
closed = 1;
nodes = (
(41,8,l),
(202,7,o),
(418,0,o),
(491,-4,c),
(505,14,o),
(516,34,o),
(522,55,c),
(516,72,l),
(452,62,o),
(292,57,o),
(116,55,c),
(622,695,l),
(604,712,l),
(578,696,l),
(390,697,o),
(207,702,o),
(139,713,c),
(133,696,l),
(139,676,o),
(150,657,o),
(164,640,c),
(224,640,o),
(354,640,o),
(483,643,c),
(-13,8,l,{
name = hr00;
}),
(-1,-12,l)
);
}
);
width = 605;
}
);
unicode = 90;
},
{
glyphname = Zacute;
lastChange = "2023-02-24 13:23:56 +0000";
layers = (
{
background = {
shapes = (
{
closed = 1;
nodes = (
(-1,-12,l),
(41,8,l),
(202,7,o),
(418,0,o),
(491,-4,c),
(505,14,o),
(516,34,o),
(522,55,c),
(516,72,l),
(452,62,o),
(292,57,o),
(116,55,c),
(622,695,l),
(604,712,l),
(578,696,l),
(390,697,o),
(207,702,o),
(139,713,c),
(133,696,l),
(139,676,o),
(150,657,o),
(164,640,c),
(224,640,o),
(354,640,o),
(483,643,c),
(-13,8,l,{
name = hr00;
})
);
},
{
closed = 1;
nodes = (
(357,777,o),
(447,807,o),
(509,850,c),
(518,867,l),
(518,888,o),
(503,920,o),
(493,930,c),
(407,854,o),
(316,787,o),
(316,787,c),
(327,768,l,{
name = hr00;
})
);
}
);
};
layerId = master01;
shapes = (
{
ref = Z;
},
{
pos = (285,0);
ref = acutecomb.case;
}
);
width = 605;
}
);
unicode = 377;
},
{
glyphname = Zcaron;
lastChange = "2023-02-24 13:23:56 +0000";
layers = (
{
background = {
shapes = (
{
closed = 1;
nodes = (
(-1,-12,l),
(41,8,l),
(202,7,o),
(418,0,o),
(491,-4,c),
(505,14,o),
(516,34,o),
(522,55,c),
(516,72,l),
(452,62,o),
(292,57,o),
(116,55,c),
(622,695,l),
(604,712,l),
(578,696,l),
(390,697,o),
(207,702,o),
(139,713,c),
(133,696,l),
(139,676,o),
(150,657,o),
(164,640,c),
(224,640,o),
(354,640,o),
(483,643,c),
(-13,8,l,{
name = hr00;
})
);
},
{
closed = 1;
nodes = (
(382,769,o),
(390,768,o),
(398,768,cs),
(406,768,o),
(414,769,o),
(422,771,c),
(489,863,o),
(540,915,o),
(540,915,c),
(521,932,l),
(504,921,o),
(448,882,o),
(406,848,c),
(374,892,o),
(349,921,o),
(339,932,c),
(320,918,l),
(320,918,o),
(340,870,o),
(374,771,c,{
name = hr00;
})
);
}
);
};
layerId = master01;
shapes = (
{
ref = Z;
},
{
pos = (250,0);
ref = caroncomb.case;
}
);
width = 605;
}
);
unicode = 381;
},
{
glyphname = Zdotaccent;
lastChange = "2023-02-24 13:23:56 +0000";
layers = (
{
background = {
shapes = (
{
closed = 1;
nodes = (
(-1,-12,l),
(41,8,l),
(202,7,o),
(418,0,o),
(491,-4,c),
(505,14,o),
(516,34,o),
(522,55,c),
(516,72,l),
(452,62,o),
(292,57,o),
(116,55,c),
(622,695,l),
(604,712,l),
(578,696,l),
(390,697,o),
(207,702,o),
(139,713,c),
(133,696,l),
(139,676,o),
(150,657,o),
(164,640,c),
(224,640,o),
(354,640,o),
(483,643,c),
(-13,8,l,{
name = hr00;
})
);
},
{
closed = 1;
nodes = (
(419,906,o),
(387,899,o),
(387,899,c),
(387,899,o),
(368,855,o),
(368,823,cs),
(368,805,o),
(374,791,o),
(394,791,cs),
(413,791,o),
(443,800,o),
(443,800,c),
(443,800,o),
(462,843,o),
(462,872,cs),
(462,891,o),
(455,906,o),
(437,906,cs,{
name = hr00;
})
);
}
);
};
layerId = master01;
shapes = (
{
ref = Z;
},
{
pos = (231,0);
ref = dotaccentcomb.case;
}
);
width = 605;
}
);
unicode = 379;
},
{
glyphname = a;
kernLeft = a;
lastChange = "2023-02-24 13:23:56 +0000";
layers = (
{
anchors = (
{
name = bottom;
pos = (205,0);
},
{
name = ogonek;
pos = (466,26);
},
{
name = top;
pos = (313,457);
}
);
background = {
shapes = (
{
closed = 1;
nodes = (
(194,439,o),
(35,341,o),
(35,82,cs),
(35,28,o),
(57,-12,o),
(97,-12,cs),
(150,-12,o),
(213,31,o),
(324,213,c),
(310,132,o),
(301,63,o),
(301,23,cs),
(301,-7,o),
(314,-12,o),
(318,-12,c),
(442,7,l),
(448,26,l),
(434,37,o),
(387,50,o),
(358,53,c),
(358,132,o),
(408,348,o),
(458,457,c),
(444,460,o),
(430,461,o),
(417,461,c),
(407,437,l),
(383,445,o),
(331,467,o),
(308,467,c,{
name = hr00;
})
);
},
{
closed = 1;
nodes = (
(102,225,o),
(158,410,o),
(276,410,cs),
(304,410,o),
(331,406,o),
(359,401,c),
(341,308,l),
(224,112,o),
(158,44,o),
(127,44,cs),
(112,44,o),
(102,58,o),
(102,80,cs)
);
}
);
};
layerId = master01;
shapes = (
{
closed = 1;
nodes = (
(150,-12,o),
(213,31,o),
(324,213,c),
(310,132,o),
(301,63,o),
(301,23,cs),
(301,-7,o),
(314,-12,o),
(318,-12,c),
(442,7,l),
(448,26,l),
(434,37,o),
(387,50,o),
(358,53,c),
(358,132,o),
(408,348,o),
(458,457,c),
(444,460,o),
(430,461,o),
(417,461,c),
(407,437,l),
(383,445,o),
(331,467,o),
(308,467,c,{
name = hr00;
}),
(194,439,o),
(35,341,o),
(35,82,cs),
(35,28,o),
(57,-12,o),
(97,-12,cs)
);
},
{
closed = 1;
nodes = (
(112,44,o),
(102,58,o),
(102,80,cs),
(102,225,o),
(158,410,o),
(276,410,cs),
(304,410,o),
(331,406,o),
(359,401,c),
(341,308,l),
(224,112,o),
(158,44,o),
(127,44,cs)
);
}
);
width = 498;
}
);
unicode = 97;
},
{
glyphname = aacute;
kernLeft = a;
lastChange = "2023-02-24 13:23:56 +0000";
layers = (
{
background = {
shapes = (
{
closed = 1;
nodes = (
(194,439,o),
(35,341,o),
(35,82,cs),
(35,28,o),
(57,-12,o),
(97,-12,cs),
(150,-12,o),
(213,31,o),
(324,213,c),
(310,132,o),
(301,63,o),
(301,23,cs),
(301,-7,o),
(314,-12,o),
(318,-12,c),
(442,7,l),
(448,26,l),
(434,37,o),
(387,50,o),
(358,53,c),
(358,132,o),
(408,348,o),
(458,457,c),
(444,460,o),
(430,461,o),
(417,461,c),
(407,437,l),
(383,445,o),
(331,467,o),
(308,467,c,{
name = hr00;
})
);
},
{
closed = 1;
nodes = (
(102,225,o),
(158,410,o),
(276,410,cs),
(304,410,o),
(331,406,o),
(359,401,c),
(341,308,l),
(224,112,o),
(158,44,o),
(127,44,cs),
(112,44,o),
(102,58,o),
(102,80,cs)
);
},
{
closed = 1;
nodes = (
(315,519,o),
(394,571,o),
(443,628,c),
(447,647,l),
(442,667,o),
(419,694,o),
(407,702,c),
(343,606,o),
(273,518,o),
(273,518,c),
(288,502,l,{
name = hr00;
})
);
}
);
};
layerId = master01;
shapes = (
{
ref = a;
},
{
pos = (200,0);
ref = acutecomb;
}
);
width = 498;
}
);
unicode = 225;
},
{
glyphname = abreve;
kernLeft = a;
lastChange = "2023-02-24 13:23:56 +0000";
layers = (
{
background = {
shapes = (
{
closed = 1;
nodes = (
(194,439,o),
(35,341,o),
(35,82,cs),
(35,28,o),
(57,-12,o),
(97,-12,cs),
(150,-12,o),
(213,31,o),
(324,213,c),
(310,132,o),
(301,63,o),
(301,23,cs),
(301,-7,o),
(314,-12,o),
(318,-12,c),
(442,7,l),
(448,26,l),
(434,37,o),
(387,50,o),
(358,53,c),
(358,132,o),
(408,348,o),
(458,457,c),
(444,460,o),
(430,461,o),
(417,461,c),
(407,437,l),
(383,445,o),
(331,467,o),
(308,467,c,{
name = hr00;
})
);
},
{
closed = 1;
nodes = (
(102,225,o),
(158,410,o),
(276,410,cs),
(304,410,o),
(331,406,o),
(359,401,c),
(341,308,l),
(224,112,o),
(158,44,o),
(127,44,cs),
(112,44,o),
(102,58,o),
(102,80,cs)
);
},
{
closed = 1;
nodes = (
(275,576,o),
(255,610,o),
(245,663,c),
(214,656,l),
(225,563,o),
(245,512,o),
(299,512,cs),
(353,512,o),
(390,563,o),
(436,656,c),
(406,663,l),
(376,610,o),
(344,576,o),
(310,576,cs,{
name = hr00;
})
);
}
);
};
layerId = master01;
shapes = (
{
ref = a;
},
{
pos = (129,0);
ref = brevecomb;
}
);
width = 498;
}
);
unicode = 259;
},
{
glyphname = acircumflex;
kernLeft = a;
lastChange = "2023-02-24 13:23:56 +0000";
layers = (
{
background = {
shapes = (
{
closed = 1;
nodes = (
(194,439,o),
(35,341,o),
(35,82,cs),
(35,28,o),
(57,-12,o),
(97,-12,cs),
(150,-12,o),
(213,31,o),
(324,213,c),
(310,132,o),
(301,63,o),
(301,23,cs),
(301,-7,o),
(314,-12,o),
(318,-12,c),
(442,7,l),
(448,26,l),
(434,37,o),
(387,50,o),
(358,53,c),
(358,132,o),
(408,348,o),
(458,457,c),
(444,460,o),
(430,461,o),
(417,461,c),
(407,437,l),
(383,445,o),
(331,467,o),
(308,467,c,{
name = hr00;
})
);
},
{
closed = 1;
nodes = (
(102,225,o),
(158,410,o),
(276,410,cs),
(304,410,o),
(331,406,o),
(359,401,c),
(341,308,l),
(224,112,o),
(158,44,o),
(127,44,cs),
(112,44,o),
(102,58,o),
(102,80,cs)
);
},
{
closed = 1;
nodes = (
(377,687,o),
(369,688,o),
(361,688,cs),
(353,688,o),
(345,686,o),
(337,685,c),
(256,580,o),
(195,521,o),
(195,521,c),
(214,504,l),
(234,518,o),
(302,563,o),
(353,608,c),
(391,548,o),
(420,518,o),
(432,504,c),
(451,518,l),
(451,518,o),
(426,573,o),
(385,685,c,{
name = hr00;
})
);
}
);
};
layerId = master01;
shapes = (
{
ref = a;
},
{
pos = (147,0);
ref = circumflexcomb;
}
);
width = 498;
}
);
unicode = 226;
},
{
glyphname = adieresis;
kernLeft = a;
lastChange = "2023-02-24 13:23:56 +0000";
layers = (
{
background = {
shapes = (
{
closed = 1;
nodes = (
(194,439,o),
(35,341,o),
(35,82,cs),
(35,28,o),
(57,-12,o),
(97,-12,cs),
(150,-12,o),
(213,31,o),
(324,213,c),
(310,132,o),
(301,63,o),
(301,23,cs),
(301,-7,o),
(314,-12,o),
(318,-12,c),
(442,7,l),
(448,26,l),
(434,37,o),
(387,50,o),
(358,53,c),
(358,132,o),
(408,348,o),
(458,457,c),
(444,460,o),
(430,461,o),
(417,461,c),
(407,437,l),
(383,445,o),
(331,467,o),
(308,467,c,{
name = hr00;
})
);
},
{
closed = 1;
nodes = (
(102,225,o),
(158,410,o),
(276,410,cs),
(304,410,o),
(331,406,o),
(359,401,c),
(341,308,l),
(224,112,o),
(158,44,o),
(127,44,cs),
(112,44,o),
(102,58,o),
(102,80,cs)
);
},
{
closed = 1;
nodes = (
(408,659,o),
(376,652,o),
(376,652,c),
(376,652,o),
(357,608,o),
(357,576,cs),
(357,558,o),
(363,544,o),
(383,544,cs),
(402,544,o),
(432,553,o),
(432,553,c),
(433,553,o),
(451,596,o),
(451,625,cs),
(451,644,o),
(444,659,o),
(426,659,cs,{
name = hr00;
})
);
},
{
closed = 1;
nodes = (
(272,659,o),
(240,652,o),
(240,652,c),
(240,652,o),
(221,608,o),
(221,576,cs),
(221,558,o),
(227,544,o),
(247,544,cs),
(266,544,o),
(296,553,o),
(296,553,c),
(297,553,o),
(315,596,o),
(315,625,cs),
(315,644,o),
(308,659,o),
(290,659,cs)
);
}
);
};
layerId = master01;
shapes = (
{
ref = a;
},
{
pos = (157,0);
ref = dieresiscomb;
}
);
width = 498;
}
);
unicode = 228;
},
{
glyphname = agrave;
kernLeft = a;
lastChange = "2023-02-24 13:23:56 +0000";
layers = (
{
background = {
shapes = (
{
closed = 1;
nodes = (
(194,439,o),
(35,341,o),
(35,82,cs),
(35,28,o),
(57,-12,o),
(97,-12,cs),
(150,-12,o),
(213,31,o),
(324,213,c),
(310,132,o),
(301,63,o),
(301,23,cs),
(301,-7,o),
(314,-12,o),
(318,-12,c),
(442,7,l),
(448,26,l),
(434,37,o),
(387,50,o),
(358,53,c),
(358,132,o),
(408,348,o),
(458,457,c),
(444,460,o),
(430,461,o),
(417,461,c),
(407,437,l),
(383,445,o),
(331,467,o),
(308,467,c,{
name = hr00;
})
);
},
{
closed = 1;
nodes = (
(102,225,o),
(158,410,o),
(276,410,cs),
(304,410,o),
(331,406,o),
(359,401,c),
(341,308,l),
(224,112,o),
(158,44,o),
(127,44,cs),
(112,44,o),
(102,58,o),
(102,80,cs)
);
},
{
closed = 1;
nodes = (
(374,530,o),
(304,618,o),
(240,714,c),
(228,706,o),
(205,679,o),
(200,659,c),
(204,640,l),
(253,583,o),
(332,531,o),
(359,514,c),
(374,530,l,{
name = hr00;
})
);
}
);
};
layerId = master01;
shapes = (
{
ref = a;
},
{
pos = (276,0);
ref = gravecomb;
}
);
width = 498;
}
);
unicode = 224;
},
{
glyphname = amacron;
kernLeft = a;
lastChange = "2023-02-24 13:23:56 +0000";
layers = (
{
background = {
shapes = (
{
closed = 1;
nodes = (
(194,439,o),
(35,341,o),
(35,82,cs),
(35,28,o),
(57,-12,o),
(97,-12,cs),
(150,-12,o),
(213,31,o),
(324,213,c),
(310,132,o),
(301,63,o),
(301,23,cs),
(301,-7,o),
(314,-12,o),
(318,-12,c),
(442,7,l),
(448,26,l),
(434,37,o),
(387,50,o),
(358,53,c),
(358,132,o),
(408,348,o),
(458,457,c),
(444,460,o),
(430,461,o),
(417,461,c),
(407,437,l),
(383,445,o),
(331,467,o),
(308,467,c,{
name = hr00;
})
);
},
{
closed = 1;
nodes = (
(102,225,o),
(158,410,o),
(276,410,cs),
(304,410,o),
(331,406,o),
(359,401,c),
(341,308,l),
(224,112,o),
(158,44,o),
(127,44,cs),
(112,44,o),
(102,58,o),
(102,80,cs)
);
},
{
closed = 1;
nodes = (
(453,561,l),
(463,618,l),
(196,618,l),
(186,561,l,{
name = hr00;
})
);
}
);
};
layerId = master01;
shapes = (
{
ref = a;
},
{
pos = (87,0);
ref = macroncomb;
}
);
width = 498;
}
);
unicode = 257;
},
{
glyphname = aogonek;
kernLeft = a;
lastChange = "2023-02-24 13:23:56 +0000";
layers = (
{
background = {
shapes = (
{
closed = 1;
nodes = (
(194,439,o),
(35,341,o),
(35,82,cs),
(35,28,o),
(57,-12,o),
(97,-12,cs),
(150,-12,o),
(213,31,o),
(324,213,c),
(310,132,o),
(301,63,o),
(301,23,cs),
(301,-7,o),
(314,-12,o),
(318,-12,c),
(442,7,l),
(448,26,l),
(434,37,o),
(387,50,o),
(358,53,c),
(358,132,o),
(408,348,o),
(458,457,c),
(444,460,o),
(430,461,o),
(417,461,c),
(407,437,l),
(383,445,o),
(331,467,o),
(308,467,c,{
name = hr00;
})
);
},
{
closed = 1;
nodes = (
(102,225,o),
(158,410,o),
(276,410,cs),
(304,410,o),
(331,406,o),
(359,401,c),
(341,308,l),
(224,112,o),
(158,44,o),
(127,44,cs),
(112,44,o),
(102,58,o),
(102,80,cs)
);
},
{
closed = 1;
nodes = (
(284,-23,o),
(222,-89,o),
(222,-161,cs),
(222,-202,o),
(247,-233,o),
(299,-233,cs),
(343,-233,o),
(391,-211,o),
(430,-165,c),
(411,-147,l),
(391,-172,o),
(354,-190,o),
(323,-190,cs),
(298,-190,o),
(278,-177,o),
(278,-142,cs),
(278,-101,o),
(323,-30,o),
(391,9,c),
(381,26,l,{
name = hr00;
})
);
}
);
};
layerId = master01;
shapes = (
{
ref = a;
},
{
pos = (88,0);
ref = ogonekcomb;
}
);
width = 498;
}
);
unicode = 261;
},
{
glyphname = aring;
kernLeft = a;
lastChange = "2023-02-24 13:23:56 +0000";
layers = (
{
background = {
shapes = (
{
closed = 1;
nodes = (
(194,439,o),
(35,341,o),
(35,82,cs),
(35,28,o),
(57,-12,o),
(97,-12,cs),
(150,-12,o),
(213,31,o),
(324,213,c),
(310,132,o),
(301,63,o),
(301,23,cs),
(301,-7,o),
(314,-12,o),
(318,-12,c),
(442,7,l),
(448,26,l),
(434,37,o),
(387,50,o),
(358,53,c),
(358,132,o),
(408,348,o),
(458,457,c),
(444,460,o),
(430,461,o),
(417,461,c),
(407,437,l),
(383,445,o),
(331,467,o),
(308,467,c,{
name = hr00;
})
);
},
{
closed = 1;
nodes = (
(102,225,o),
(158,410,o),
(276,410,cs),
(304,410,o),
(331,406,o),
(359,401,c),
(341,308,l),
(224,112,o),
(158,44,o),
(127,44,cs),
(112,44,o),
(102,58,o),
(102,80,cs)
);
},
{
closed = 1;
nodes = (
(436,657,o),
(402,679,o),
(358,679,cs),
(301,679,o),
(247,640,o),
(247,570,cs),
(247,525,o),
(278,503,o),
(323,503,cs),
(388,503,o),
(436,551,o),
(436,612,cs,{
name = hr00;
})
);
},
{
closed = 1;
nodes = (
(374,646,o),
(389,632,o),
(389,606,cs),
(389,557,o),
(359,536,o),
(332,536,cs),
(310,536,o),
(294,549,o),
(294,575,cs),
(294,624,o),
(325,646,o),
(352,646,cs)
);
}
);
};
layerId = master01;
shapes = (
{
ref = a;
},
{
pos = (151,0);
ref = ringcomb;
}
);
width = 498;
}
);
unicode = 229;
},
{
glyphname = aringacute;
kernLeft = a;
lastChange = "2023-02-24 13:23:56 +0000";
layers = (
{
background = {
shapes = (
{
closed = 1;
nodes = (
(194,439,o),
(35,341,o),
(35,82,cs),
(35,28,o),
(57,-12,o),
(97,-12,cs),
(150,-12,o),
(213,31,o),
(324,213,c),
(310,132,o),
(301,63,o),
(301,23,cs),
(301,-7,o),
(314,-12,o),
(318,-12,c),
(442,7,l),
(448,26,l),
(434,37,o),
(387,50,o),
(358,53,c),
(358,132,o),
(408,348,o),
(458,457,c),
(444,460,o),
(430,461,o),
(417,461,c),
(407,437,l),
(383,445,o),
(331,467,o),
(308,467,c,{
name = hr00;
})
);
},
{
closed = 1;
nodes = (
(102,225,o),
(158,410,o),
(276,410,cs),
(304,410,o),
(331,406,o),
(359,401,c),
(341,308,l),
(224,112,o),
(158,44,o),
(127,44,cs),
(112,44,o),
(102,58,o),
(102,80,cs)
);
},
{
closed = 1;
nodes = (
(436,657,o),
(402,679,o),
(358,679,cs),
(301,679,o),
(247,640,o),
(247,570,cs),
(247,525,o),
(278,503,o),
(323,503,cs),
(388,503,o),
(436,551,o),
(436,612,cs,{
name = hr00;
})
);
},
{
closed = 1;
nodes = (
(374,646,o),
(389,632,o),
(389,606,cs),
(389,557,o),
(359,536,o),
(332,536,cs),
(310,536,o),
(294,549,o),
(294,575,cs),
(294,624,o),
(325,646,o),
(352,646,cs)
);
},
{
closed = 1;
nodes = (
(361,653,o),
(438,679,o),
(490,716,c),
(498,730,l),
(498,748,o),
(485,775,o),
(477,784,c),
(404,719,o),
(326,662,o),
(326,662,c),
(336,646,l,{
name = hr00;
})
);
}
);
};
layerId = master01;
shapes = (
{
closed = 1;
nodes = (
(388,503,o),
(436,551,o),
(436,612,cs,{
name = hr00;
}),
(436,657,o),
(402,679,o),
(358,679,cs),
(301,679,o),
(247,640,o),
(247,570,cs),
(247,525,o),
(278,503,o),
(323,503,cs)
);
},
{
ref = a;
},
{
closed = 1;
nodes = (
(310,536,o),
(294,549,o),
(294,575,cs),
(294,624,o),
(325,646,o),
(352,646,cs),
(374,646,o),
(389,632,o),
(389,606,cs),
(389,557,o),
(359,536,o),
(332,536,cs)
);
},
{
closed = 1;
nodes = (
(361,653,o),
(438,679,o),
(490,716,c),
(498,730,l),
(498,748,o),
(485,775,o),
(477,784,c),
(404,719,o),
(326,662,o),
(326,662,c),
(336,646,l,{
name = hr00;
})
);
}
);
width = 498;
}
);
unicode = 507;
},
{
glyphname = atilde;
kernLeft = a;
lastChange = "2023-02-24 13:23:56 +0000";
layers = (
{
background = {
shapes = (
{
closed = 1;
nodes = (
(194,439,o),
(35,341,o),
(35,82,cs),
(35,28,o),
(57,-12,o),
(97,-12,cs),
(150,-12,o),
(213,31,o),
(324,213,c),
(310,132,o),
(301,63,o),
(301,23,cs),
(301,-7,o),
(314,-12,o),
(318,-12,c),
(442,7,l),
(448,26,l),
(434,37,o),
(387,50,o),
(358,53,c),
(358,132,o),
(408,348,o),
(458,457,c),
(444,460,o),
(430,461,o),
(417,461,c),
(407,437,l),
(383,445,o),
(331,467,o),
(308,467,c,{
name = hr00;
})
);
},
{
closed = 1;
nodes = (
(102,225,o),
(158,410,o),
(276,410,cs),
(304,410,o),
(331,406,o),
(359,401,c),
(341,308,l),
(224,112,o),
(158,44,o),
(127,44,cs),
(112,44,o),
(102,58,o),
(102,80,cs)
);
},
{
closed = 1;
nodes = (
(449,619,o),
(427,613,o),
(406,613,cs),
(365,613,o),
(327,642,o),
(287,642,cs),
(257,642,o),
(225,625,o),
(191,568,c),
(210,551,l),
(233,574,o),
(255,580,o),
(277,580,cs),
(317,580,o),
(356,551,o),
(396,551,cs),
(426,551,o),
(457,567,o),
(492,625,c),
(473,642,l,{
name = hr00;
})
);
}
);
};
layerId = master01;
shapes = (
{
ref = a;
},
{
pos = (64,0);
ref = tildecomb;
}
);
width = 498;
}
);
unicode = 227;
},
{
glyphname = ae;
kernLeft = a;
lastChange = "2023-02-24 13:23:56 +0000";
layers = (
{
anchors = (
{
name = bottom;
pos = (263,0);
},
{
name = top;
pos = (380,457);
}
);
background = {
shapes = (
{
closed = 1;
nodes = (
(216,98,o),
(160,44,o),
(132,44,cs),
(117,44,o),
(107,58,o),
(107,80,cs),
(107,225,o),
(163,410,o),
(281,410,cs),
(322,410,o),
(359,402,o),
(401,395,c),
(416,436,l),
(395,443,o),
(338,467,o),
(313,467,c),
(199,439,o),
(40,341,o),
(40,82,cs),
(40,28,o),
(62,-12,o),
(102,-12,cs),
(152,-12,o),
(211,26,o),
(309,180,c),
(311,249,l)
);
},
{
closed = 1;
nodes = (
(531,232,o),
(599,315,o),
(599,407,cs),
(599,440,o),
(550,468,o),
(514,468,cs,{
name = hr01;
}),
(452,468,o),
(256,392,o),
(256,122,cs),
(256,44,o),
(290,-12,o),
(355,-12,cs),
(448,-12,o),
(519,80,o),
(550,127,c),
(528,149,l),
(489,92,o),
(427,44,o),
(379,44,cs),
(338,44,o),
(323,74,o),
(323,120,cs),
(323,150,o),
(325,182,o),
(330,212,c),
(441,223,ls)
);
},
{
closed = 1;
nodes = (
(533,325,o),
(483,256,o),
(407,256,cs),
(339,256,l),
(362,345,o),
(408,416,o),
(479,416,cs),
(522,416,o),
(533,412,o),
(533,400,cs)
);
}
);
};
layerId = master01;
shapes = (
{
closed = 1;
nodes = (
(152,-12,o),
(211,26,o),
(309,180,c),
(311,249,l),
(216,98,o),
(160,44,o),
(132,44,cs),
(117,44,o),
(107,58,o),
(107,80,cs),
(107,225,o),
(163,410,o),
(281,410,cs),
(322,410,o),
(359,402,o),
(401,395,c),
(416,436,l),
(395,443,o),
(338,467,o),
(313,467,c),
(199,439,o),
(40,341,o),
(40,82,cs),
(40,28,o),
(62,-12,o),
(102,-12,cs)
);
},
{
closed = 1;
nodes = (
(448,-12,o),
(519,80,o),
(550,127,c),
(528,149,l),
(489,92,o),
(427,44,o),
(379,44,cs),
(338,44,o),
(323,74,o),
(323,120,cs),
(323,150,o),
(325,182,o),
(330,212,c),
(441,223,ls),
(531,232,o),
(599,315,o),
(599,407,cs),
(599,440,o),
(550,468,o),
(514,468,cs,{
name = hr01;
}),
(452,468,o),
(256,392,o),
(256,122,cs),
(256,44,o),
(290,-12,o),
(355,-12,cs)
);
},
{
closed = 1;
nodes = (
(362,345,o),
(408,416,o),
(479,416,cs),
(522,416,o),
(533,412,o),
(533,400,cs),
(533,325,o),
(483,256,o),
(407,256,cs),
(339,256,l)
);
}
);
width = 614;
}
);
unicode = 230;
},
{
glyphname = aeacute;
kernLeft = a;
lastChange = "2023-02-24 13:23:56 +0000";
layers = (
{
background = {
shapes = (
{
closed = 1;
nodes = (
(216,98,o),
(160,44,o),
(132,44,cs),
(117,44,o),
(107,58,o),
(107,80,cs),
(107,225,o),
(163,410,o),
(281,410,cs),
(322,410,o),
(359,402,o),
(401,395,c),
(416,436,l),
(395,443,o),
(338,467,o),
(313,467,c),
(199,439,o),
(40,341,o),
(40,82,cs),
(40,28,o),
(62,-12,o),
(102,-12,cs),
(152,-12,o),
(211,26,o),
(309,180,c),
(311,249,l)
);
},
{
closed = 1;
nodes = (
(531,232,o),
(599,315,o),
(599,407,cs),
(599,440,o),
(550,468,o),
(514,468,cs,{
name = hr01;
}),
(452,468,o),
(256,392,o),
(256,122,cs),
(256,44,o),
(290,-12,o),
(355,-12,cs),
(448,-12,o),
(519,80,o),
(550,127,c),
(528,149,l),
(489,92,o),
(427,44,o),
(379,44,cs),
(338,44,o),
(323,74,o),
(323,120,cs),
(323,150,o),
(325,182,o),
(330,212,c),
(441,223,ls)
);
},
{
closed = 1;
nodes = (
(533,325,o),
(483,256,o),
(407,256,cs),
(339,256,l),
(362,345,o),
(408,416,o),
(479,416,cs),
(522,416,o),
(533,412,o),
(533,400,cs)
);
},
{
closed = 1;
nodes = (
(358,519,o),
(437,571,o),
(486,628,c),
(490,647,l),
(485,667,o),
(462,694,o),
(450,702,c),
(386,606,o),
(316,518,o),
(316,518,c),
(331,502,l,{
name = hr00;
})
);
}
);
};
layerId = master01;
shapes = (
{
ref = ae;
},
{
pos = (267,0);
ref = acutecomb;
}
);
width = 614;
}
);
unicode = 509;
},
{
glyphname = b;
kernLeft = h;
lastChange = "2023-02-24 13:27:04 +0000";
layers = (
{
anchors = (
{
name = bottom;
pos = (199,0);
},
{
name = center;
pos = (243,229);
},
{
name = top;
pos = (287,457);
}
);
background = {
shapes = (
{
closed = 1;
nodes = (
(238,757,o),
(233,762,o),
(229,762,cs),
(89,743,l),
(83,724,l),
(100,711,o),
(132,697,o),
(163,694,c),
(163,585,o),
(87,177,o),
(22,27,c),
(83,8,o),
(151,-12,o),
(172,-12,c),
(286,16,o),
(445,114,o),
(445,373,cs),
(445,427,o),
(423,467,o),
(383,467,cs),
(329,467,o),
(265,427,o),
(147,255,c),
(188,434,o),
(238,654,o),
(238,727,cs,{
name = hr00;
})
);
},
{
closed = 1;
nodes = (
(378,230,o),
(322,45,o),
(204,45,cs),
(171,45,o),
(141,50,o),
(110,55,c),
(140,191,l),
(258,355,o),
(322,411,o),
(353,411,cs),
(368,411,o),
(378,397,o),
(378,375,cs)
);
}
);
};
layerId = master01;
shapes = (
{
closed = 1;
nodes = (
(286,16,o),
(445,114,o),
(445,373,cs),
(445,427,o),
(423,467,o),
(383,467,cs),
(329,467,o),
(265,427,o),
(147,255,c),
(188,434,o),
(238,654,o),
(238,727,cs,{
name = hr00;
}),
(238,757,o),
(233,762,o),
(229,762,cs),
(89,743,l),
(83,724,l),
(100,711,o),
(132,697,o),
(163,694,c),
(163,585,o),
(87,177,o),
(22,27,c),
(83,8,o),
(151,-12,o),
(172,-12,c)
);
},
{
closed = 1;
nodes = (
(171,45,o),
(141,50,o),
(110,55,c),
(140,191,l),
(258,355,o),
(322,411,o),
(353,411,cs),
(368,411,o),
(378,397,o),
(378,375,cs),
(378,230,o),
(322,45,o),
(204,45,cs)
);
}
);
width = 485;
}
);
unicode = 98;
},
{
glyphname = c;
kernLeft = a;
lastChange = "2023-02-24 13:23:56 +0000";
layers = (
{
anchors = (
{
name = bottom;
pos = (149,0);
},
{
name = top;
pos = (245,457);
}
);
background = {
shapes = (
{
closed = 1;
nodes = (
(224,-12,o),
(291,80,o),
(319,127,c),
(297,149,l),
(263,92,o),
(207,44,o),
(163,44,cs),
(122,44,o),
(107,74,o),
(107,120,cs),
(107,249,o),
(154,411,o),
(251,411,cs),
(289,411,o),
(322,403,o),
(361,396,c),
(376,442,l),
(357,448,o),
(306,468,o),
(283,468,c),
(181,444,o),
(40,353,o),
(40,122,cs),
(40,44,o),
(74,-12,o),
(139,-12,c,{
name = hr00;
})
);
}
);
};
layerId = master01;
shapes = (
{
closed = 1;
nodes = (
(224,-12,o),
(291,80,o),
(319,127,c),
(297,149,l),
(263,92,o),
(207,44,o),
(163,44,cs),
(122,44,o),
(107,74,o),
(107,120,cs),
(107,249,o),
(154,411,o),
(251,411,cs),
(289,411,o),
(322,403,o),
(361,396,c),
(376,442,l),
(357,448,o),
(306,468,o),
(283,468,c),
(181,444,o),
(40,353,o),
(40,122,cs),
(40,44,o),
(74,-12,o),
(139,-12,c,{
name = hr00;
})
);
}
);
width = 366;
}
);
unicode = 99;
},
{
glyphname = cacute;
kernLeft = a;
lastChange = "2023-02-24 13:23:56 +0000";
layers = (
{
background = {
shapes = (
{
closed = 1;
nodes = (
(224,-12,o),
(291,80,o),
(319,127,c),
(297,149,l),
(263,92,o),
(207,44,o),
(163,44,cs),
(122,44,o),
(107,74,o),
(107,120,cs),
(107,249,o),
(154,411,o),
(251,411,cs),
(289,411,o),
(322,403,o),
(361,396,c),
(376,442,l),
(357,448,o),
(306,468,o),
(283,468,c),
(181,444,o),
(40,353,o),
(40,122,cs),
(40,44,o),
(74,-12,o),
(139,-12,c,{
name = hr00;
})
);
},
{
closed = 1;
nodes = (
(241,519,o),
(320,571,o),
(369,628,c),
(373,647,l),
(368,667,o),
(345,694,o),
(333,702,c),
(269,606,o),
(199,518,o),
(199,518,c),
(214,502,l,{
name = hr00;
})
);
}
);
};
layerId = master01;
shapes = (
{
ref = c;
},
{
pos = (132,0);
ref = acutecomb;
}
);
width = 366;
}
);
unicode = 263;
},
{
glyphname = ccaron;
kernLeft = a;
lastChange = "2023-02-24 13:23:56 +0000";
layers = (
{
background = {
shapes = (
{
closed = 1;
nodes = (
(224,-12,o),
(291,80,o),
(319,127,c),
(297,149,l),
(263,92,o),
(207,44,o),
(163,44,cs),
(122,44,o),
(107,74,o),
(107,120,cs),
(107,249,o),
(154,411,o),
(251,411,cs),
(289,411,o),
(322,403,o),
(361,396,c),
(376,442,l),
(357,448,o),
(306,468,o),
(283,468,c),
(181,444,o),
(40,353,o),
(40,122,cs),
(40,44,o),
(74,-12,o),
(139,-12,c,{
name = hr00;
})
);
},
{
closed = 1;
nodes = (
(233,510,o),
(241,509,o),
(249,509,cs),
(257,509,o),
(265,510,o),
(273,512,c),
(354,617,o),
(415,676,o),
(415,676,c),
(396,693,l),
(376,679,o),
(308,634,o),
(257,589,c),
(219,649,o),
(190,679,o),
(178,693,c),
(159,679,l),
(159,679,o),
(184,624,o),
(225,512,c,{
name = hr00;
})
);
}
);
};
layerId = master01;
shapes = (
{
ref = c;
},
{
pos = (98,0);
ref = caroncomb;
}
);
width = 366;
}
);
unicode = 269;
},
{
glyphname = ccedilla;
kernLeft = a;
lastChange = "2023-02-24 13:23:56 +0000";
layers = (
{
background = {
shapes = (
{
closed = 1;
nodes = (
(224,-12,o),
(291,80,o),
(319,127,c),
(297,149,l),
(263,92,o),
(207,44,o),
(163,44,cs),
(122,44,o),
(107,74,o),
(107,120,cs),
(107,249,o),
(154,411,o),
(251,411,cs),
(289,411,o),
(322,403,o),
(361,396,c),
(376,442,l),
(357,448,o),
(306,468,o),
(283,468,c),
(181,444,o),
(40,353,o),
(40,122,cs),
(40,44,o),
(74,-12,o),
(139,-12,c,{
name = hr00;
})
);
},
{
closed = 1;
nodes = (
(117,-214,o),
(188,-168,o),
(188,-110,cs),
(188,-68,o),
(144,-61,o),
(144,-27,c),
(152,0,l),
(125,0,l),
(105,-47,l),
(105,-67,o),
(121,-78,o),
(121,-111,cs),
(121,-158,o),
(80,-198,o),
(45,-220,c),
(56,-237,l,{
name = hr00;
})
);
}
);
};
layerId = master01;
shapes = (
{
ref = c;
},
{
pos = (-64,0);
ref = cedillacomb;
}
);
width = 366;
}
);
unicode = 231;
},
{
glyphname = ccircumflex;
kernLeft = a;
lastChange = "2023-02-24 13:23:56 +0000";
layers = (
{
background = {
shapes = (
{
closed = 1;
nodes = (
(224,-12,o),
(291,80,o),
(319,127,c),
(297,149,l),
(263,92,o),
(207,44,o),
(163,44,cs),
(122,44,o),
(107,74,o),
(107,120,cs),
(107,249,o),
(154,411,o),
(251,411,cs),
(289,411,o),
(322,403,o),
(361,396,c),
(376,442,l),
(357,448,o),
(306,468,o),
(283,468,c),
(181,444,o),
(40,353,o),
(40,122,cs),
(40,44,o),
(74,-12,o),
(139,-12,c,{
name = hr00;
})
);
},
{
closed = 1;
nodes = (
(322,687,o),
(314,688,o),
(306,688,cs),
(298,688,o),
(290,686,o),
(282,685,c),
(201,580,o),
(140,521,o),
(140,521,c),
(159,504,l),
(179,518,o),
(247,563,o),
(298,608,c),
(336,548,o),
(365,518,o),
(377,504,c),
(396,518,l),
(396,518,o),
(371,573,o),
(330,685,c,{
name = hr00;
})
);
}
);
};
layerId = master01;
shapes = (
{
ref = c;
},
{
pos = (79,0);
ref = circumflexcomb;
}
);
width = 366;
}
);
unicode = 265;
},
{
glyphname = cdotaccent;
kernLeft = a;
lastChange = "2023-02-24 13:23:56 +0000";
layers = (
{
background = {
shapes = (
{
closed = 1;
nodes = (
(224,-12,o),
(291,80,o),
(319,127,c),
(297,149,l),
(263,92,o),
(207,44,o),
(163,44,cs),
(122,44,o),
(107,74,o),
(107,120,cs),
(107,249,o),
(154,411,o),
(251,411,cs),
(289,411,o),
(322,403,o),
(361,396,c),
(376,442,l),
(357,448,o),
(306,468,o),
(283,468,c),
(181,444,o),
(40,353,o),
(40,122,cs),
(40,44,o),
(74,-12,o),
(139,-12,c,{
name = hr00;
})
);
},
{
closed = 1;
nodes = (
(300,662,o),
(268,655,o),
(268,655,c),
(268,655,o),
(249,611,o),
(249,579,cs),
(249,561,o),
(255,547,o),
(275,547,cs),
(294,547,o),
(324,556,o),
(324,556,c),
(325,556,o),
(343,599,o),
(343,628,cs),
(343,647,o),
(336,662,o),
(318,662,cs,{
name = hr00;
})
);
}
);
};
layerId = master01;
shapes = (
{
ref = c;
},
{
pos = (83,0);
ref = dotaccentcomb;
}
);
width = 366;
}
);
unicode = 267;
},
{
glyphname = d;
kernLeft = a;
lastChange = "2023-02-24 13:23:56 +0000";
layers = (
{
anchors = (
{
name = bottom;
pos = (199,0);
},
{
name = center;
pos = (243,229);
},
{
name = top;
pos = (382,958);
},
{
name = topright;
pos = (731,719);
}
);
background = {
shapes = (
{
closed = 1;
nodes = (
(419,688,o),
(395,574,o),
(370,451,c),
(347,459,o),
(322,467,o),
(308,467,c),
(194,439,o),
(35,341,o),
(35,82,cs),
(35,28,o),
(57,-12,o),
(97,-12,cs),
(150,-12,o),
(213,31,o),
(324,213,c),
(310,133,o),
(301,63,o),
(301,23,cs),
(301,-7,o),
(314,-12,o),
(318,-12,c),
(442,7,l),
(448,26,l),
(434,37,o),
(387,50,o),
(358,53,c),
(358,132,o),
(466,644,o),
(516,753,c),
(501,762,l),
(493,762,o),
(462,760,o),
(428,747,c,{
name = hr00;
})
);
},
{
closed = 1;
nodes = (
(102,225,o),
(158,410,o),
(276,410,cs),
(305,410,o),
(332,406,o),
(360,401,c),
(342,308,l),
(224,112,o),
(158,44,o),
(127,44,cs),
(112,44,o),
(102,58,o),
(102,80,cs)
);
}
);
};
layerId = master01;
shapes = (
{
closed = 1;
nodes = (
(150,-12,o),
(213,31,o),
(324,213,c),
(310,133,o),
(301,63,o),
(301,23,cs),
(301,-7,o),
(314,-12,o),
(318,-12,c),
(442,7,l),
(448,26,l),
(434,37,o),
(387,50,o),
(358,53,c),
(358,132,o),
(466,644,o),
(516,753,c),
(501,762,l),
(493,762,o),
(462,760,o),
(428,747,c,{
name = hr00;
}),
(419,688,o),
(395,574,o),
(370,451,c),
(347,459,o),
(322,467,o),
(308,467,c),
(194,439,o),
(35,341,o),
(35,82,cs),
(35,28,o),
(57,-12,o),
(97,-12,cs)
);
},
{
closed = 1;
nodes = (
(112,44,o),
(102,58,o),
(102,80,cs),
(102,225,o),
(158,410,o),
(276,410,cs),
(305,410,o),
(332,406,o),
(360,401,c),
(342,308,l),
(224,112,o),
(158,44,o),
(127,44,cs)
);
}
);
width = 485;
}
);
unicode = 100;
},
{
glyphname = eth;
kernLeft = a;
lastChange = "2023-02-24 13:23:56 +0000";
layers = (
{
background = {
shapes = (
{
closed = 1;
nodes = (
(268,576,l),
(322,509,o),
(360,427,o),
(360,330,cs),
(360,306,o),
(358,281,o),
(353,255,c),
(411,236,l),
(416,265,o),
(419,292,o),
(419,319,cs),
(419,435,o),
(374,529,o),
(315,601,c),
(421,659,l),
(408,695,l),
(285,635,l),
(247,675,o),
(206,706,o),
(168,731,c),
(142,693,l),
(175,669,o),
(208,642,o),
(238,612,c),
(144,566,l),
(160,518,l,{
name = hr00;
})
);
},
{
closed = 1;
nodes = (
(205,468,o),
(30,388,o),
(30,133,cs),
(30,44,o),
(71,-12,o),
(153,-12,cs),
(236,-12,o),
(419,68,o),
(419,323,cs),
(419,412,o),
(378,468,o),
(288,468,cs,{
name = hr00;
})
);
},
{
closed = 1;
nodes = (
(329,426,o),
(355,391,o),
(355,330,cs),
(355,147,o),
(248,36,o),
(158,36,cs),
(115,36,o),
(94,70,o),
(94,130,cs),
(94,314,o),
(187,426,o),
(286,426,cs)
);
}
);
};
layerId = master01;
shapes = (
{
closed = 1;
nodes = (
(416,265,o),
(419,292,o),
(419,319,cs),
(419,435,o),
(374,529,o),
(315,601,c),
(421,659,l),
(408,695,l),
(285,635,l),
(247,675,o),
(206,706,o),
(168,731,c),
(142,693,l),
(175,669,o),
(208,642,o),
(238,612,c),
(144,566,l),
(160,518,l,{
name = hr00;
}),
(268,576,l),
(322,509,o),
(360,427,o),
(360,330,cs),
(360,306,o),
(358,281,o),
(353,255,c),
(411,236,l)
);
},
{
ref = o;
}
);
width = 449;
}
);
unicode = 240;
},
{
glyphname = dcaron;
kernLeft = a;
kernRight = dcaron;
lastChange = "2023-02-24 13:26:25 +0000";
layers = (
{
background = {
shapes = (
{
closed = 1;
nodes = (
(419,688,o),
(395,574,o),
(370,451,c),
(347,459,o),
(322,467,o),
(308,467,c),
(194,439,o),
(35,341,o),
(35,82,cs),
(35,28,o),
(57,-12,o),
(97,-12,cs),
(150,-12,o),
(213,31,o),
(324,213,c),
(310,133,o),
(301,63,o),
(301,23,cs),
(301,-7,o),
(314,-12,o),
(318,-12,c),
(442,7,l),
(448,26,l),
(434,37,o),
(387,50,o),
(358,53,c),
(358,132,o),
(466,644,o),
(516,753,c),
(501,762,l),
(493,762,o),
(462,760,o),
(428,747,c,{
name = hr00;
})
);
},
{
closed = 1;
nodes = (
(102,225,o),
(158,410,o),
(276,410,cs),
(305,410,o),
(332,406,o),
(360,401,c),
(342,308,l),
(224,112,o),
(158,44,o),
(127,44,cs),
(112,44,o),
(102,58,o),
(102,80,cs)
);
},
{
closed = 1;
nodes = (
(572,733,o),
(577,710,o),
(577,689,cs),
(577,643,o),
(558,608,o),
(532,564,c),
(554,548,l),
(584,578,o),
(648,652,o),
(661,708,c),
(661,744,o),
(649,769,o),
(619,769,cs),
(602,769,o),
(575,762,o),
(563,758,c,{
name = hr00;
})
);
}
);
};
layerId = master01;
shapes = (
{
ref = d;
},
{
pos = (436,19);
ref = caroncomb.alt;
}
);
width = 485;
}
);
unicode = 271;
},
{
glyphname = dcroat;
kernLeft = a;
lastChange = "2023-02-24 13:23:56 +0000";
layers = (
{
background = {
shapes = (
{
closed = 1;
nodes = (
(419,688,o),
(395,574,o),
(370,451,c),
(347,459,o),
(322,467,o),
(308,467,c),
(194,439,o),
(35,341,o),
(35,82,cs),
(35,28,o),
(57,-12,o),
(97,-12,cs),
(150,-12,o),
(213,31,o),
(324,213,c),
(310,133,o),
(301,63,o),
(301,23,cs),
(301,-7,o),
(314,-12,o),
(318,-12,c),
(442,7,l),
(448,26,l),
(434,37,o),
(387,50,o),
(358,53,c),
(358,132,o),
(466,644,o),
(516,753,c),
(501,762,l),
(493,762,o),
(462,760,o),
(428,747,c,{
name = hr00;
})
);
},
{
closed = 1;
nodes = (
(102,225,o),
(158,410,o),
(276,410,cs),
(305,410,o),
(332,406,o),
(360,401,c),
(342,308,l),
(224,112,o),
(158,44,o),
(127,44,cs),
(112,44,o),
(102,58,o),
(102,80,cs)
);
},
{
closed = 1;
nodes = (
(240,598,l),
(233,560,l),
(555,560,l),
(562,598,l,{
name = hr00;
})
);
}
);
};
layerId = master01;
shapes = (
{
closed = 1;
nodes = (
(555,560,l),
(562,598,l,{
name = hr00;
}),
(240,598,l),
(233,560,l)
);
},
{
alignment = -1;
ref = d;
}
);
width = 485;
}
);
unicode = 273;
},
{
glyphname = e;
kernLeft = a;
lastChange = "2023-02-24 13:23:56 +0000";
layers = (
{
anchors = (
{
name = bottom;
pos = (155,0);
},
{
name = ogonek;
pos = (291,26);
},
{
name = top;
pos = (273,457);
}
);
background = {
shapes = (
{
closed = 1;
nodes = (
(315,232,o),
(383,315,o),
(383,407,cs),
(383,440,o),
(334,468,o),
(298,468,cs),
(236,468,o),
(40,392,o),
(40,122,cs),
(40,44,o),
(74,-12,o),
(139,-12,cs),
(232,-12,o),
(303,80,o),
(334,127,c),
(312,149,l),
(273,92,o),
(211,44,o),
(163,44,cs),
(122,44,o),
(107,74,o),
(107,120,cs),
(107,150,o),
(109,182,o),
(114,212,c),
(225,223,ls,{
name = hr00;
})
);
},
{
closed = 1;
nodes = (
(317,325,o),
(267,256,o),
(191,256,cs),
(123,256,l),
(146,345,o),
(192,416,o),
(263,416,cs),
(306,416,o),
(317,412,o),
(317,400,cs)
);
}
);
};
layerId = master01;
shapes = (
{
closed = 1;
nodes = (
(232,-12,o),
(303,80,o),
(334,127,c),
(312,149,l),
(273,92,o),
(211,44,o),
(163,44,cs),
(122,44,o),
(107,74,o),
(107,120,cs),
(107,150,o),
(109,182,o),
(114,212,c),
(225,223,ls,{
name = hr00;
}),
(315,232,o),
(383,315,o),
(383,407,cs),
(383,440,o),
(334,468,o),
(298,468,cs),
(236,468,o),
(40,392,o),
(40,122,cs),
(40,44,o),
(74,-12,o),
(139,-12,cs)
);
},
{
closed = 1;
nodes = (
(146,345,o),
(192,416,o),
(263,416,cs),
(306,416,o),
(317,412,o),
(317,400,cs),
(317,325,o),
(267,256,o),
(191,256,cs),
(123,256,l)
);
}
);
width = 398;
}
);
unicode = 101;
},
{
glyphname = eacute;
kernLeft = a;
lastChange = "2023-02-24 13:23:56 +0000";
layers = (
{
background = {
shapes = (
{
closed = 1;
nodes = (
(315,232,o),
(383,315,o),
(383,407,cs),
(383,440,o),
(334,468,o),
(298,468,cs),
(236,468,o),
(40,392,o),
(40,122,cs),
(40,44,o),
(74,-12,o),
(139,-12,cs),
(232,-12,o),
(303,80,o),
(334,127,c),
(312,149,l),
(273,92,o),
(211,44,o),
(163,44,cs),
(122,44,o),
(107,74,o),
(107,120,cs),
(107,150,o),
(109,182,o),
(114,212,c),
(225,223,ls,{
name = hr00;
})
);
},
{
closed = 1;
nodes = (
(317,325,o),
(267,256,o),
(191,256,cs),
(123,256,l),
(146,345,o),
(192,416,o),
(263,416,cs),
(306,416,o),
(317,412,o),
(317,400,cs)
);
},
{
closed = 1;
nodes = (
(272,519,o),
(351,571,o),
(400,628,c),
(404,647,l),
(399,667,o),
(376,694,o),
(364,702,c),
(300,606,o),
(230,518,o),
(230,518,c),
(245,502,l,{
name = hr00;
})
);
}
);
};
layerId = master01;
shapes = (
{
ref = e;
},
{
pos = (160,0);
ref = acutecomb;
}
);
width = 398;
}
);
unicode = 233;
},
{
glyphname = ebreve;
kernLeft = a;
lastChange = "2023-02-24 13:23:56 +0000";
layers = (
{
background = {
shapes = (
{
closed = 1;
nodes = (
(315,232,o),
(383,315,o),
(383,407,cs),
(383,440,o),
(334,468,o),
(298,468,cs),
(236,468,o),
(40,392,o),
(40,122,cs),
(40,44,o),
(74,-12,o),
(139,-12,cs),
(232,-12,o),
(303,80,o),
(334,127,c),
(312,149,l),
(273,92,o),
(211,44,o),
(163,44,cs),
(122,44,o),
(107,74,o),
(107,120,cs),
(107,150,o),
(109,182,o),
(114,212,c),
(225,223,ls,{
name = hr00;
})
);
},
{
closed = 1;
nodes = (
(317,325,o),
(267,256,o),
(191,256,cs),
(123,256,l),
(146,345,o),
(192,416,o),
(263,416,cs),
(306,416,o),
(317,412,o),
(317,400,cs)
);
},
{
closed = 1;
nodes = (
(236,576,o),
(216,610,o),
(206,663,c),
(175,656,l),
(186,563,o),
(206,512,o),
(260,512,cs),
(314,512,o),
(351,563,o),
(397,656,c),
(367,663,l),
(337,610,o),
(305,576,o),
(271,576,cs,{
name = hr00;
})
);
}
);
};
layerId = master01;
shapes = (
{
ref = e;
},
{
pos = (89,0);
ref = brevecomb;
}
);
width = 398;
}
);
unicode = 277;
},
{
glyphname = ecaron;
kernLeft = a;
lastChange = "2023-02-24 13:23:56 +0000";
layers = (
{
background = {
shapes = (
{
closed = 1;
nodes = (
(315,232,o),
(383,315,o),
(383,407,cs),
(383,440,o),
(334,468,o),
(298,468,cs),
(236,468,o),
(40,392,o),
(40,122,cs),
(40,44,o),
(74,-12,o),
(139,-12,cs),
(232,-12,o),
(303,80,o),
(334,127,c),
(312,149,l),
(273,92,o),
(211,44,o),
(163,44,cs),
(122,44,o),
(107,74,o),
(107,120,cs),
(107,150,o),
(109,182,o),
(114,212,c),
(225,223,ls,{
name = hr00;
})
);
},
{
closed = 1;
nodes = (
(317,325,o),
(267,256,o),
(191,256,cs),
(123,256,l),
(146,345,o),
(192,416,o),
(263,416,cs),
(306,416,o),
(317,412,o),
(317,400,cs)
);
},
{
closed = 1;
nodes = (
(241,510,o),
(249,509,o),
(257,509,cs),
(265,509,o),
(273,510,o),
(281,512,c),
(362,617,o),
(423,676,o),
(423,676,c),
(404,693,l),
(384,679,o),
(316,634,o),
(265,589,c),
(227,649,o),
(198,679,o),
(186,693,c),
(167,679,l),
(167,679,o),
(192,624,o),
(233,512,c,{
name = hr00;
})
);
}
);
};
layerId = master01;
shapes = (
{
ref = e;
},
{
pos = (126,0);
ref = caroncomb;
}
);
width = 398;
}
);
unicode = 283;
},
{
glyphname = ecircumflex;
kernLeft = a;
lastChange = "2023-02-24 13:23:56 +0000";
layers = (
{
background = {
shapes = (
{
closed = 1;
nodes = (
(315,232,o),
(383,315,o),
(383,407,cs),
(383,440,o),
(334,468,o),
(298,468,cs),
(236,468,o),
(40,392,o),
(40,122,cs),
(40,44,o),
(74,-12,o),
(139,-12,cs),
(232,-12,o),
(303,80,o),
(334,127,c),
(312,149,l),
(273,92,o),
(211,44,o),
(163,44,cs),
(122,44,o),
(107,74,o),
(107,120,cs),
(107,150,o),
(109,182,o),
(114,212,c),
(225,223,ls,{
name = hr00;
})
);
},
{
closed = 1;
nodes = (
(317,325,o),
(267,256,o),
(191,256,cs),
(123,256,l),
(146,345,o),
(192,416,o),
(263,416,cs),
(306,416,o),
(317,412,o),
(317,400,cs)
);
},
{
closed = 1;
nodes = (
(339,687,o),
(331,688,o),
(323,688,cs),
(315,688,o),
(307,686,o),
(299,685,c),
(218,580,o),
(157,521,o),
(157,521,c),
(176,504,l),
(196,518,o),
(264,563,o),
(315,608,c),
(353,548,o),
(382,518,o),
(394,504,c),
(413,518,l),
(413,518,o),
(388,573,o),
(347,685,c,{
name = hr00;
})
);
}
);
};
layerId = master01;
shapes = (
{
ref = e;
},
{
pos = (107,0);
ref = circumflexcomb;
}
);
width = 398;
}
);
unicode = 234;
},
{
glyphname = edieresis;
kernLeft = a;
lastChange = "2023-02-24 13:23:56 +0000";
layers = (
{
background = {
shapes = (
{
closed = 1;
nodes = (
(315,232,o),
(383,315,o),
(383,407,cs),
(383,440,o),
(334,468,o),
(298,468,cs),
(236,468,o),
(40,392,o),
(40,122,cs),
(40,44,o),
(74,-12,o),
(139,-12,cs),
(232,-12,o),
(303,80,o),
(334,127,c),
(312,149,l),
(273,92,o),
(211,44,o),
(163,44,cs),
(122,44,o),
(107,74,o),
(107,120,cs),
(107,150,o),
(109,182,o),
(114,212,c),
(225,223,ls,{
name = hr00;
})
);
},
{
closed = 1;
nodes = (
(317,325,o),
(267,256,o),
(191,256,cs),
(123,256,l),
(146,345,o),
(192,416,o),
(263,416,cs),
(306,416,o),
(317,412,o),
(317,400,cs)
);
},
{
closed = 1;
nodes = (
(370,659,o),
(338,652,o),
(338,652,c),
(338,652,o),
(319,608,o),
(319,576,cs),
(319,558,o),
(325,544,o),
(345,544,cs),
(364,544,o),
(394,553,o),
(394,553,c),
(395,553,o),
(413,596,o),
(413,625,cs),
(413,644,o),
(406,659,o),
(388,659,cs,{
name = hr00;
})
);
},
{
closed = 1;
nodes = (
(234,659,o),
(202,652,o),
(202,652,c),
(202,652,o),
(183,608,o),
(183,576,cs),
(183,558,o),
(189,544,o),
(209,544,cs),
(228,544,o),
(258,553,o),
(258,553,c),
(259,553,o),
(277,596,o),
(277,625,cs),
(277,644,o),
(270,659,o),
(252,659,cs)
);
}
);
};
layerId = master01;
shapes = (
{
ref = e;
},
{
pos = (117,0);
ref = dieresiscomb;
}
);
width = 398;
}
);
unicode = 235;
},
{
glyphname = edotaccent;
kernLeft = a;
lastChange = "2023-02-24 13:23:56 +0000";
layers = (
{
background = {
shapes = (
{
closed = 1;
nodes = (
(315,232,o),
(383,315,o),
(383,407,cs),
(383,440,o),
(334,468,o),
(298,468,cs),
(236,468,o),
(40,392,o),
(40,122,cs),
(40,44,o),
(74,-12,o),
(139,-12,cs),
(232,-12,o),
(303,80,o),
(334,127,c),
(312,149,l),
(273,92,o),
(211,44,o),
(163,44,cs),
(122,44,o),
(107,74,o),
(107,120,cs),
(107,150,o),
(109,182,o),
(114,212,c),
(225,223,ls,{
name = hr00;
})
);
},
{
closed = 1;
nodes = (
(317,325,o),
(267,256,o),
(191,256,cs),
(123,256,l),
(146,345,o),
(192,416,o),
(263,416,cs),
(306,416,o),
(317,412,o),
(317,400,cs)
);
},
{
closed = 1;
nodes = (
(288,662,o),
(256,655,o),
(256,655,c),
(256,655,o),
(237,611,o),
(237,579,cs),
(237,561,o),
(243,547,o),
(263,547,cs),
(282,547,o),
(312,556,o),
(312,556,c),
(313,556,o),
(331,599,o),
(331,628,cs),
(331,647,o),
(324,662,o),
(306,662,cs,{
name = hr00;
})
);
}
);
};
layerId = master01;
shapes = (
{
ref = e;
},
{
pos = (111,0);
ref = dotaccentcomb;
}
);
width = 398;
}
);
unicode = 279;
},
{
glyphname = egrave;
kernLeft = a;
lastChange = "2023-02-24 13:23:56 +0000";
layers = (
{
background = {
shapes = (
{
closed = 1;
nodes = (
(315,232,o),
(383,315,o),
(383,407,cs),
(383,440,o),
(334,468,o),
(298,468,cs),
(236,468,o),
(40,392,o),
(40,122,cs),
(40,44,o),
(74,-12,o),
(139,-12,cs),
(232,-12,o),
(303,80,o),
(334,127,c),
(312,149,l),
(273,92,o),
(211,44,o),
(163,44,cs),
(122,44,o),
(107,74,o),
(107,120,cs),
(107,150,o),
(109,182,o),
(114,212,c),
(225,223,ls,{
name = hr00;
})
);
},
{
closed = 1;
nodes = (
(317,325,o),
(267,256,o),
(191,256,cs),
(123,256,l),
(146,345,o),
(192,416,o),
(263,416,cs),
(306,416,o),
(317,412,o),
(317,400,cs)
);
},
{
closed = 1;
nodes = (
(359,530,o),
(289,618,o),
(225,714,c),
(213,706,o),
(190,679,o),
(185,659,c),
(189,640,l),
(238,583,o),
(317,531,o),
(344,514,c),
(359,530,l,{
name = hr00;
})
);
}
);
};
layerId = master01;
shapes = (
{
ref = e;
},
{
pos = (236,0);
ref = gravecomb;
}
);
width = 398;
}
);
unicode = 232;
},
{
glyphname = emacron;
kernLeft = a;
lastChange = "2023-02-24 13:23:56 +0000";
layers = (
{
background = {
shapes = (
{
closed = 1;
nodes = (
(315,232,o),
(383,315,o),
(383,407,cs),
(383,440,o),
(334,468,o),
(298,468,cs),
(236,468,o),
(40,392,o),
(40,122,cs),
(40,44,o),
(74,-12,o),
(139,-12,cs),
(232,-12,o),
(303,80,o),
(334,127,c),
(312,149,l),
(273,92,o),
(211,44,o),
(163,44,cs),
(122,44,o),
(107,74,o),
(107,120,cs),
(107,150,o),
(109,182,o),
(114,212,c),
(225,223,ls,{
name = hr00;
})
);
},
{
closed = 1;
nodes = (
(317,325,o),
(267,256,o),
(191,256,cs),
(123,256,l),
(146,345,o),
(192,416,o),
(263,416,cs),
(306,416,o),
(317,412,o),
(317,400,cs)
);
},
{
closed = 1;
nodes = (
(414,561,l),
(424,618,l),
(157,618,l),
(147,561,l,{
name = hr00;
})
);
}
);
};
layerId = master01;
shapes = (
{
ref = e;
},
{
pos = (47,0);
ref = macroncomb;
}
);
width = 398;
}
);
unicode = 275;
},
{
glyphname = eogonek;
kernLeft = a;
lastChange = "2023-02-24 13:23:56 +0000";
layers = (
{
background = {
shapes = (
{
closed = 1;
nodes = (
(315,232,o),
(383,315,o),
(383,407,cs),
(383,440,o),
(334,468,o),
(298,468,cs),
(236,468,o),
(40,392,o),
(40,122,cs),
(40,44,o),
(74,-12,o),
(139,-12,cs),
(232,-12,o),
(303,80,o),
(334,127,c),
(312,149,l),
(273,92,o),
(211,44,o),
(163,44,cs),
(122,44,o),
(107,74,o),
(107,120,cs),
(107,150,o),
(109,182,o),
(114,212,c),
(225,223,ls,{
name = hr00;
})
);
},
{
closed = 1;
nodes = (
(317,325,o),
(267,256,o),
(191,256,cs),
(123,256,l),
(146,345,o),
(192,416,o),
(263,416,cs),
(306,416,o),
(317,412,o),
(317,400,cs)
);
},
{
closed = 1;
nodes = (
(109,-23,o),
(47,-89,o),
(47,-161,cs),
(47,-202,o),
(72,-233,o),
(124,-233,cs),
(168,-233,o),
(216,-211,o),
(255,-165,c),
(236,-147,l),
(216,-172,o),
(179,-190,o),
(148,-190,cs),
(123,-190,o),
(103,-177,o),
(103,-142,cs),
(103,-101,o),
(148,-30,o),
(216,9,c),
(206,26,l,{
name = hr00;
})
);
}
);
};
layerId = master01;
shapes = (
{
ref = e;
},
{
pos = (-87,0);
ref = ogonekcomb;
}
);
width = 398;
}
);
unicode = 281;
},
{
glyphname = f;
kernLeft = h;
kernRight = f;
lastChange = "2023-02-24 13:27:04 +0000";
layers = (
{
anchors = (
{
name = bottom;
pos = (90,0);
},
{
name = top;
pos = (273,958);
}
);
background = {
shapes = (
{
closed = 1;
nodes = (
(359,699,o),
(392,691,o),
(431,684,c),
(448,736,l),
(429,742,o),
(379,762,o),
(355,762,c),
(250,736,o),
(165,663,o),
(127,455,c),
(51,442,l),
(50,437,o),
(49,430,o),
(49,424,cs),
(49,415,o),
(51,408,o),
(60,408,cs),
(119,408,l),
(15,-194,l),
(52,-189,l),
(119,52,l),
(185,408,l),
(295,408,ls),
(308,408,o),
(314,445,o),
(314,451,c),
(193,451,l),
(215,574,o),
(244,699,o),
(321,699,cs,{
name = hr00;
})
);
}
);
};
layerId = master01;
shapes = (
{
closed = 1;
nodes = (
(52,-189,l),
(119,52,l),
(185,408,l),
(295,408,ls),
(308,408,o),
(314,445,o),
(314,451,c),
(193,451,l),
(215,574,o),
(244,699,o),
(321,699,cs,{
name = hr00;
}),
(359,699,o),
(392,691,o),
(431,684,c),
(448,736,l),
(429,742,o),
(379,762,o),
(355,762,c),
(250,736,o),
(165,663,o),
(127,455,c),
(51,442,l),
(50,437,o),
(49,430,o),
(49,424,cs),
(49,415,o),
(51,408,o),
(60,408,cs),
(119,408,l),
(15,-194,l)
);
}
);
width = 268;
}
);
unicode = 102;
},
{
glyphname = g;
kernLeft = a;
lastChange = "2023-02-24 13:23:56 +0000";
layers = (
{
anchors = (
{
name = bottom;
pos = (111,-262);
},
{
name = top;
pos = (249,457);
}
);
background = {
shapes = (
{
closed = 1;
nodes = (
(187,468,o),
(40,412,o),
(40,233,cs),
(40,185,o),
(61,151,o),
(102,137,c),
(81,106,o),
(59,67,o),
(50,33,c),
(50,18,o),
(54,8,o),
(67,0,c),
(15,-31,o),
(-26,-60,o),
(-56,-106,c),
(-56,-197,o),
(-9,-252,o),
(93,-252,cs),
(246,-252,o),
(366,-142,o),
(366,-46,cs),
(366,-8,o),
(341,2,o),
(276,14,cs),
(131,42,ls),
(115,45,o),
(108,50,o),
(108,67,c),
(114,83,o),
(130,111,o),
(143,131,c),
(149,131,ls),
(225,131,o),
(379,187,o),
(379,367,cs,{
name = hr01;
}),
(379,400,o),
(368,427,o),
(345,444,c),
(361,452,o),
(382,454,o),
(420,454,c),
(429,469,l),
(429,474,o),
(427,497,o),
(414,522,c),
(383,521,o),
(351,509,o),
(315,460,c),
(300,465,o),
(282,468,o),
(262,468,cs)
);
},
{
closed = 1;
nodes = (
(287,433,o),
(312,407,o),
(312,362,cs),
(312,243,o),
(242,171,o),
(167,171,cs),
(128,171,o),
(107,197,o),
(107,241,cs),
(107,360,o),
(169,433,o),
(250,433,cs)
);
},
{
closed = 1;
nodes = (
(289,-48,o),
(294,-57,o),
(294,-69,cs,{
name = hr02;
}),
(294,-138,o),
(198,-204,o),
(105,-204,cs),
(33,-204,o),
(11,-160,o),
(11,-106,cs),
(11,-99,o),
(20,-77,o),
(100,-11,c),
(246,-40,ls)
);
}
);
};
layerId = master01;
shapes = (
{
closed = 1;
nodes = (
(246,-252,o),
(366,-142,o),
(366,-46,cs),
(366,-8,o),
(341,2,o),
(276,14,cs),
(131,42,ls),
(115,45,o),
(108,50,o),
(108,67,c),
(114,83,o),
(130,111,o),
(143,131,c),
(149,131,ls),
(225,131,o),
(379,187,o),
(379,367,cs,{
name = hr01;
}),
(379,400,o),
(368,427,o),
(345,444,c),
(361,452,o),
(382,454,o),
(420,454,c),
(429,469,l),
(429,474,o),
(427,497,o),
(414,522,c),
(383,521,o),
(351,509,o),
(315,460,c),
(300,465,o),
(282,468,o),
(262,468,cs),
(187,468,o),
(40,412,o),
(40,233,cs),
(40,185,o),
(61,151,o),
(102,137,c),
(81,106,o),
(59,67,o),
(50,33,c),
(50,18,o),
(54,8,o),
(67,0,c),
(15,-31,o),
(-26,-60,o),
(-56,-106,c),
(-56,-197,o),
(-9,-252,o),
(93,-252,cs)
);
},
{
closed = 1;
nodes = (
(33,-204,o),
(11,-160,o),
(11,-106,cs),
(11,-99,o),
(20,-77,o),
(100,-11,c),
(246,-40,ls),
(289,-48,o),
(294,-57,o),
(294,-69,cs,{
name = hr02;
}),
(294,-138,o),
(198,-204,o),
(105,-204,cs)
);
},
{
closed = 1;
nodes = (
(128,171,o),
(107,197,o),
(107,241,cs),
(107,360,o),
(169,433,o),
(250,433,cs),
(287,433,o),
(312,407,o),
(312,362,cs),
(312,243,o),
(242,171,o),
(167,171,cs)
);
}
);
width = 409;
}
);
unicode = 103;
},
{
glyphname = gbreve;
kernLeft = a;
lastChange = "2023-02-24 13:23:56 +0000";
layers = (
{
background = {
shapes = (
{
closed = 1;
nodes = (
(187,468,o),
(40,412,o),
(40,233,cs),
(40,185,o),
(61,151,o),
(102,137,c),
(81,106,o),
(59,67,o),
(50,33,c),
(50,18,o),
(54,8,o),
(67,0,c),
(15,-31,o),
(-26,-60,o),
(-56,-106,c),
(-56,-197,o),
(-9,-252,o),
(93,-252,cs),
(246,-252,o),
(366,-142,o),
(366,-46,cs),
(366,-8,o),
(341,2,o),
(276,14,cs),
(131,42,ls),
(115,45,o),
(108,50,o),
(108,67,c),
(114,83,o),
(130,111,o),
(143,131,c),
(149,131,ls),
(225,131,o),
(379,187,o),
(379,367,cs,{
name = hr01;
}),
(379,400,o),
(368,427,o),
(345,444,c),
(361,452,o),
(382,454,o),
(420,454,c),
(429,469,l),
(429,474,o),
(427,497,o),
(414,522,c),
(383,521,o),
(351,509,o),
(315,460,c),
(300,465,o),
(282,468,o),
(262,468,cs)
);
},
{
closed = 1;
nodes = (
(287,433,o),
(312,407,o),
(312,362,cs),
(312,243,o),
(242,171,o),
(167,171,cs),
(128,171,o),
(107,197,o),
(107,241,cs),
(107,360,o),
(169,433,o),
(250,433,cs)
);
},
{
closed = 1;
nodes = (
(289,-48,o),
(294,-57,o),
(294,-69,cs,{
name = hr02;
}),
(294,-138,o),
(198,-204,o),
(105,-204,cs),
(33,-204,o),
(11,-160,o),
(11,-106,cs),
(11,-99,o),
(20,-77,o),
(100,-11,c),
(246,-40,ls)
);
},
{
closed = 1;
nodes = (
(232,576,o),
(212,610,o),
(202,663,c),
(171,656,l),
(182,563,o),
(202,512,o),
(256,512,cs),
(310,512,o),
(347,563,o),
(393,656,c),
(363,663,l),
(333,610,o),
(301,576,o),
(267,576,cs,{
name = hr00;
})
);
}
);
};
layerId = master01;
shapes = (
{
ref = g;
},
{
pos = (65,0);
ref = brevecomb;
}
);
width = 409;
}
);
unicode = 287;
},
{
glyphname = gcircumflex;
kernLeft = a;
lastChange = "2023-02-24 13:23:56 +0000";
layers = (
{
background = {
shapes = (
{
closed = 1;
nodes = (
(187,468,o),
(40,412,o),
(40,233,cs),
(40,185,o),
(61,151,o),
(102,137,c),
(81,106,o),
(59,67,o),
(50,33,c),
(50,18,o),
(54,8,o),
(67,0,c),
(15,-31,o),
(-26,-60,o),
(-56,-106,c),
(-56,-197,o),
(-9,-252,o),
(93,-252,cs),
(246,-252,o),
(366,-142,o),
(366,-46,cs),
(366,-8,o),
(341,2,o),
(276,14,cs),
(131,42,ls),
(115,45,o),
(108,50,o),
(108,67,c),
(114,83,o),
(130,111,o),
(143,131,c),
(149,131,ls),
(225,131,o),
(379,187,o),
(379,367,cs,{
name = hr01;
}),
(379,400,o),
(368,427,o),
(345,444,c),
(361,452,o),
(382,454,o),
(420,454,c),
(429,469,l),
(429,474,o),
(427,497,o),
(414,522,c),
(383,521,o),
(351,509,o),
(315,460,c),
(300,465,o),
(282,468,o),
(262,468,cs)
);
},
{
closed = 1;
nodes = (
(287,433,o),
(312,407,o),
(312,362,cs),
(312,243,o),
(242,171,o),
(167,171,cs),
(128,171,o),
(107,197,o),
(107,241,cs),
(107,360,o),
(169,433,o),
(250,433,cs)
);
},
{
closed = 1;
nodes = (
(289,-48,o),
(294,-57,o),
(294,-69,cs,{
name = hr02;
}),
(294,-138,o),
(198,-204,o),
(105,-204,cs),
(33,-204,o),
(11,-160,o),
(11,-106,cs),
(11,-99,o),
(20,-77,o),
(100,-11,c),
(246,-40,ls)
);
},
{
closed = 1;
nodes = (
(319,687,o),
(312,688,o),
(304,688,cs),
(297,688,o),
(290,686,o),
(283,685,c),
(210,580,o),
(155,521,o),
(155,521,c),
(172,504,l),
(190,518,o),
(251,563,o),
(297,608,c),
(331,548,o),
(358,518,o),
(368,504,c),
(385,518,l),
(385,518,o),
(363,573,o),
(326,685,c,{
name = hr00;
})
);
}
);
};
layerId = master01;
shapes = (
{
ref = g;
},
{
pos = (83,0);
ref = circumflexcomb;
}
);
width = 409;
}
);
unicode = 285;
},
{
glyphname = gcommaaccent;
kernLeft = a;
lastChange = "2023-02-24 13:23:56 +0000";
layers = (
{
background = {
shapes = (
{
closed = 1;
nodes = (
(187,468,o),
(40,412,o),
(40,233,cs),
(40,185,o),
(61,151,o),
(102,137,c),
(81,106,o),
(59,67,o),
(50,33,c),
(50,18,o),
(54,8,o),
(67,0,c),
(15,-31,o),
(-26,-60,o),
(-56,-106,c),
(-56,-197,o),
(-9,-252,o),
(93,-252,cs),
(246,-252,o),
(366,-142,o),
(366,-46,cs),
(366,-8,o),
(341,2,o),
(276,14,cs),
(131,42,ls),
(115,45,o),
(108,50,o),
(108,67,c),
(114,83,o),
(130,111,o),
(143,131,c),
(149,131,ls),
(225,131,o),
(379,187,o),
(379,367,cs,{
name = hr01;
}),
(379,400,o),
(368,427,o),
(345,444,c),
(361,452,o),
(382,454,o),
(420,454,c),
(429,469,l),
(429,474,o),
(427,497,o),
(414,522,c),
(383,521,o),
(351,509,o),
(315,460,c),
(300,465,o),
(282,468,o),
(262,468,cs)
);
},
{
closed = 1;
nodes = (
(287,433,o),
(312,407,o),
(312,362,cs),
(312,243,o),
(242,171,o),
(167,171,cs),
(128,171,o),
(107,197,o),
(107,241,cs),
(107,360,o),
(169,433,o),
(250,433,cs)
);
},
{
closed = 1;
nodes = (
(289,-48,o),
(294,-57,o),
(294,-69,cs,{
name = hr02;
}),
(294,-138,o),
(198,-204,o),
(105,-204,cs),
(33,-204,o),
(11,-160,o),
(11,-106,cs),
(11,-99,o),
(20,-77,o),
(100,-11,c),
(246,-40,ls)
);
},
{
closed = 1;
nodes = (
(322,583,o),
(317,606,o),
(317,627,cs),
(317,673,o),
(336,708,o),
(362,752,c),
(340,768,l),
(310,738,o),
(246,664,o),
(233,608,c),
(233,572,o),
(245,547,o),
(275,547,cs),
(292,547,o),
(319,554,o),
(331,558,c,{
name = hr00;
})
);
}
);
};
layerId = master01;
shapes = (
{
ref = g;
},
{
pos = (91,0);
ref = commaturnedabovecomb;
}
);
width = 409;
}
);
unicode = 291;
},
{
glyphname = gdotaccent;
kernLeft = a;
lastChange = "2023-02-24 13:23:56 +0000";
layers = (
{
background = {
shapes = (
{
closed = 1;
nodes = (
(187,468,o),
(40,412,o),
(40,233,cs),
(40,185,o),
(61,151,o),
(102,137,c),
(81,106,o),
(59,67,o),
(50,33,c),
(50,18,o),
(54,8,o),
(67,0,c),
(15,-31,o),
(-26,-60,o),
(-56,-106,c),
(-56,-197,o),
(-9,-252,o),
(93,-252,cs),
(246,-252,o),
(366,-142,o),
(366,-46,cs),
(366,-8,o),
(341,2,o),
(276,14,cs),
(131,42,ls),
(115,45,o),
(108,50,o),
(108,67,c),
(114,83,o),
(130,111,o),
(143,131,c),
(149,131,ls),
(225,131,o),
(379,187,o),
(379,367,cs,{
name = hr01;
}),
(379,400,o),
(368,427,o),
(345,444,c),
(361,452,o),
(382,454,o),
(420,454,c),
(429,469,l),
(429,474,o),
(427,497,o),
(414,522,c),
(383,521,o),
(351,509,o),
(315,460,c),
(300,465,o),
(282,468,o),
(262,468,cs)
);
},
{
closed = 1;
nodes = (
(287,433,o),
(312,407,o),
(312,362,cs),
(312,243,o),
(242,171,o),
(167,171,cs),
(128,171,o),
(107,197,o),
(107,241,cs),
(107,360,o),
(169,433,o),
(250,433,cs)
);
},
{
closed = 1;
nodes = (
(289,-48,o),
(294,-57,o),
(294,-69,cs,{
name = hr02;
}),
(294,-138,o),
(198,-204,o),
(105,-204,cs),
(33,-204,o),
(11,-160,o),
(11,-106,cs),
(11,-99,o),
(20,-77,o),
(100,-11,c),
(246,-40,ls)
);
},
{
closed = 1;
nodes = (
(284,662,o),
(252,655,o),
(252,655,c),
(252,655,o),
(233,611,o),
(233,579,cs),
(233,561,o),
(239,547,o),
(259,547,cs),
(278,547,o),
(308,556,o),
(308,556,c),
(309,556,o),
(327,599,o),
(327,628,cs),
(327,647,o),
(320,662,o),
(302,662,cs,{
name = hr00;
})
);
}
);
};
layerId = master01;
shapes = (
{
ref = g;
},
{
pos = (87,0);
ref = dotaccentcomb;
}
);
width = 409;
}
);
unicode = 289;
},
{
glyphname = h;
kernLeft = h;
lastChange = "2023-02-24 13:27:04 +0000";
layers = (
{
anchors = (
{
name = bottom;
pos = (213,0);
},
{
name = center;
pos = (305,479);
},
{
name = top;
pos = (184,700);
}
);
background = {
shapes = (
{
closed = 1;
nodes = (
(427,269,o),
(443,326,o),
(443,374,cs),
(443,428,o),
(421,468,o),
(381,468,cs),
(328,468,o),
(267,426,o),
(160,253,c),
(202,436,o),
(251,655,o),
(251,727,cs),
(251,757,o),
(246,762,o),
(242,762,cs),
(102,743,l),
(96,724,l),
(113,711,o),
(145,697,o),
(176,694,c),
(176,579,o),
(90,130,o),
(22,-3,c),
(37,-12,l),
(45,-12,o),
(77,-10,o),
(112,3,c),
(149,169,l),
(258,349,o),
(320,412,o),
(351,412,cs),
(366,412,o),
(376,406,o),
(376,378,cs),
(376,305,o),
(334,132,o),
(281,23,c),
(281,-7,o),
(294,-12,o),
(298,-12,c),
(432,8,l),
(438,27,l),
(427,35,o),
(389,48,o),
(363,53,c,{
name = hr00;
})
);
}
);
};
layerId = master01;
shapes = (
{
closed = 1;
nodes = (
(45,-12,o),
(77,-10,o),
(112,3,c),
(149,169,l),
(258,349,o),
(320,412,o),
(351,412,cs),
(366,412,o),
(376,406,o),
(376,378,cs),
(376,305,o),
(334,132,o),
(281,23,c),
(281,-7,o),
(294,-12,o),
(298,-12,c),
(432,8,l),
(438,27,l),
(427,35,o),
(389,48,o),
(363,53,c,{
name = hr00;
}),
(427,269,o),
(443,326,o),
(443,374,cs),
(443,428,o),
(421,468,o),
(381,468,cs),
(328,468,o),
(267,426,o),
(160,253,c),
(202,436,o),
(251,655,o),
(251,727,cs),
(251,757,o),
(246,763,o),
(242,762,cs),
(102,743,l),
(96,724,l),
(113,711,o),
(145,697,o),
(176,694,c),
(176,579,o),
(90,130,o),
(22,-3,c),
(37,-12,l)
);
}
);
width = 513;
}
);
unicode = 104;
},
{
glyphname = hbar;
kernLeft = h;
lastChange = "2023-02-24 13:27:04 +0000";
layers = (
{
background = {
shapes = (
{
closed = 1;
nodes = (
(427,269,o),
(443,326,o),
(443,374,cs),
(443,428,o),
(421,468,o),
(381,468,cs),
(328,468,o),
(267,426,o),
(160,253,c),
(202,436,o),
(251,655,o),
(251,727,cs),
(251,757,o),
(246,762,o),
(242,762,cs),
(102,743,l),
(96,724,l),
(113,711,o),
(145,697,o),
(176,694,c),
(176,579,o),
(90,130,o),
(22,-3,c),
(37,-12,l),
(45,-12,o),
(77,-10,o),
(112,3,c),
(149,169,l),
(258,349,o),
(320,412,o),
(351,412,cs),
(366,412,o),
(376,406,o),
(376,378,cs),
(376,305,o),
(334,132,o),
(281,23,c),
(281,-7,o),
(294,-12,o),
(298,-12,c),
(432,8,l),
(438,27,l),
(427,35,o),
(389,48,o),
(363,53,c,{
name = hr00;
})
);
},
{
closed = 1;
nodes = (
(64,598,l),
(57,560,l),
(379,560,l),
(386,598,l,{
name = hr00;
})
);
}
);
};
layerId = master01;
shapes = (
{
closed = 1;
nodes = (
(379,560,l),
(386,598,l,{
name = hr00;
}),
(64,598,l),
(57,560,l)
);
},
{
alignment = -1;
ref = h;
}
);
width = 513;
}
);
unicode = 295;
},
{
glyphname = hcircumflex;
kernLeft = h;
lastChange = "2023-02-24 13:27:04 +0000";
layers = (
{
background = {
shapes = (
{
closed = 1;
nodes = (
(427,269,o),
(443,326,o),
(443,374,cs),
(443,428,o),
(421,468,o),
(381,468,cs),
(328,468,o),
(267,426,o),
(160,253,c),
(202,436,o),
(251,655,o),
(251,727,cs),
(251,757,o),
(246,762,o),
(242,762,cs),
(102,743,l),
(96,724,l),
(113,711,o),
(145,697,o),
(176,694,c),
(176,579,o),
(90,130,o),
(22,-3,c),
(37,-12,l),
(45,-12,o),
(77,-10,o),
(112,3,c),
(149,169,l),
(258,349,o),
(320,412,o),
(351,412,cs),
(366,412,o),
(376,406,o),
(376,378,cs),
(376,305,o),
(334,132,o),
(281,23,c),
(281,-7,o),
(294,-12,o),
(298,-12,c),
(432,8,l),
(438,27,l),
(427,35,o),
(389,48,o),
(363,53,c,{
name = hr00;
})
);
},
{
closed = 1;
nodes = (
(248,931,o),
(240,932,o),
(232,932,cs),
(224,932,o),
(216,931,o),
(208,929,c),
(141,837,o),
(90,785,o),
(90,785,c),
(109,768,l),
(126,779,o),
(182,818,o),
(224,852,c),
(256,808,o),
(281,779,o),
(291,768,c),
(310,782,l),
(310,782,o),
(290,830,o),
(256,929,c,{
name = hr00;
})
);
}
);
};
layerId = master01;
shapes = (
{
ref = h;
},
{
pos = (16,0);
ref = circumflexcomb.case;
}
);
width = 513;
}
);
unicode = 293;
},
{
glyphname = i;
lastChange = "2023-02-24 13:23:56 +0000";
layers = (
{
anchors = (
{
name = bottom;
pos = (78,0);
}
);
background = {
shapes = (
{
closed = 1;
nodes = (
(204,662,o),
(172,655,o),
(172,655,c),
(172,655,o),
(153,611,o),
(153,579,cs),
(153,561,o),
(159,547,o),
(179,547,cs),
(198,547,o),
(228,556,o),
(228,556,c),
(229,556,o),
(247,599,o),
(247,628,cs),
(247,647,o),
(240,662,o),
(222,662,cs,{
name = hr00;
})
);
},
{
closed = 1;
nodes = (
(70,198,o),
(50,71,o),
(50,23,cs),
(50,-7,o),
(63,-12,o),
(67,-12,c),
(191,7,l),
(197,26,l),
(183,37,o),
(136,50,o),
(107,53,c),
(107,117,o),
(161,348,o),
(204,457,c),
(189,466,l),
(181,466,o),
(159,464,o),
(125,451,c)
);
}
);
};
layerId = master01;
shapes = (
{
closed = 1;
nodes = (
(191,7,l),
(197,26,l),
(183,37,o),
(136,50,o),
(107,53,c),
(107,117,o),
(161,348,o),
(204,457,c),
(189,466,l),
(181,466,o),
(159,464,o),
(125,451,c),
(70,198,o),
(50,71,o),
(50,23,cs),
(50,-7,o),
(63,-12,o),
(67,-12,c)
);
},
{
closed = 1;
nodes = (
(198,547,o),
(228,556,o),
(228,556,c),
(229,556,o),
(247,599,o),
(247,628,cs),
(247,647,o),
(240,662,o),
(222,662,cs,{
name = hr00;
}),
(204,662,o),
(172,655,o),
(172,655,c),
(172,655,o),
(153,611,o),
(153,579,cs),
(153,561,o),
(159,547,o),
(179,547,cs)
);
}
);
width = 244;
}
);
unicode = 105;
},
{
glyphname = idotless;
lastChange = "2023-02-24 13:23:56 +0000";
layers = (
{
anchors = (
{
name = bottom;
pos = (78,0);
},
{
name = ogonek;
pos = (178,10);
},
{
name = top;
pos = (166,457);
}
);
background = {
shapes = (
{
closed = 1;
nodes = (
(70,198,o),
(50,71,o),
(50,23,cs),
(50,-7,o),
(63,-12,o),
(67,-12,c),
(191,7,l),
(197,26,l),
(183,37,o),
(136,50,o),
(107,53,c),
(107,117,o),
(161,348,o),
(204,457,c),
(189,466,l),
(181,466,o),
(159,464,o),
(125,451,c,{
name = hr00;
})
);
}
);
};
layerId = master01;
shapes = (
{
closed = 1;
nodes = (
(191,7,l),
(197,26,l),
(183,37,o),
(136,50,o),
(107,53,c),
(107,117,o),
(161,348,o),
(204,457,c),
(189,466,l),
(181,466,o),
(159,464,o),
(125,451,c,{
name = hr00;
}),
(70,198,o),
(50,71,o),
(50,23,cs),
(50,-7,o),
(63,-12,o),
(67,-12,c)
);
}
);
width = 244;
}
);
unicode = 305;
},
{
glyphname = iacute;
lastChange = "2023-02-24 13:23:56 +0000";
layers = (
{
background = {
shapes = (
{
closed = 1;
nodes = (
(70,198,o),
(50,71,o),
(50,23,cs),
(50,-7,o),
(63,-12,o),
(67,-12,c),
(191,7,l),
(197,26,l),
(183,37,o),
(136,50,o),
(107,53,c),
(107,117,o),
(161,348,o),
(204,457,c),
(189,466,l),
(181,466,o),
(159,464,o),
(125,451,c,{
name = hr00;
})
);
},
{
closed = 1;
nodes = (
(159,519,o),
(238,571,o),
(287,628,c),
(291,647,l),
(286,667,o),
(263,694,o),
(251,702,c),
(187,606,o),
(117,518,o),
(117,518,c),
(132,502,l,{
name = hr00;
})
);
}
);
};
layerId = master01;
shapes = (
{
alignment = -1;
ref = idotless;
},
{
alignment = -1;
pos = (67,0);
ref = acute;
}
);
width = 244;
}
);
unicode = 237;
},
{
glyphname = ibreve;
lastChange = "2023-02-24 13:23:56 +0000";
layers = (
{
background = {
shapes = (
{
closed = 1;
nodes = (
(70,198,o),
(50,71,o),
(50,23,cs),
(50,-7,o),
(63,-12,o),
(67,-12,c),
(191,7,l),
(197,26,l),
(183,37,o),
(136,50,o),
(107,53,c),
(107,117,o),
(161,348,o),
(204,457,c),
(189,466,l),
(181,466,o),
(159,464,o),
(125,451,c,{
name = hr00;
})
);
},
{
closed = 1;
nodes = (
(157,576,o),
(139,610,o),
(130,663,c),
(102,656,l),
(112,563,o),
(130,512,o),
(178,512,cs),
(227,512,o),
(260,563,o),
(302,656,c),
(275,663,l),
(248,610,o),
(219,576,o),
(188,576,cs,{
name = hr00;
})
);
}
);
};
layerId = master01;
shapes = (
{
alignment = -1;
ref = idotless;
},
{
alignment = -1;
pos = (2,0);
ref = breve;
scale = (0.9,1);
}
);
width = 244;
}
);
unicode = 301;
},
{
glyphname = icircumflex;
lastChange = "2023-02-24 13:23:56 +0000";
layers = (
{
background = {
shapes = (
{
closed = 1;
nodes = (
(70,198,o),
(50,71,o),
(50,23,cs),
(50,-7,o),
(63,-12,o),
(67,-12,c),
(191,7,l),
(197,26,l),
(183,37,o),
(136,50,o),
(107,53,c),
(107,117,o),
(161,348,o),
(204,457,c),
(189,466,l),
(181,466,o),
(159,464,o),
(125,451,c,{
name = hr00;
})
);
},
{
closed = 1;
nodes = (
(225,687,o),
(218,688,o),
(210,688,cs),
(203,688,o),
(196,686,o),
(189,685,c),
(116,580,o),
(61,521,o),
(61,521,c),
(78,504,l),
(96,518,o),
(157,563,o),
(203,608,c),
(237,548,o),
(264,518,o),
(274,504,c),
(291,518,l),
(291,518,o),
(269,573,o),
(232,685,c,{
name = hr00;
})
);
}
);
};
layerId = master01;
shapes = (
{
alignment = -1;
ref = idotless;
},
{
alignment = -1;
pos = (16,0);
ref = circumflex;
scale = (0.9,1);
}
);
width = 244;
}
);
unicode = 238;
},
{
glyphname = idieresis;
lastChange = "2023-02-24 13:23:56 +0000";
layers = (
{
background = {
shapes = (
{
closed = 1;
nodes = (
(70,198,o),
(50,71,o),
(50,23,cs),
(50,-7,o),
(63,-12,o),
(67,-12,c),
(191,7,l),
(197,26,l),
(183,37,o),
(136,50,o),
(107,53,c),
(107,117,o),
(161,348,o),
(204,457,c),
(189,466,l),
(181,466,o),
(159,464,o),
(125,451,c,{
name = hr00;
})
);
},
{
closed = 1;
nodes = (
(257,659,o),
(225,652,o),
(225,652,c),
(225,652,o),
(206,608,o),
(206,576,cs),
(206,558,o),
(212,544,o),
(232,544,cs),
(251,544,o),
(281,553,o),
(281,553,c),
(282,553,o),
(300,596,o),
(300,625,cs),
(300,644,o),
(293,659,o),
(275,659,cs,{
name = hr00;
})
);
},
{
closed = 1;
nodes = (
(121,659,o),
(89,652,o),
(89,652,c),
(89,652,o),
(70,608,o),
(70,576,cs),
(70,558,o),
(76,544,o),
(96,544,cs),
(115,544,o),
(145,553,o),
(145,553,c),
(146,553,o),
(164,596,o),
(164,625,cs),
(164,644,o),
(157,659,o),
(139,659,cs)
);
}
);
};
layerId = master01;
shapes = (
{
alignment = -1;
ref = idotless;
},
{
alignment = -1;
pos = (2,0);
ref = dieresis;
}
);
width = 244;
}
);
unicode = 239;
},
{
glyphname = igrave;
lastChange = "2023-02-24 13:23:56 +0000";
layers = (
{
background = {
shapes = (
{
closed = 1;
nodes = (
(70,198,o),
(50,71,o),
(50,23,cs),
(50,-7,o),
(63,-12,o),
(67,-12,c),
(191,7,l),
(197,26,l),
(183,37,o),
(136,50,o),
(107,53,c),
(107,117,o),
(161,348,o),
(204,457,c),
(189,466,l),
(181,466,o),
(159,464,o),
(125,451,c,{
name = hr00;
})
);
},
{
closed = 1;
nodes = (
(244,530,o),
(174,618,o),
(110,714,c),
(98,706,o),
(75,679,o),
(70,659,c),
(74,640,l),
(123,583,o),
(202,531,o),
(229,514,c),
(244,530,l,{
name = hr00;
})
);
}
);
};
layerId = master01;
shapes = (
{
alignment = -1;
ref = idotless;
},
{
alignment = -1;
pos = (94,0);
ref = grave;
}
);
width = 244;
}
);
unicode = 236;
},
{
glyphname = ij;
lastChange = "2023-02-24 13:23:56 +0000";
layers = (
{
background = {
shapes = (
{
closed = 1;
nodes = (
(204,662,o),
(172,655,o),
(172,655,c),
(172,655,o),
(153,611,o),
(153,579,cs),
(153,561,o),
(159,547,o),
(179,547,cs),
(198,547,o),
(228,556,o),
(228,556,c),
(229,556,o),
(247,599,o),
(247,628,cs),
(247,647,o),
(240,662,o),
(222,662,cs,{
name = hr00;
})
);
},
{
closed = 1;
nodes = (
(70,198,o),
(50,71,o),
(50,23,cs),
(50,-7,o),
(63,-12,o),
(67,-12,c),
(191,7,l),
(197,26,l),
(183,37,o),
(136,50,o),
(107,53,c),
(107,117,o),
(161,348,o),
(204,457,c),
(189,466,l),
(181,466,o),
(159,464,o),
(125,451,c)
);
},
{
closed = 1;
nodes = (
(443,662,o),
(412,655,o),
(412,655,c),
(411,655,o),
(394,609,o),
(394,578,cs),
(394,561,o),
(401,547,o),
(420,547,cs),
(438,547,o),
(467,556,o),
(467,556,c),
(467,556,o),
(483,599,o),
(483,627,cs),
(483,646,o),
(477,662,o),
(460,662,cs,{
name = hr00;
})
);
},
{
closed = 1;
nodes = (
(451,457,o),
(446,462,o),
(442,462,cs),
(306,443,l),
(300,424,l),
(317,411,o),
(349,397,o),
(380,394,c),
(323,69,ls),
(304,-40,o),
(259,-138,o),
(184,-241,c),
(208,-262,l),
(314,-142,o),
(365,-14,o),
(382,72,cs),
(451,427,l)
);
}
);
};
layerId = master01;
shapes = (
{
ref = i;
},
{
pos = (244,0);
ref = j;
}
);
width = 489;
}
);
unicode = 307;
},
{
glyphname = imacron;
lastChange = "2023-02-24 13:23:56 +0000";
layers = (
{
background = {
shapes = (
{
closed = 1;
nodes = (
(70,198,o),
(50,71,o),
(50,23,cs),
(50,-7,o),
(63,-12,o),
(67,-12,c),
(191,7,l),
(197,26,l),
(183,37,o),
(136,50,o),
(107,53,c),
(107,117,o),
(161,348,o),
(204,457,c),
(189,466,l),
(181,466,o),
(159,464,o),
(125,451,c,{
name = hr00;
})
);
},
{
closed = 1;
nodes = (
(295,561,l),
(303,618,l),
(89,618,l),
(81,561,l,{
name = hr00;
})
);
}
);
};
layerId = master01;
shapes = (
{
alignment = -1;
ref = idotless;
},
{
alignment = -1;
pos = (-9,0);
ref = macron;
scale = (0.8,1);
}
);
width = 244;
}
);
unicode = 299;
},
